<?xml version="1.0" encoding="utf-8" ?>
<svg baseProfile="full" height="200mm" version="1.1" viewBox="0,0,200,200" width="200mm" xmlns="http://www.w3.org/2000/svg" xmlns:ev="http://www.w3.org/2001/xml-events" xmlns:xlink="http://www.w3.org/1999/xlink"><defs /><rect fill="#1a1a1a" height="200" width="200" x="0" y="0" /><text alignment-baseline="middle" fill="#e1ed5e" style="dominant-baseline: central; font-size:9.0px; font-family:Arial;" text-anchor="middle" x="100.0" y="100.0">2026</text><line stroke="#e1ed5e" stroke-width="0.3" x1="100.0" x2="100.0" y1="15.0" y2="10.0" /><path d="M 100.0 14.0 a86.0,86.0 0 0,1 42.46469731375804,11.215312516191453" fill="none" id="id37" stroke="none" /><text fill="#e1ed5e" style="font-size:6.75px; font-family:Arial;" text-anchor="middle"><textPath startOffset="22.20632615414155" xlink:href="#id37">January</textPath></text><path d="M 103.95276090670814 79.375362276772 l 4.5278629628444325 -23.62539386346542 a45.05536901014341,45.05536901014341 0 0,0 0.7604350576689876,0.15253611876679726 l -4.933864429980545 23.543953788621415" fill="#ff890c" stroke="none" /><path d="M 104.307194497241 79.44645832069477 l 5.123889193622376 -24.45073473434242 a45.98184679958027,45.98184679958027 0 0,0 0.7732773216252185,0.16900847169291386 l -5.544009239401122 24.358912764553633" fill="#ff990e" stroke="none" /><path d="M 104.66035177308747 79.52364482259891 l 6.519384949774135 -28.644456098930775 a50.376984959776145,50.376984959776145 0 0,0 0.8438776205283075,0.19971856818663533 l -7.011486257264966 28.52799161860327" fill="#ffe515" stroke="none" /><path d="M 108.09893153111575 80.62456947434976 l 11.754451367469763 -28.120691595249138 a51.47852395942637,51.47852395942637 0 0,0 0.8146261731760853,0.3487804137488555 l -12.236761298436164 27.91419165353749" fill="#fff717" stroke="none" /><line stroke="#e1ed5e" stroke-width="0.3" x1="143.23703022742887" x2="145.7803849466894" y1="26.81831364943548" y2="22.513508569990506" /><path d="M 143.74570117128098 25.957352633546492 a86.0,86.0 0 0,1 28.547481713284135,27.462654790039103" fill="none" id="id38" stroke="none" /><text fill="#e1ed5e" style="font-size:6.75px; font-family:Arial;" text-anchor="middle"><textPath startOffset="19.985693538727396" xlink:href="#id38">February</textPath></text><path d="M 116.60985879189232 87.15038557335679 l 22.934657534380406 -17.74256542552589 a49.99650227352221,49.99650227352221 0 0,0 0.5207351405647198,0.6852264050961052 l -23.23666861516924 17.34515424454875" fill="#ffde14" stroke="none" /><path d="M 116.82858285166822 87.43820079747576 l 23.337126052735456 -17.42014131685483 a50.12186079048619,50.12186079048619 0 0,0 0.5101388372054392,0.6958288006426628 l -23.633527502454523 17.015850072540672" fill="#ffe115" stroke="none" /><path d="M 117.45458315368197 88.32363383020206 l 20.001849299591232 -13.38037777464067 a45.064672962574335,45.064672962574335 0 0,0 0.4257610829652142,0.6484633391449373 l -20.22920701791437 13.034096371518059" fill="#ff890c" stroke="none" /><line stroke="#e1ed5e" stroke-width="0.3" x1="172.23445277983987" x2="176.4835382374775" y1="55.19839476539836" y2="52.563006222186495" /><path d="M 173.08426987136738 54.67131705675599 a86.0,86.0 0 0,1 12.851231095245387,41.99856678651699" fill="none" id="id39" stroke="none" /><text fill="#e1ed5e" style="font-size:6.75px; font-family:Arial;" text-anchor="middle"><textPath startOffset="22.20632615414155" xlink:href="#id39">March</textPath></text><path d="M 118.21658344932153 89.55222093294921 l 31.807552220518158 -18.242623771255616 a57.66761105281567,57.66761105281567 0 0,0 0.4864465068060157,0.8653340564480362 l -32.1168563686166 17.692406204872785" fill="#a6ff21" stroke="none" /><path d="M 118.56541770881063 90.18545643968196 l 28.621956204220943 -15.130897691277315 a53.37530605106681,53.37530605106681 0 0,0 0.4224034460894793,0.8159490095283296 l -28.87816908347054 14.635975959488642" fill="#e8ff1a" stroke="none" /><path d="M 118.73160827565052 90.50648371742162 l 21.544297828898774 -10.91903798251225 a45.15330535152151,45.15330535152151 0 0,0 0.34540125651329634,0.6963078564604427 l -21.72905909836548 10.546570537552858" fill="#ff8b0c" stroke="none" /><path d="M 118.89224826269711 90.83032412892265 l 15.070185864955242 -7.314572504924445 a37.75152151101784,37.75152151101784 0 0,0 0.27871733715666663,0.587049793834865 l -15.193861395953666 7.054080295449039" fill="#ff0000" stroke="none" /><path d="M 119.34039704204932 91.81776055985345 l 41.346327877197226 -17.49217215791898 a65.89426372857642,65.89426372857642 0 0,0 0.43295139776880964,1.0484261510939963 l -41.64130096185223 16.77787143637168" fill="#33ff2f" stroke="none" /><path d="M 119.61058180528143 92.48833698450437 l 16.687400175567973 -6.391963684108067 a38.86970968870234,38.86970968870234 0 0,0 0.2339501405202808,0.6268700639023924 l -16.79495490458988 6.1037704831763415" fill="#ff1602" stroke="none" /><path d="M 119.97218684219823 93.5106431181261 l 59.91656052659467 -19.46807064562169 a84.0,84.0 0 0,0 0.4349780649271753,1.3789993342943234 l -60.24279407529006 18.433821144900946" fill="#4dd2ff" stroke="none" /><path d="M 120.6074358757038 95.95851677861258 l 24.07660652522329 -4.721849039664368 a45.535257082896116,45.535257082896116 0 0,0 0.14422593625939464,0.7704607185681478 l -24.154318185392544 4.306710243633658" fill="#ff910d" stroke="none" /><path d="M 120.78858239683441 97.02765380044208 l 27.86038452569576 -3.9834706610771056 a49.14372158097237,49.14372158097237 0 0,0 0.11252508356194815,0.838442573578253 l -27.924825608315544 3.5033097454341884" fill="#ffd013" stroke="none" /><line stroke="#e1ed5e" stroke-width="0.3" x1="184.98032266829074" x2="189.97916517819016" y1="98.17113171792111" y2="98.06355123074" /><path d="M 185.9800911702706 98.14961562048488 a86.0,86.0 0 0,1 -9.607161424134198,41.387399972396054" fill="none" id="id40" stroke="none" /><text fill="#e1ed5e" style="font-size:6.75px; font-family:Arial;" text-anchor="middle"><textPath startOffset="21.466115282336823" xlink:href="#id40">April</textPath></text><line stroke="#e1ed5e" stroke-width="0.3" x1="174.80103733775053" x2="179.2010983576182" y1="140.37084112569926" y2="142.7455964860345" /><path d="M 175.68104954172406 140.8457921977663 a86.0,86.0 0 0,1 -30.038265399797805,32.042727171017184" fill="none" id="id41" stroke="none" /><text fill="#e1ed5e" style="font-size:6.75px; font-family:Arial;" text-anchor="middle"><textPath startOffset="22.206326154141568" xlink:href="#id41">May</textPath></text><line stroke="#e1ed5e" stroke-width="0.3" x1="143.8653032363475" x2="146.44561519142675" y1="172.8068346515853" y2="177.08958963109032" /><path d="M 144.38136562736335 173.6633856474863 a86.0,86.0 0 0,1 -40.68145358897372,12.25698825130547" fill="none" id="id42" stroke="none" /><text fill="#e1ed5e" style="font-size:6.75px; font-family:Arial;" text-anchor="middle"><textPath startOffset="21.466115282336833" xlink:href="#id42">June</textPath></text><line stroke="#e1ed5e" stroke-width="0.3" x1="102.19456741930631" x2="102.32365962044197" y1="184.97166512339345" y2="189.96999836594603" /><path d="M 102.22038585953345 185.97133177190398 a86.0,86.0 0 0,1 -42.740103519485714,-10.115201625700543" fill="none" id="id43" stroke="none" /><text fill="#e1ed5e" style="font-size:6.75px; font-family:Arial;" text-anchor="middle"><textPath startOffset="22.20632615414155" xlink:href="#id43">July</textPath></text><line stroke="#e1ed5e" stroke-width="0.3" x1="58.666819895761336" x2="56.23545636021788" y1="174.27360380694188" y2="178.64263932499728" /><path d="M 58.180547188652646 175.14741091055294 a86.0,86.0 0 0,1 -31.652253787137756,-30.449443065178592" fill="none" id="id44" stroke="none" /><text fill="#e1ed5e" style="font-size:6.75px; font-family:Arial;" text-anchor="middle"><textPath startOffset="22.20632615414155" xlink:href="#id44">August</textPath></text><line stroke="#e1ed5e" stroke-width="0.3" x1="26.63291911575756" x2="22.317208475507996" y1="142.92168965132927" y2="145.44649492493687" /><path d="M 25.769776987707644 143.4266507060508 a86.0,86.0 0 0,1 -11.730757126820373,-40.83630448921669" fill="none" id="id45" stroke="none" /><text fill="#e1ed5e" style="font-size:6.75px; font-family:Arial;" text-anchor="middle"><textPath startOffset="21.46611528233685" xlink:href="#id45">September</textPath></text><line stroke="#e1ed5e" stroke-width="0.3" x1="15.007084014347285" x2="10.007500721073583" y1="101.09737516637583" y2="101.16192664675087" /><path d="M 14.007167355692545 101.11028546245083 a86.0,86.0 0 0,1 10.666146001902534,-42.60595125391555" fill="none" id="id46" stroke="none" /><text fill="#e1ed5e" style="font-size:6.75px; font-family:Arial;" text-anchor="middle"><textPath startOffset="22.20632615414155" xlink:href="#id46">October</textPath></text><line stroke="#e1ed5e" stroke-width="0.3" x1="26.266209847984243" x2="21.928928074336255" y1="57.711370442889674" y2="55.22380399835377" /><path d="M 25.398753493254645 57.213857153982495 a86.0,86.0 0 0,1 29.58750427330803,-30.492523968695096" fill="none" id="id47" stroke="none" /><text fill="#e1ed5e" style="font-size:6.75px; font-family:Arial;" text-anchor="middle"><textPath startOffset="21.46611528233685" xlink:href="#id47">November</textPath></text><line stroke="#e1ed5e" stroke-width="0.3" x1="56.762969772571076" x2="54.21961505331055" y1="26.818313649435495" y2="22.513508569990535" /><path d="M 56.25429882871897 25.957352633546506 a86.0,86.0 0 0,1 42.265352541879196,-11.944610805530505" fill="none" id="id48" stroke="none" /><text fill="#e1ed5e" style="font-size:6.75px; font-family:Arial;" text-anchor="middle"><textPath startOffset="22.20632615414155" xlink:href="#id48">December</textPath></text></svg>