<?xml version="1.0" encoding="utf-8" ?>
<svg baseProfile="full" height="200mm" version="1.1" viewBox="0,0,200,200" width="200mm" xmlns="http://www.w3.org/2000/svg" xmlns:ev="http://www.w3.org/2001/xml-events" xmlns:xlink="http://www.w3.org/1999/xlink"><defs /><rect fill="#1a1a1a" height="200" width="200" x="0" y="0" /><text alignment-baseline="middle" fill="#e1ed5e" style="dominant-baseline: central; font-size:9.0px; font-family:Arial;" text-anchor="middle" x="100.0" y="100.0">2026</text><line stroke="#e1ed5e" stroke-width="0.3" x1="100.0" x2="100.0" y1="15.0" y2="10.0" /><path d="M 100.0 14.0 a86.0,86.0 0 0,1 42.46469731375804,11.215312516191453" fill="none" id="id37" stroke="none" /><text fill="#e1ed5e" style="font-size:6.75px; font-family:Arial;" text-anchor="middle"><textPath startOffset="22.20632615414155" xlink:href="#id37">January</textPath></text><path d="M 103.95276090670814 79.375362276772 l 2.7448737756996695 -14.322148127836394 a35.58280696711752,35.58280696711752 0 0,0 0.6005591445044596,0.12046651462049547 l -2.9909993296712547 14.27277765713869" fill="#ff750a" stroke="none" /><path d="M 104.307194497241 79.44645832069477 l 3.1061958351163597 -14.822484938175782 a36.14445483695409,36.14445483695409 0 0,0 0.6078417717702165,0.13285066819506086 l -3.360880331040104 14.76682077188485" fill="#ff7d0b" stroke="none" /><path d="M 104.66035177308747 79.52364482259891 l 3.9521710195673534 -17.364795933608065 a38.80886839705879,38.80886839705879 0 0,0 0.6500971732320943,0.15385699710677136 l -4.250491879761971 17.294193024360425" fill="#ffa40f" stroke="none" /><path d="M 108.09893153111575 80.62456947434976 l 7.125764531980476 -17.047280261734702 a39.47664159113773,39.47664159113773 0 0,0 0.6247013899345447,0.2674645333348 l -7.418149679705336 16.92209620043711" fill="#ffae10" stroke="none" /><line stroke="#e1ed5e" stroke-width="0.3" x1="143.23703022742887" x2="145.7803849466894" y1="26.81831364943548" y2="22.513508569990506" /><path d="M 143.74570117128098 25.957352633546492 a86.0,86.0 0 0,1 28.547481713284135,27.462654790039103" fill="none" id="id38" stroke="none" /><text fill="#e1ed5e" style="font-size:6.75px; font-family:Arial;" text-anchor="middle"><textPath startOffset="19.985693538727396" xlink:href="#id38">February</textPath></text><path d="M 116.60985879189232 87.15038557335679 l 13.903411065520926 -10.755869369237123 a38.5782127972369,38.5782127972369 0 0,0 0.40180872961474823,0.5287331886831389 l -14.086495735359788 10.514951404672951" fill="#ffa10e" stroke="none" /><path d="M 116.82858285166822 87.43820079747576 l 14.147394880985937 -10.560409946589635 a38.65420743501606,38.65420743501606 0 0,0 0.39342139583412816,0.5366263417818935 l -14.327078889333691 10.315321161136248" fill="#ffa20f" stroke="none" /><path d="M 117.45458315368197 88.32363383020206 l 12.125488792058023 -8.11143101369249 a35.5884471941402,35.5884471941402 0 0,0 0.33623179360496347,0.5121040891977906 l -12.26331722102091 7.901508860517025" fill="#ff750a" stroke="none" /><line stroke="#e1ed5e" stroke-width="0.3" x1="172.23445277983987" x2="176.4835382374775" y1="55.19839476539836" y2="52.563006222186495" /><path d="M 173.08426987136738 54.67131705675599 a86.0,86.0 0 0,1 12.851231095245387,41.99856678651699" fill="none" id="id39" stroke="none" /><text fill="#e1ed5e" style="font-size:6.75px; font-family:Arial;" text-anchor="middle"><textPath startOffset="22.20632615414155" xlink:href="#id39">March</textPath></text><path d="M 118.21658344932153 89.55222093294921 l 19.28232295803645 -11.05901393230734 a43.228579977429675,43.228579977429675 0 0,0 0.36464822003717123,0.6486684949043183 l -19.469828819366054 10.72546192746823" fill="#ffe315" stroke="none" /><path d="M 118.56541770881063 90.18545643968196 l 17.351156083760173 -9.17262837157308 a40.62650576862818,40.62650576862818 0 0,0 0.3215115248767676,0.6210579309989096 l -17.50647704179706 8.872597718313825" fill="#ffbe11" stroke="none" /><path d="M 118.73160827565052 90.50648371742162 l 13.060549449415701 -6.6193215784159465 a35.64217777788249,35.64217777788249 0 0,0 0.27264566555006514,0.5496370246849072 l -13.172555127919175 6.39352496523209" fill="#ff760a" stroke="none" /><path d="M 118.89224826269711 90.83032412892265 l 9.135823746231328 -4.434228335525441 a31.155080327293376,31.155080327293376 0 0,0 0.2300161869023207,0.4844727510574213 l -9.210798126975405 4.276313168827479" fill="#ff3104" stroke="none" /><path d="M 119.34039704204932 91.81776055985345 l 25.064904137536764 -10.604076366775274 a48.21572808168669,48.21572808168669 0 0,0 0.31679642029833005,0.767147659819062 l -25.243722244721294 10.17105413650291" fill="#d8ff1c" stroke="none" /><path d="M 119.61058180528143 92.48833698450437 l 10.116208794832373 -3.8749259056000502 a31.83294655920236,31.83294655920236 0 0,0 0.19159706569315021,0.5133848799896921 l -10.18141044902715 3.7002178885810246" fill="#ff3b05" stroke="none" /><path d="M 119.97218684219823 93.5106431181261 l 36.32252059507004 -11.801902358163643 a59.19175829483262,59.19175829483262 0 0,0 0.3065132914609925,0.9717308962414842 l -36.52028937029924 11.17492129549574" fill="#53ff2b" stroke="none" /><path d="M 120.6074358757038 95.95851677861258 l 14.595681539224088 -2.8624717020245884 a35.87372393986585,35.87372393986585 0 0,0 0.11362451326274892,0.6069866932804961 l -14.642791776396697 2.6108069312815294" fill="#ff790b" stroke="none" /><path d="M 120.78858239683441 97.02765380044208 l 16.88947733026139 -2.41485315337165 a38.06124146250097,38.06124146250097 0 0,0 0.0871493700163248,0.6493640330600947 l -16.92854269933555 2.123770778246891" fill="#ff990e" stroke="none" /><path d="M 120.94382443527127 98.46500227214037 l 45.18763188526524 -3.3118551239584657 a66.30883423528275,66.30883423528275 0 0,0 0.07363251550252253,1.1390624243012508 l -45.237944991772174 2.5335336354041793" fill="#35ff62" stroke="none" /><line stroke="#e1ed5e" stroke-width="0.3" x1="184.98032266829074" x2="189.97916517819016" y1="98.17113171792111" y2="98.06355123074" /><path d="M 185.9800911702706 98.14961562048488 a86.0,86.0 0 0,1 -9.607161424134198,41.387399972396054" fill="none" id="id40" stroke="none" /><text fill="#e1ed5e" style="font-size:6.75px; font-family:Arial;" text-anchor="middle"><textPath startOffset="21.466115282336823" xlink:href="#id40">April</textPath></text><path d="M 120.99513854157772 99.54816195383933 l 17.9976561455389 -0.38732898914515723 a39.001823532044924,39.001823532044924 0 0,0 0.008667677753341322,0.6713211941123075 l -18.001656830409956 0.07747153697238696" fill="#ffa70f" stroke="none" /><path d="M 120.99980553446 99.90962569577887 l 17.988743798647768 -0.07741596473106413 a38.988910380703544,38.988910380703544 0 0,0 -0.002888340645646886,0.6711486456090618 l -17.987411160712618 -0.2322421590816824" fill="#ffa70f" stroke="none" /><path d="M 120.81339534386255 102.79330883721812 l 10.522202059322204 1.4121559463850952 a31.61653995396406,31.61653995396406 0 0,0 -0.07703287001505288,0.5387677134684924 l -10.49633513829055 -1.593069131833997" fill="#ff3805" stroke="none" /><path d="M 120.70491114924044 103.5080841355445 l 62.114733447721314 10.524252406633499 a84.0,84.0 0 0,0 -0.25381423064324515,1.4235249970671267 l -61.924372774738885 -11.591896154433844" fill="#4dd2ff" stroke="none" /><path d="M 120.49622156327973 104.57218783832717 l 15.700614391495773 3.5024093564479646 a37.086521176767164,37.086521176767164 0 0,0 -0.1443538691711198,0.6218726902974239 l -15.6379999563941 -3.7721507040939533" fill="#ff8b0c" stroke="none" /><path d="M 120.41448212921028 104.9243191809786 l 14.152692966625507 3.4138694774105893 a35.558613361730806,35.558613361730806 0 0,0 -0.1486497110722112,0.5937817035995604 l -14.091831941258235 -3.6569790204075456" fill="#ff740a" stroke="none" /><path d="M 120.13307415673323 105.97154293290107 l 6.821559913338482 2.023299451178665 a28.115294816127186,28.115294816127186 0 0,0 -0.14161168926873186,0.4627951941277209 l -6.785721451563617 -2.1404216178584425" fill="#ff0000" stroke="none" /><path d="M 119.26925614724726 108.34839909993367 l 19.869237038426746 8.608340630298127 a42.65387052922481,42.65387052922481 0 0,0 -0.29768119032266266,0.6711924986384696 l -19.71811476337281 -8.949081465429284" fill="#ffdb14" stroke="none" /><path d="M 119.12269723197855 108.67885076344098 l 16.097628365039373 7.305920944660384 a38.677955759322046,38.677955759322046 0 0,0 -0.2803698397768976,0.6038916920075657 l -15.969483908422644 -7.581932703946781" fill="#ffa20f" stroke="none" /><path d="M 118.64920377521936 109.65438752849418 l 32.34026621205477 16.742026445156956 a57.416867907014,57.416867907014 0 0,0 -0.46192551516536423,0.8737889935173565 l -32.04728818866451 -17.296230453760444" fill="#68ff28" stroke="none" /><line stroke="#e1ed5e" stroke-width="0.3" x1="174.80103733775053" x2="179.2010983576182" y1="140.37084112569926" y2="142.7455964860345" /><path d="M 175.68104954172406 140.8457921977663 a86.0,86.0 0 0,1 -30.038265399797805,32.042727171017184" fill="none" id="id41" stroke="none" /><text fill="#e1ed5e" style="font-size:6.75px; font-family:Arial;" text-anchor="middle"><textPath startOffset="22.206326154141568" xlink:href="#id41">May</textPath></text><path d="M 118.48025628344425 109.97397251340804 l 15.478968722838525 8.354148676812644 a38.58949325128225,38.58949325128225 0 0,0 -0.3205199033493043,0.5818367258783286 l -15.33287241003771 -8.619355921088777" fill="#ffa10e" stroke="none" /><line stroke="#e1ed5e" stroke-width="0.3" x1="143.8653032363475" x2="146.44561519142675" y1="172.8068346515853" y2="177.08958963109032" /><path d="M 144.38136562736335 173.6633856474863 a86.0,86.0 0 0,1 -40.68145358897372,12.25698825130547" fill="none" id="id42" stroke="none" /><text fill="#e1ed5e" style="font-size:6.75px; font-family:Arial;" text-anchor="middle"><textPath startOffset="21.466115282336833" xlink:href="#id42">June</textPath></text><line stroke="#e1ed5e" stroke-width="0.3" x1="102.19456741930631" x2="102.32365962044197" y1="184.97166512339345" y2="189.96999836594603" /><path d="M 102.22038585953345 185.97133177190398 a86.0,86.0 0 0,1 -42.740103519485714,-10.115201625700543" fill="none" id="id43" stroke="none" /><text fill="#e1ed5e" style="font-size:6.75px; font-family:Arial;" text-anchor="middle"><textPath startOffset="22.20632615414155" xlink:href="#id43">July</textPath></text><line stroke="#e1ed5e" stroke-width="0.3" x1="58.666819895761336" x2="56.23545636021788" y1="174.27360380694188" y2="178.64263932499728" /><path d="M 58.180547188652646 175.14741091055294 a86.0,86.0 0 0,1 -31.652253787137756,-30.449443065178592" fill="none" id="id44" stroke="none" /><text fill="#e1ed5e" style="font-size:6.75px; font-family:Arial;" text-anchor="middle"><textPath startOffset="22.20632615414155" xlink:href="#id44">August</textPath></text><line stroke="#e1ed5e" stroke-width="0.3" x1="26.63291911575756" x2="22.317208475507996" y1="142.92168965132927" y2="145.44649492493687" /><path d="M 25.769776987707644 143.4266507060508 a86.0,86.0 0 0,1 -11.730757126820373,-40.83630448921669" fill="none" id="id45" stroke="none" /><text fill="#e1ed5e" style="font-size:6.75px; font-family:Arial;" text-anchor="middle"><textPath startOffset="21.46611528233685" xlink:href="#id45">September</textPath></text><line stroke="#e1ed5e" stroke-width="0.3" x1="15.007084014347285" x2="10.007500721073583" y1="101.09737516637583" y2="101.16192664675087" /><path d="M 14.007167355692545 101.11028546245083 a86.0,86.0 0 0,1 10.666146001902534,-42.60595125391555" fill="none" id="id46" stroke="none" /><text fill="#e1ed5e" style="font-size:6.75px; font-family:Arial;" text-anchor="middle"><textPath startOffset="22.20632615414155" xlink:href="#id46">October</textPath></text><line stroke="#e1ed5e" stroke-width="0.3" x1="26.266209847984243" x2="21.928928074336255" y1="57.711370442889674" y2="55.22380399835377" /><path d="M 25.398753493254645 57.213857153982495 a86.0,86.0 0 0,1 29.58750427330803,-30.492523968695096" fill="none" id="id47" stroke="none" /><text fill="#e1ed5e" style="font-size:6.75px; font-family:Arial;" text-anchor="middle"><textPath startOffset="21.46611528233685" xlink:href="#id47">November</textPath></text><line stroke="#e1ed5e" stroke-width="0.3" x1="56.762969772571076" x2="54.21961505331055" y1="26.818313649435495" y2="22.513508569990535" /><path d="M 56.25429882871897 25.957352633546506 a86.0,86.0 0 0,1 42.265352541879196,-11.944610805530505" fill="none" id="id48" stroke="none" /><text fill="#e1ed5e" style="font-size:6.75px; font-family:Arial;" text-anchor="middle"><textPath startOffset="22.20632615414155" xlink:href="#id48">December</textPath></text></svg>