<?xml version="1.0" encoding="utf-8" ?>
<svg baseProfile="full" height="200mm" version="1.1" viewBox="0,0,200,200" width="200mm" xmlns="http://www.w3.org/2000/svg" xmlns:ev="http://www.w3.org/2001/xml-events" xmlns:xlink="http://www.w3.org/1999/xlink"><defs /><rect fill="#1a1a1a" height="200" width="200" x="0" y="0" /><text alignment-baseline="middle" fill="#e1ed5e" style="dominant-baseline: central; font-size:9.0px; font-family:Arial;" text-anchor="middle" x="100.0" y="100.0">2025</text><line stroke="#e1ed5e" stroke-width="0.3" x1="100.0" x2="100.0" y1="15.0" y2="10.0" /><path d="M 100.0 14.0 a86.0,86.0 0 0,1 42.46469731375804,11.215312516191453" fill="none" id="id25" stroke="none" /><text fill="#e1ed5e" style="font-size:6.75px; font-family:Arial;" text-anchor="middle"><textPath startOffset="22.20632615414155" xlink:href="#id25">January</textPath></text><line stroke="#e1ed5e" stroke-width="0.3" x1="143.23703022742887" x2="145.7803849466894" y1="26.81831364943548" y2="22.513508569990506" /><path d="M 143.74570117128098 25.957352633546492 a86.0,86.0 0 0,1 28.547481713284135,27.462654790039103" fill="none" id="id26" stroke="none" /><text fill="#e1ed5e" style="font-size:6.75px; font-family:Arial;" text-anchor="middle"><textPath startOffset="19.985693538727396" xlink:href="#id26">February</textPath></text><line stroke="#e1ed5e" stroke-width="0.3" x1="172.23445277983987" x2="176.4835382374775" y1="55.19839476539836" y2="52.563006222186495" /><path d="M 173.08426987136738 54.67131705675599 a86.0,86.0 0 0,1 12.851231095245387,41.99856678651699" fill="none" id="id27" stroke="none" /><text fill="#e1ed5e" style="font-size:6.75px; font-family:Arial;" text-anchor="middle"><textPath startOffset="22.20632615414155" xlink:href="#id27">March</textPath></text><path d="M 119.04729006885535 91.15688171328212 l 27.042069244045578 -12.554868234706394 a50.8143962774797,50.8143962774797 0 0,0 0.3615025270838949,0.79652289945353 l -27.25417408809282 12.087523326410802" fill="#9eff22" stroke="none" /><path d="M 120.18372546131832 94.20196356495316 l 4.0856686564249225 -1.1736612141737552 a25.250902141398793,25.250902141398793 0 0,0 0.11641054202007403,0.418790656872542 l -4.105265969011359 1.1031592538822614" fill="#ff0c01" stroke="none" /><path d="M 120.53481517161879 95.60439243477599 l 5.7055507658952695 -1.221309366592263 a26.834801291486635,26.834801291486635 0 0,0 0.09279819827470999,0.45251697139680636 l -5.725728260084977 1.1229167390320447" fill="#ff2403" stroke="none" /><path d="M 120.6074358757038 95.95851677861258 l 54.631084514795496 -10.714123424402215 a76.67178671478088,76.67178671478088 0 0,0 0.2428461138033961,1.297293650470299 l -54.80741635250875 9.772151696469354" fill="#44ffe3" stroke="none" /><path d="M 120.73433829027371 96.67025291283417 l 32.494314286754985 -5.218292806408394 a53.910652390674706,53.910652390674706 0 0,0 0.1392540558588867,0.917510238854717 l -32.579324236053175 4.658183455161595" fill="#7bff26" stroke="none" /><path d="M 120.78858239683441 97.02765380044208 l 9.371198009379702 -1.339891497013571 a30.46650206542899,30.46650206542899 0 0,0 0.06975958638183444,0.5197899462615346 l -9.392873594819372 1.178383208687372" fill="#ff5908" stroke="none" /><path d="M 120.83666639777658 97.38593545837742 l 18.789457246093406 -2.3572318626067403 a39.93674326955035,39.93674326955035 0 0,0 0.07970165774348341,0.6828351305640403 l -18.827249256840478 2.033452993717847" fill="#ffdb14" stroke="none" /><path d="M 120.87857604477298 97.74499172005257 l 5.229309559668463 -0.5647960057320494 a26.25972176060016,26.25972176060016 0 0,0 0.04467013047969354,0.44982211781814735 l -5.238256815830386 0.474698357209467" fill="#ff1b02" stroke="none" /><path d="M 120.91429891909075 98.10471618934814 l 5.028230025963443 -0.4556654278161396 a26.048834338350506,26.048834338350506 0 0,0 0.0366240609400128,0.44690630881276505 l -5.0353285707229505 0.3690452017956058" fill="#ff1802" stroke="none" /><path d="M 120.94382443527127 98.46500227214037 l 36.24546550367389 -2.6564731463111855 a57.342683158444515,57.342683158444515 0 0,0 0.06367607054647534,0.9850406276580472 l -36.28582216522478 2.0321734544001027" fill="#56ff2b" stroke="none" /><path d="M 120.96714384426684 98.82574320788733 l 36.3214128490685 -2.0341666969013152 a57.378329613978444,57.378329613978444 0 0,0 0.04673981834687078,0.9866036925777256 l -36.35104627564887 1.4086518977005897" fill="#55ff2b" stroke="none" /><path d="M 120.98425023603335 99.18683210126433 l 9.556048811252829 -0.37030973442732024 a30.563221119604954,30.563221119604954 0 0,0 0.01584674714142574,0.5258763895887625 l -9.5610072528499 0.20576319741355867" fill="#ff5a08" stroke="none" /><line stroke="#e1ed5e" stroke-width="0.3" x1="184.98032266829074" x2="189.97916517819016" y1="98.17113171792111" y2="98.06355123074" /><path d="M 185.9800911702706 98.14961562048488 a86.0,86.0 0 0,1 -9.607161424134198,41.387399972396054" fill="none" id="id28" stroke="none" /><text fill="#e1ed5e" style="font-size:6.75px; font-family:Arial;" text-anchor="middle"><textPath startOffset="21.466115282336823" xlink:href="#id28">April</textPath></text><path d="M 120.99513854157772 99.54816195383933 l 31.539810053290047 -0.6787707603136515 a52.54711314752386,52.54711314752386 0 0,0 0.01167795252590902,0.9044702926868681 l -31.546821012933673 0.13576420956632063" fill="#8aff24" stroke="none" /><path d="M 120.99980553446 99.90962569577887 l 10.041488608620817 -0.043214330954605466 a31.041581596315467,31.041581596315467 0 0,0 -0.0022995939346429216,0.5343446442207131 l -10.04074471739667 -0.12963979146979238" fill="#ff6109" stroke="none" /><path d="M 120.92983693683757 101.71520430193887 l 29.924717833972142 2.452336581409181 a51.025034423816535,51.025034423816535 0 0,0 -0.07927201657395919,0.8747600972630389 l -29.878071221121107 -2.9670780672207906" fill="#9bff22" stroke="none" /><path d="M 120.89721153311464 102.0752229133903 l 41.45681914314197 4.116919660108502 a62.66073548264565,62.66073548264565 0 0,0 -0.11582597798512757,1.072404705041286 l -41.37981086365579 -4.82992068703458" fill="#31ff43" stroke="none" /><path d="M 120.8583938346157 102.4346265915055 l 29.977813160817742 3.4990604576364 a51.18133042115758,51.18133042115758 0 0,0 -0.10967060112811763,0.8741825968580796 l -29.91314105044278 -4.014560808781875" fill="#9aff23" stroke="none" /><path d="M 120.81339534386255 102.79330883721812 l 9.113581114909096 1.2231087838576256 a30.195289872275772,30.195289872275772 0 0,0 -0.07357003148303792,0.5145486288408558 l -9.091177032409457 -1.3798028846788906" fill="#ff5507" stroke="none" /><path d="M 120.76222939487914 103.15116336523771 l 5.203372931177099 0.7897359115220508 a26.262962347466882,26.262962347466882 0 0,0 -0.07168318700154,0.44637127388553494 l -5.18900798981427 -0.8791864151007908" fill="#ff1b02" stroke="none" /><path d="M 120.64145759157962 103.86396538481128 l 51.327016496625184 9.60813034489877 a73.21856749442097,73.21856749442097 0 0,0 -0.24256288800060605,1.2368229401140483 l -51.15402367564891 -10.490217012080763" fill="#3fffbe" stroke="none" /><path d="M 120.5718875245553 104.21870165774334 l 35.10509921944048 7.199044817619346 a56.83565595175917,56.83565595175917 0 0,0 -0.2047868829674612,0.9566961401601919 l -34.975978297748576 -7.802254777195707" fill="#5bff2a" stroke="none" /><path d="M 120.49622156327973 104.57218783832717 l 28.43740042261037 6.343663682814592 a50.13636579459664,50.13636579459664 0 0,0 -0.19514848411186278,0.8406945620435619 l -28.323991372567953 -6.832226902206719" fill="#a6ff21" stroke="none" /><path d="M 120.41448212921028 104.9243191809786 l 44.098179613878244 10.63722852945379 a66.36298133991738,66.36298133991738 0 0,0 -0.27742471006155944,1.1081738119285298 l -43.90854358952162 -11.394730180779716" fill="#36ff70" stroke="none" /><path d="M 120.32669344350535 105.2749913415812 l 4.878271307639607 1.2659628572253074 a26.039860405488817,26.039860405488817 0 0,0 -0.11632616173478547,0.4328929222094853 l -4.855757069563044 -1.3497467126103408" fill="#ff1802" stroke="none" /><path d="M 120.23288151984713 105.62410040840565 l 34.55662034805665 9.605646255674467 a56.86681544086226,56.86681544086226 0 0,0 -0.2702727094208242,0.9408547579422953 l -34.38615500174972 -10.199058489121343" fill="#5bff2a" stroke="none" /><path d="M 120.13307415673323 105.97154293290107 l 35.13370089181028 10.420783315745371 a57.646550496177774,57.646550496177774 0 0,0 -0.2903553190413772,0.9488979824735468 l -34.94911880026277 -11.024008270770976" fill="#53ff2b" stroke="none" /><path d="M 119.9155931802556 106.66101706037122 l 10.602469476061007 3.5461273697900024 a32.179775414272825,32.179775414272825 0 0,0 -0.18022079270981325,0.5238059830978223 l -10.539857852407962 -3.728106055977125" fill="#ff710a" stroke="none" /><path d="M 119.79798401119884 107.00284435728193 l 34.6039356359264 12.239931867341697 a57.704881059778735,57.704881059778735 0 0,0 -0.3392929920219845,0.9335885935028098 l -34.38811838289919 -12.83376825785064" fill="#52ff2b" stroke="none" /><path d="M 119.67450827220406 107.3425965602758 l 35.16044162082923 13.122002040966732 a58.52923650348986,58.52923650348986 0 0,0 -0.3603888138536085,0.9408614711822602 l -34.92935852738212 -13.725287078982136" fill="#49ff2c" stroke="none" /><path d="M 119.54520255179757 107.68017299344265 l 9.072635983429608 3.5650392301953224 a30.747934571008024,30.747934571008024 0 0,0 -0.1978078846441871,0.49094294758032375 l -9.009925484528027 -3.7206815456184597" fill="#ff5d08" stroke="none" /><path d="M 119.41010516605496 108.01547362559984 l 58.230315498164885 24.046420876799505 a84.0,84.0 0 0,0 -0.5633960752307643,1.331701897335346 l -57.80776844174181 -25.045197299801014" fill="#4dd2ff" stroke="none" /><path d="M 119.12269723197855 108.67885076344098 l 40.1782296442702 18.234920251665933 a65.12258439770193,65.12258439770193 0 0,0 -0.4720623982057427,1.016780409092723 l -39.85839262922463 -18.923820728037487" fill="#35ff61" stroke="none" /><path d="M 118.97047184881838 109.00673069616215 l 35.32587212482055 16.77188735055835 a60.105158824367315,60.105158824367315 0 0,0 -0.4517811229086547,0.9308029263402587 l -35.031937745297185 -17.377479232863887" fill="#39ff2e" stroke="none" /><path d="M 118.81262510543309 109.33194174019688 l 38.941669481040044 19.31688899483348 a64.46948150610132,64.46948150610132 0 0,0 -0.5016994488531716,0.9899006088263529 l -38.60339136240061 -19.98434381536253" fill="#34ff5a" stroke="none" /><path d="M 118.64920377521936 109.65438752849418 l 37.688685151878715 19.51081538286006 a63.43947343430985,63.43947343430985 0 0,0 -0.5103780912504847,0.965443007640357 l -37.347254552403335 -20.156673405586552" fill="#32ff4d" stroke="none" /><line stroke="#e1ed5e" stroke-width="0.3" x1="174.80103733775053" x2="179.2010983576182" y1="140.37084112569926" y2="142.7455964860345" /><path d="M 175.68104954172406 140.8457921977663 a86.0,86.0 0 0,1 -30.038265399797805,32.042727171017184" fill="none" id="id29" stroke="none" /><text fill="#e1ed5e" style="font-size:6.75px; font-family:Arial;" text-anchor="middle"><textPath startOffset="22.206326154141568" xlink:href="#id29">May</textPath></text><path d="M 118.30583269289576 110.29060199501025 l 34.003034249114556 19.114765110692606 a60.007442666540044,60.007442666540044 0 0,0 -0.5139151799798932,0.8960544343343784 l -33.668967072982284 -19.697239390885297" fill="#3aff2e" stroke="none" /><path d="M 118.12598468904814 110.60418214915192 l 23.80966556300825 13.929286318612036 a48.58487251317601,48.58487251317601 0 0,0 -0.42851654958113006,0.7182183853238541 l -23.56636813772889 -14.337066797821993" fill="#b8ff1f" stroke="none" /><path d="M 117.55443506779139 111.5257021239791 l 31.53813750985662 20.706971034951863 a58.728407957836765,58.728407957836765 0 0,0 -0.5621060773189279,0.8402723180377086 l -31.177028327126973 -21.24678026719538" fill="#47ff2c" stroke="none" /><path d="M 117.35343817320211 111.8261652097733 l 31.924154772383652 21.755938203853745 a59.63253169365177,59.63253169365177 0 0,0 -0.5853617136645018,0.843257206873304 l -31.544932151557013 -22.302236672914066" fill="#3eff2d" stroke="none" /><path d="M 117.14729908036423 112.12312394758627 l 4.244487770319969 3.0008487688027223 a26.198150610132473,26.198150610132473 0 0,0 -0.26350375291654327,0.3659836661115624 l -4.192204225027822 -3.0734660403654157" fill="#ff1a02" stroke="none" /><path d="M 116.93607887273984 112.41649034213515 l 29.1948535926241 21.403869242504502 a57.20034661222164,57.20034661222164 0 0,0 -0.5889966902870709,0.7890573191030283 l -28.822095635641936 -21.903239441116845" fill="#57ff2a" stroke="none" /><path d="M 116.71984013943494 112.70617746262583 l 20.420497031794078 15.518477269948853 a46.647998670528466,46.647998670528466 0 0,0 -0.49134377601626206,0.635128064308563 l -20.150346438559747 -15.867683328370669" fill="#cfff1d" stroke="none" /><path d="M 116.498646956653 112.99209946851258 l 28.950186233717726 22.79724514189656 a57.84871326147856,57.84871326147856 0 0,0 -0.6227884704331016,0.777024374970279 l -28.55347985122977 -23.29219735044509" fill="#50ff2b" stroke="none" /><path d="M 116.27256486870786 113.27417163493432 l 21.65515938738471 17.664965837240477 a48.94632258677176,48.94632258677176 0 0,0 -0.5381857940850765,0.6482794587232646 l -21.34787759340609 -18.03510655307751" fill="#b4ff20" stroke="none" /><path d="M 116.0416608686014 113.55231037782055 l 7.553161293551387 6.381059107433527 a30.887778358102654,30.887778358102654 0 0,0 -0.3466160158478325,0.4031927335228036 l -7.442202768132776 -6.510128940117858" fill="#ff5f08" stroke="none" /><path d="M 115.80600337817218 113.82643327865902 l 3.119961423669639 2.7292122761362334 a25.14520915436114,25.14520915436114 0 0,0 -0.28778230923772813,0.3233264751879015 l -3.0725202647835723 -2.7825129210650013" fill="#ff0b01" stroke="none" /><path d="M 115.56566222782051 114.09645910891815 l 3.384040450388548 3.0646295116546716 a25.565488343383507,25.565488343383507 0 0,0 -0.2982075333835852,0.3236453807847432 l -3.330786509009241 -3.1224261472407497" fill="#ff1101" stroke="none" /><path d="M 115.32070863581623 114.36230785411682 l 29.11014659700196 27.289135055229707 a60.90109681401643,60.90109681401643 0 0,0 -0.7235440318539293,0.7586330247079259 l -28.63609601376907 -27.78617519652014" fill="#31ff2f" stroke="none" /><path d="M 115.07121518719521 114.62390073753431 l 24.537685815731763 23.809406026060838 a55.19043492711647,55.19043492711647 0 0,0 -0.6674346836668398,0.6761078107782026 l -24.124210507009387 -24.228254330819706" fill="#6dff28" stroke="none" /><path d="M 114.81725581225074 114.88116024355365 l 32.59078667901348 32.73134547848531 a67.18982954275674,67.18982954275674 0 0,0 -0.8265950315349272,0.8089972135493321 l -32.02254169510276 -33.28749279495722" fill="#37ff7a" stroke="none" /><path d="M 114.55890576462653 115.13401014063108 l 24.75328509311941 25.731086777373 a56.7045368216134,56.7045368216134 0 0,0 -0.7092499928811814,0.6706401374216326 l -24.30669926584742 -26.153361551540552" fill="#5dff2a" stroke="none" /><path d="M 114.29624159901734 115.38237550388516 l 15.234345482491152 16.39175031734935 a43.37799724609468,43.37799724609468 0 0,0 -0.5513146194384669,0.5036128333135794 l -14.949931313585822 -16.65155591724951" fill="#f7ff18" stroke="none" /><path d="M 114.0293411484842 115.62618273729858 l 3.021227708985808 3.365108580077759 a25.52236361046484,25.52236361046484 0 0,0 -0.3294300870721489,0.2906837496617259 l -2.962855269007071 -3.416615471511774" fill="#ff1001" stroke="none" /><path d="M 113.75828350139079 115.86535959552629 l 25.433161387815026 29.32824076694962 a59.81998718009591,59.81998718009591 0 0,0 -0.7837401744744205,0.6679203795670711 l -24.92455573676356 -29.761685536739638" fill="#3cff2e" stroke="none" /><path d="M 113.20401910651253 116.32954008644616 l 22.891835698478 28.310557995653188 a57.407744171691746,57.407744171691746 0 0,0 -0.7737538975141194,0.6147168922706363 l -22.40112430824653 -28.70040880192895" fill="#55ff2b" stroke="none" /><path d="M 112.63410532772338 116.77436683061366 l 21.3623818824157 28.36294464673962 a56.50785812639476,56.50785812639476 0 0,0 -0.7820015648088469,0.5785060626285461 l -20.87099534718829 -28.726460658107936" fill="#5fff29" stroke="none" /><path d="M 112.34349029814194 116.9893568818739 l 3.012758742585758 4.146706664036502 a26.1256113195005,26.1256113195005 0 0,0 -0.3660977835509924,0.26120104806460703 l -2.940933631185881 -4.197951973945329" fill="#ff1902" stroke="none" /><path d="M 112.04921762599082 117.19931262002967 l 22.728516843290937 32.443174213580974 a60.61243530696548,60.61243530696548 0 0,0 -0.8596665029724068,0.591286459602107 l -22.166693455695647 -32.829601462548176" fill="#34ff2f" stroke="none" /><path d="M 111.7513745106137 117.40417183066458 l 2.8657261994450396 4.244234676525012 a26.121124353069654,26.121124353069654 0 0,0 -0.3748074126161701,0.248401915458465 l -2.7922440880889052 -4.292934613074795" fill="#ff1902" stroke="none" /><path d="M 111.45004920935366 117.60387380957326 l 19.655256354891407 30.218966420132325 a57.04878685722425,57.04878685722425 0 0,0 -0.8278001679305776,0.5283412331826688 l -19.132174384913895 -30.552822082138803" fill="#59ff2a" stroke="none" /><line stroke="#e1ed5e" stroke-width="0.3" x1="143.8653032363475" x2="146.44561519142675" y1="172.8068346515853" y2="177.08958963109032" /><path d="M 144.38136562736335 173.6633856474863 a86.0,86.0 0 0,1 -40.68145358897372,12.25698825130547" fill="none" id="id30" stroke="none" /><text fill="#e1ed5e" style="font-size:6.75px; font-family:Arial;" text-anchor="middle"><textPath startOffset="21.466115282336833" xlink:href="#id30">June</textPath></text><path d="M 110.21172684928248 118.3499491758327 l 20.694735269818647 37.18737741552173 a63.55787949290156,63.55787949290156 0 0,0 -0.960562908430875,0.5237754857415521 l -20.051549549519123 -37.53809355302305" fill="#33ff4e" stroke="none" /><path d="M 109.89434966115114 118.52300852407294 l 23.84678737002193 44.6430802280016 a71.61298133991738,71.61298133991738 0 0,0 -1.0922994962083736,0.5714394711538624 l -23.074796971287057 -45.04694911810018" fill="#3dffad" stroke="none" /><path d="M 109.57404056367764 118.69057910512821 l 14.306851437738162 27.930040275455642 a52.38109538958264,52.38109538958264 0 0,0 -0.8060355374495334,0.4041629515004703 l -13.823961992605868 -28.172171067865417" fill="#8cff24" stroke="none" /><path d="M 109.2508944713604 118.85261126421891 l 2.6956336057518047 5.493493914273371 a27.119225108019563,27.119225108019563 0 0,0 -0.42084818649302835,0.2020327044188294 l -2.6006727512585432 -5.53908089519176" fill="#ff2803" stroke="none" /><path d="M 108.59647513512805 119.15986991738527 l 21.902419436445133 48.81622998750741 a74.50458192868334,74.50458192868334 0 0,0 -1.1746155580883137,0.5149169418966365 l -21.058883203699065 -49.1860114826985" fill="#41ffcc" stroke="none" /><path d="M 108.2653958097858 119.30500536409082 l 11.899191268299603 27.792250552707596 a51.232431983286645,51.232431983286645 0 0,0 -0.8136894412276756,0.34012225242533606 l -11.419030367574466 -27.992957848152905" fill="#99ff23" stroke="none" /><path d="M 107.59598834532513 119.57807347666477 l 1.8806932826882807 4.847341728506171 a26.199396989696595,26.199396989696595 0 0,0 -0.42184744382571576,0.15950660720398938 l -1.7969756181022902 -4.878996585816791" fill="#ff1a02" stroke="none" /><path d="M 107.2578585660854 119.70592522655815 l 13.179142209395902 35.78289499083027 a59.13273348843834,59.13273348843834 0 0,0 -0.9581767872671711,0.3435681056168123 l -12.561245861498996 -36.00445063748705" fill="#43ff2d" stroke="none" /><path d="M 106.91757812671514 119.82793768551818 l 10.22741311949366 29.314957677777183 a52.04781349413608,52.04781349413608 0 0,0 -0.8484543758800479,0.28784179036631097 l -9.721289010676385 -29.486662455041618" fill="#90ff24" stroke="none" /><path d="M 106.57524785965236 119.94407469862006 l 7.362850848016546 22.33303602267608 a44.515443236313565,44.515443236313565 0 0,0 -0.7297960438132681,0.23365764702953634 l -6.977333459112337 -22.45646651636532" fill="#e9ff1a" stroke="none" /><path d="M 105.88484417918355 120.15858648285463 l 10.941420500328794 37.47993399406491 a60.0443355016381,60.0443355016381 0 0,0 -0.9946453739471427,0.2810967179215639 l -10.294643958277046 -37.662719505324986" fill="#3aff2e" stroke="none" /><path d="M 105.53697534728816 120.25689768951611 l 9.807486875587477 35.880466458524104 a58.19670243578177,58.19670243578177 0 0,0 -0.9685858903886255,0.25581233699180206 l -9.188410542387354 -36.04397014481949" fill="#4dff2c" stroke="none" /><path d="M 105.18746579009965 120.34920634021253 l 9.725359187865596 38.150293197934886 a60.37038839561274,60.37038839561274 0 0,0 -1.009182216431258,0.24803243551746457 l -9.067223686691127 -38.31204689176638" fill="#36ff2e" stroke="none" /><path d="M 104.83641907484287 120.43548508189849 l 0.795238557342047 3.3601483708567743 a24.452969944447084,24.452969944447084 0 0,0 -0.4104371044247401,0.09341414869858353 l -0.7372813035244448 -3.373339253133042" fill="#ff0000" stroke="none" /><path d="M 104.48393922423573 120.51570834832081 l 7.939665899995769 36.3269575794005 a58.18448791605337,58.18448791605337 0 0,0 -0.9802937446218504,0.2054300854030568 l -7.313180693944541 -36.4582436455301" fill="#4dff2c" stroke="none" /><line stroke="#e1ed5e" stroke-width="0.3" x1="102.19456741930631" x2="102.32365962044197" y1="184.97166512339345" y2="189.96999836594603" /><path d="M 102.22038585953345 185.97133177190398 a86.0,86.0 0 0,1 -42.740103519485714,-10.115201625700543" fill="none" id="id31" stroke="none" /><text fill="#e1ed5e" style="font-size:6.75px; font-family:Arial;" text-anchor="middle"><textPath startOffset="22.20632615414155" xlink:href="#id31">July</textPath></text><line stroke="#e1ed5e" stroke-width="0.3" x1="58.666819895761336" x2="56.23545636021788" y1="174.27360380694188" y2="178.64263932499728" /><path d="M 58.180547188652646 175.14741091055294 a86.0,86.0 0 0,1 -31.652253787137756,-30.449443065178592" fill="none" id="id32" stroke="none" /><text fill="#e1ed5e" style="font-size:6.75px; font-family:Arial;" text-anchor="middle"><textPath startOffset="22.20632615414155" xlink:href="#id32">August</textPath></text><line stroke="#e1ed5e" stroke-width="0.3" x1="26.63291911575756" x2="22.317208475507996" y1="142.92168965132927" y2="145.44649492493687" /><path d="M 25.769776987707644 143.4266507060508 a86.0,86.0 0 0,1 -11.730757126820373,-40.83630448921669" fill="none" id="id33" stroke="none" /><text fill="#e1ed5e" style="font-size:6.75px; font-family:Arial;" text-anchor="middle"><textPath startOffset="21.46611528233685" xlink:href="#id33">September</textPath></text><line stroke="#e1ed5e" stroke-width="0.3" x1="15.007084014347285" x2="10.007500721073583" y1="101.09737516637583" y2="101.16192664675087" /><path d="M 14.007167355692545 101.11028546245083 a86.0,86.0 0 0,1 10.666146001902534,-42.60595125391555" fill="none" id="id34" stroke="none" /><text fill="#e1ed5e" style="font-size:6.75px; font-family:Arial;" text-anchor="middle"><textPath startOffset="22.20632615414155" xlink:href="#id34">October</textPath></text><line stroke="#e1ed5e" stroke-width="0.3" x1="26.266209847984243" x2="21.928928074336255" y1="57.711370442889674" y2="55.22380399835377" /><path d="M 25.398753493254645 57.213857153982495 a86.0,86.0 0 0,1 29.58750427330803,-30.492523968695096" fill="none" id="id35" stroke="none" /><text fill="#e1ed5e" style="font-size:6.75px; font-family:Arial;" text-anchor="middle"><textPath startOffset="21.46611528233685" xlink:href="#id35">November</textPath></text><line stroke="#e1ed5e" stroke-width="0.3" x1="56.762969772571076" x2="54.21961505331055" y1="26.818313649435495" y2="22.513508569990535" /><path d="M 56.25429882871897 25.957352633546506 a86.0,86.0 0 0,1 42.265352541879196,-11.944610805530505" fill="none" id="id36" stroke="none" /><text fill="#e1ed5e" style="font-size:6.75px; font-family:Arial;" text-anchor="middle"><textPath startOffset="22.20632615414155" xlink:href="#id36">December</textPath></text></svg>