<?xml version="1.0" encoding="utf-8" ?>
<svg baseProfile="full" height="200mm" version="1.1" viewBox="0,0,200,200" width="200mm" xmlns="http://www.w3.org/2000/svg" xmlns:ev="http://www.w3.org/2001/xml-events" xmlns:xlink="http://www.w3.org/1999/xlink"><defs /><rect fill="#1a1a1a" height="200" width="200" x="0" y="0" /><text alignment-baseline="middle" fill="#e1ed5e" style="dominant-baseline: central; font-size:9.0px; font-family:Arial;" text-anchor="middle" x="100.0" y="100.0">2025</text><line stroke="#e1ed5e" stroke-width="0.3" x1="100.0" x2="100.0" y1="15.0" y2="10.0" /><path d="M 100.0 14.0 a86.0,86.0 0 0,1 42.46469731375804,11.215312516191453" fill="none" id="id25" stroke="none" /><text fill="#e1ed5e" style="font-size:6.75px; font-family:Arial;" text-anchor="middle"><textPath startOffset="22.20632615414155" xlink:href="#id25">January</textPath></text><line stroke="#e1ed5e" stroke-width="0.3" x1="143.23703022742887" x2="145.7803849466894" y1="26.81831364943548" y2="22.513508569990506" /><path d="M 143.74570117128098 25.957352633546492 a86.0,86.0 0 0,1 28.547481713284135,27.462654790039103" fill="none" id="id26" stroke="none" /><text fill="#e1ed5e" style="font-size:6.75px; font-family:Arial;" text-anchor="middle"><textPath startOffset="19.985693538727396" xlink:href="#id26">February</textPath></text><line stroke="#e1ed5e" stroke-width="0.3" x1="172.23445277983987" x2="176.4835382374775" y1="55.19839476539836" y2="52.563006222186495" /><path d="M 173.08426987136738 54.67131705675599 a86.0,86.0 0 0,1 12.851231095245387,41.99856678651699" fill="none" id="id27" stroke="none" /><text fill="#e1ed5e" style="font-size:6.75px; font-family:Arial;" text-anchor="middle"><textPath startOffset="22.20632615414155" xlink:href="#id27">March</textPath></text><path d="M 119.04729006885535 91.15688171328212 l 17.943416781362732 -8.330621127302699 a40.78295868055008,40.78295868055008 0 0,0 0.2901371206787494,0.6392786862828873 l -18.08415621900483 8.020520432177749" fill="#fff517" stroke="none" /><path d="M 120.18372546131832 94.20196356495316 l 2.710992819047127 -0.7787677834852467 a23.820631370016226,23.820631370016226 0 0,0 0.10981677381330807,0.3950693643619323 l -2.723996363426798 0.7319871157043625" fill="#ff0f01" stroke="none" /><path d="M 120.53481517161879 95.60439243477599 l 3.7858447308807444 -0.810384101378354 a24.87160725256376,24.87160725256376 0 0,0 0.08600922049556427,0.41941150468930805 l -3.7992332472913057 0.7450969405256341" fill="#ff1f03" stroke="none" /><path d="M 120.6074358757038 95.95851677861258 l 36.24975255481508 -7.109218614745675 a57.94029709676912,57.94029709676912 0 0,0 0.18351699608758473,0.9803551312768712 l -36.366755274812526 6.484185406006241" fill="#48ff2c" stroke="none" /><path d="M 120.73433829027371 96.67025291283417 l 21.56118376186093 -3.4625309870911676 a42.83743954884139,42.83743954884139 0 0,0 0.11065136360356674,0.7290542341717351 l -21.617591018903795 3.09087764052735" fill="#f0ff19" stroke="none" /><path d="M 120.78858239683441 97.02765380044208 l 6.218137750682754 -0.889067746840876 a27.28137552968605,27.28137552968605 0 0,0 0.06246655650823565,0.4654484026444006 l -6.2325203062488255 0.781901002131811" fill="#ff4106" stroke="none" /><path d="M 120.83666639777658 97.38593545837742 l 12.4675023726776 -1.5641108444530043 a33.565232116696336,33.565232116696336 0 0,0 0.06698604901730207,0.5738955602895036 l -12.492578774698492 1.3492715458386477" fill="#ff980e" stroke="none" /><path d="M 120.87857604477298 97.74499172005257 l 3.469841011835903 -0.374763115789691 a24.49002063609584,24.49002063609584 0 0,0 0.04165971091537513,0.41950760363604817 l -3.475777848433507 0.31497998144920786" fill="#ff1902" stroke="none" /><path d="M 120.91429891909075 98.10471618934814 l 3.336417276880204 -0.30235092626882754 a24.350089003008776,24.350089003008776 0 0,0 0.03423566413595612,0.41776181821601044 l -3.341127424835655 0.24487519084504833" fill="#ff1702" stroke="none" /><path d="M 120.94382443527127 98.46500227214037 l 24.050211842059067 -1.7626685444293526 a45.11471936484932,45.11471936484932 0 0,0 0.05009755202809224,0.7749869561732121 l -24.076989985091572 1.3484225240031054" fill="#d5ff1c" stroke="none" /><path d="M 120.96714384426684 98.82574320788733 l 24.10060572499588 -1.3497451143944992 a45.1383721113404,45.1383721113404 0 0,0 0.03676927033518123,0.7761411825963407 l -24.120268603564558 0.9346928251751586" fill="#d4ff1c" stroke="none" /><path d="M 120.98425023603335 99.18683210126433 l 6.340793119635667 -0.2457142551873409 a27.345552212473024,27.345552212473024 0 0,0 0.014178415608024639,0.4705125880721366 l -6.344083229699337 0.13653151969020527" fill="#ff4206" stroke="none" /><line stroke="#e1ed5e" stroke-width="0.3" x1="184.98032266829074" x2="189.97916517819016" y1="98.17113171792111" y2="98.06355123074" /><path d="M 185.9800911702706 98.14961562048488 a86.0,86.0 0 0,1 -9.607161424134198,41.387399972396054" fill="none" id="id28" stroke="none" /><text fill="#e1ed5e" style="font-size:6.75px; font-family:Arial;" text-anchor="middle"><textPath startOffset="21.466115282336823" xlink:href="#id28">April</textPath></text><path d="M 120.99513854157772 99.54816195383933 l 20.92783477047752 -0.45038959635058723 a41.93268064460232,41.93268064460232 0 0,0 0.009319024862069805,0.7217687454930268 l -20.932486802457305 0.09008459279709767" fill="#fbff18" stroke="none" /><path d="M 120.99980553446 99.90962569577887 l 6.66290044536674 -0.02867431276239964 a27.66296214615397,27.66296214615397 0 0,0 -0.0020493021519593937,0.47618564860213886 l -6.662406845925278 -0.08602081404342393" fill="#ff4706" stroke="none" /><path d="M 120.92983693683757 101.71520430193887 l 19.85616112856721 1.6272163557933483 a40.92272490981554,40.92272490981554 0 0,0 -0.0635771629345199,0.7015686951828864 l -19.825209369355612 -1.9687664395248055" fill="#fff717" stroke="none" /><path d="M 120.89721153311464 102.0752229133903 l 27.508138434294143 2.731729020070421 a48.6434444952033,48.6434444952033 0 0,0 -0.08991555058881519,0.832506327036622 l -27.457040582204275 -3.2048316689918344" fill="#acff21" stroke="none" /><path d="M 120.8583938346157 102.4346265915055 l 19.891391848899122 2.3217565034665566 a41.026433105968714,41.026433105968714 0 0,0 -0.08791083670255892,0.7007358647631822 l -19.848479502949715 -2.6638101225171336" fill="#fff817" stroke="none" /><path d="M 120.81339534386255 102.79330883721812 l 6.0471993781163 0.8115780815307082 a27.10141617176793,27.10141617176793 0 0,0 -0.0660318893915492,0.46182688061002447 l -6.032333437708149 -0.915550434121142" fill="#ff3f05" stroke="none" /><path d="M 120.76222939487914 103.15116336523771 l 3.4526310960293913 0.5240190933528431 a24.492170885776847,24.492170885776847 0 0,0 -0.0668499174788694,0.4162744999541491 l -3.443099424189233 -0.5833728230001971" fill="#ff1902" stroke="none" /><path d="M 120.64145759157962 103.86396538481128 l 34.05738077331557 6.375351150546242 a55.64895795592382,55.64895795592382 0 0,0 -0.18435722546800332,0.9400335208493833 l -33.9425936148719 -6.9606483984635705" fill="#60ff29" stroke="none" /><path d="M 120.5718875245553 104.21870165774334 l 23.293536480541764 4.77683347470522 a44.77828799168255,44.77828799168255 0 0,0 -0.1613424859602089,0.7537383807267946 l -23.207859955857113 -5.1770856748481835" fill="#d9ff1c" stroke="none" /><path d="M 120.49622156327973 104.57218783832717 l 18.86927081490831 4.20925633886543 a40.3330602857548,40.3330602857548 0 0,0 -0.1569905486688806,0.6763111748411481 l -18.794019700308876 -4.533436171055143" fill="#ffef16" stroke="none" /><path d="M 120.41448212921028 104.9243191809786 l 29.260779157476726 7.058195997505595 a51.10002205384289,51.10002205384289 0 0,0 -0.2136192274095368,0.8533026257362764 l -29.134948615772128 -7.560826462639267" fill="#90ff24" stroke="none" /><path d="M 120.32669344350535 105.2749913415812 l 3.2369141006032582 0.8400133500109385 a24.3441344654306,24.3441344654306 0 0,0 -0.10875095638078501,0.4047027650416881 l -3.221975067880696 -0.8956070482281748" fill="#ff1702" stroke="none" /><path d="M 120.23288151984713 105.62410040840565 l 22.929600389106067 6.373702865133189 a44.798963469384546,44.798963469384546 0 0,0 -0.2129174482912015,0.7411935696467132 l -22.816490303928767 -6.767453910284484" fill="#d8ff1c" stroke="none" /><path d="M 120.13307415673323 105.97154293290107 l 23.312514751891626 6.914576563472952 a45.31634662339913,45.31634662339913 0 0,0 -0.22825029717084483,0.7459351776281304 l -23.19003768221465 -7.31483871365314" fill="#d2ff1c" stroke="none" /><path d="M 119.9155931802556 106.66101706037122 l 7.0351320752767235 2.3529871468674797 a28.41819599565224,28.41819599565224 0 0,0 -0.159154305578146,0.4625769104891559 l -6.993586938755347 -2.4737367604459357" fill="#ff5107" stroke="none" /><path d="M 119.79798401119884 107.00284435728193 l 22.960995839014696 8.121649156695186 a45.355051117657254,45.355051117657254 0 0,0 -0.26667849780468794,0.7337846921011232 l -22.817793080204783 -8.51568164580244" fill="#d2ff1c" stroke="none" /><path d="M 119.67450827220406 107.3425965602758 l 23.330258218247497 8.706935460525209 a45.90204155574109,45.90204155574109 0 0,0 -0.28263793102351864,0.7378784506411374 l -23.17692600763047 -9.10723747799949" fill="#cbff1d" stroke="none" /><path d="M 119.54520255179757 107.68017299344265 l 6.020030763441374 2.3655358682800736 a27.468116444290416,27.468116444290416 0 0,0 -0.17670812966176971,0.4385750860922755 l -5.978420019522212 -2.4688103222151625" fill="#ff4406" stroke="none" /><path d="M 119.41010516605496 108.01547362559984 l 38.63797592056996 15.955692887203238 a62.80283864463383,62.80283864463383 0 0,0 -0.4212246762587818,0.9956507069179102 l -38.35760026311887 -16.61841811978731" fill="#32ff4c" stroke="none" /><path d="M 119.12269723197855 108.67885076344098 l 26.65974683883287 12.099546491716772 a50.27697263748209,50.27697263748209 0 0,0 -0.3644491154225727,0.7849909717048429 l -26.44752310657047 -12.556657530700447" fill="#99ff23" stroke="none" /><path d="M 118.97047184881838 109.00673069616215 l 23.440027498648274 11.128769852085172 a46.94772451599691,46.94772451599691 0 0,0 -0.3528831154380786,0.7270437383286661 l -23.24499112659548 -11.530602546379114" fill="#bfff1e" stroke="none" /><path d="M 118.81262510543309 109.33194174019688 l 25.83924326775522 12.8174729169417 a49.84361462484838,49.84361462484838 0 0,0 -0.3878814192692046,0.7653268385379214 l -25.614783178699746 -13.260353967182315" fill="#9eff22" stroke="none" /><path d="M 118.64920377521936 109.65438752849418 l 25.007841652895117 12.946150274205374 a49.160166033931404,49.160166033931404 0 0,0 -0.3954993688895484,0.7481357581103381 l -24.781289775780674 -13.374701047401846" fill="#a6ff21" stroke="none" /><line stroke="#e1ed5e" stroke-width="0.3" x1="174.80103733775053" x2="179.2010983576182" y1="140.37084112569926" y2="142.7455964860345" /><path d="M 175.68104954172406 140.8457921977663 a86.0,86.0 0 0,1 -30.038265399797805,32.042727171017184" fill="none" id="id29" stroke="none" /><text fill="#e1ed5e" style="font-size:6.75px; font-family:Arial;" text-anchor="middle"><textPath startOffset="22.206326154141568" xlink:href="#id29">May</textPath></text><path d="M 118.30583269289576 110.29060199501025 l 22.56227546259831 12.683356216704114 a46.88288621792347,46.88288621792347 0 0,0 -0.40151397623374535,0.7000734612773103 l -22.340609490212188 -13.069849523839741" fill="#c0ff1e" stroke="none" /><path d="M 118.12598468904814 110.60418214915192 l 15.79859694782744 9.242598546219755 a39.30358690001733,39.30358690001733 0 0,0 -0.3466559975018971,0.5810153914289014 l -15.637160074627314 -9.51317603153476" fill="#ffe215" stroke="none" /><path d="M 117.55443506779139 111.5257021239791 l 20.926724975822378 13.739843952272999 a46.034199209212204,46.034199209212204 0 0,0 -0.44060624218837585,0.6586465498316431 l -20.68711562822328 -14.098027416310448" fill="#caff1d" stroke="none" /><path d="M 117.35343817320211 111.8261652097733 l 21.18286175898842 14.435872607909882 a46.63411887021313,46.63411887021313 0 0,0 -0.45776737900946857,0.6594480513675707 l -20.931233472816817 -14.798361921464473" fill="#c3ff1e" stroke="none" /><path d="M 117.14729908036423 112.12312394758627 l 2.816375196695355 1.9911745536382277 a24.44916589215671,24.44916589215671 0 0,0 -0.2459122807611748,0.34155064988139006 l -2.7816831235585773 -2.039358808970749" fill="#ff1902" stroke="none" /><path d="M 116.93607887273984 112.41649034213515 l 19.371869110891648 14.202261782781852 a45.02027378270664,45.02027378270664 0 0,0 -0.4635774750386972,0.6210377845625984 l -19.124530369157856 -14.533612446853766" fill="#d6ff1c" stroke="none" /><path d="M 116.71984013943494 112.70617746262583 l 13.549757816877968 10.297085735334758 a38.01839920606166,38.01839920606166 0 0,0 -0.4004481297458494,0.517633188647632 l -13.370502869914048 -10.528796918095642" fill="#ffd213" stroke="none" /><path d="M 116.498646956653 112.99209946851258 l 19.20952323587622 15.126818416013721 a45.450489122729635,45.450489122729635 0 0,0 -0.4893114989997555,0.6104913300845961 l -18.94629382482161 -15.455237579676567" fill="#d1ff1d" stroke="none" /><path d="M 116.27256486870786 113.27417163493432 l 14.369002122137628 11.721360580271947 a39.543422441360406,39.543422441360406 0 0,0 -0.4347968771242639,0.5237408479647191 l -14.16510924511982 -11.966962685350435" fill="#ffe515" stroke="none" /><path d="M 116.0416608686014 113.55231037782055 l 5.011802901765434 4.23406959126849 a27.560907988216947,27.560907988216947 0 0,0 -0.3092825909739944,0.3597655260701069 l -4.938177801220661 -4.3197122165001245" fill="#ff4506" stroke="none" /><path d="M 115.80600337817218 113.82643327865902 l 2.0702102217641913 1.81093365724249 a23.750500149651078,23.750500149651078 0 0,0 -0.27182012035211683,0.30539278676091464 l -2.038731251763736 -1.846300613744271" fill="#ff0e01" stroke="none" /><path d="M 115.56566222782051 114.09645910891815 l 2.2454364589604188 2.0334954441473516 a24.02937099289551,24.02937099289551 0 0,0 -0.28028955896729335,0.3041989583987845 l -2.2101004919974034 -2.071845657347471" fill="#ff1202" stroke="none" /><path d="M 115.32070863581623 114.36230785411682 l 19.315662874858884 18.107354118498225 a47.475858918416534,47.475858918416534 0 0,0 -0.564043607990547,0.5913974679614608 l -19.00111271548937 -18.437158703042194" fill="#b9ff1f" stroke="none" /><path d="M 115.07121518719521 114.62390073753431 l 16.281665410599288 15.79842473542847 a43.686622769017504,43.686622769017504 0 0,0 -0.5283155910406806,0.5351809044385948 l -16.007309194503073 -16.07634613384773" fill="#e6ff1a" stroke="none" /><path d="M 114.81725581225074 114.88116024355365 l 21.625196775309245 21.718462756490265 a51.648666530142876,51.648666530142876 0 0,0 -0.6354016884661493,0.6218742864920489 l -21.2481451344673 -22.087487145904888" fill="#8aff24" stroke="none" /><path d="M 114.55890576462653 115.13401014063108 l 16.4247235344808 17.07353124929515 a44.691285581512574,44.691285581512574 0 0,0 -0.5589904398700062,0.5285603513211492 l -16.128397260219987 -17.35372623736222" fill="#daff1c" stroke="none" /><path d="M 114.29624159901734 115.38237550388516 l 10.10855374700292 10.876534819353653 a35.848631874104065,35.848631874104065 0 0,0 -0.45561980943785313,0.41619789328006435 l -9.919834388098202 -11.048925479220301" fill="#ffb610" stroke="none" /><path d="M 114.0293411484842 115.62618273729858 l 2.0046967369433415 2.2328744602327535 a24.00075613175596,24.00075613175596 0 0,0 -0.3097899278826932,0.273353592699184 l -1.9659644561540606 -2.2670511947042264" fill="#ff1202" stroke="none" /><path d="M 113.75828350139079 115.86535959552629 l 16.875846693932747 19.460376452567733 a46.75850254406831,46.75850254406831 0 0,0 -0.6126132530206265,0.5220823045848718 l -16.538367964335073 -19.74798314737555" fill="#c1ff1e" stroke="none" /><path d="M 113.20401910651253 116.32954008644616 l 15.189582761634039 18.785106156060927 a45.15788976229108,45.15788976229108 0 0,0 -0.6086477305672537,0.48354656774449456 l -14.863977538349433 -19.04378663781055" fill="#d4ff1c" stroke="none" /><path d="M 112.63410532772338 116.77436683061366 l 14.174733379296391 18.81986664371964 a44.56078196625762,44.56078196625762 0 0,0 -0.6166682366331364,0.45619641900579533 l -13.84868017224469 -19.061073011465204" fill="#dbff1b" stroke="none" /><path d="M 112.34349029814194 116.9893568818739 l 1.9990772633574967 2.7514938029102485 a24.401033380066476,24.401033380066476 0 0,0 -0.3419312998095584,0.24395890357503344 l -1.9514186356990537 -2.785496968329501" fill="#ff1802" stroke="none" /><path d="M 112.04921762599082 117.19931262002967 l 15.081214638602114 21.527250424921753 a47.284321292985304,47.284321292985304 0 0,0 -0.6706337886854895,0.46126803502324953 l -14.708423965293742 -21.783659249310098" fill="#bbff1f" stroke="none" /><path d="M 111.7513745106137 117.40417183066458 l 1.901515712938108 2.816207259567219 a24.39805611127739,24.39805611127739 0 0,0 -0.35008340989951997,0.2320161946165308 l -1.8527576042986238 -2.8485214752750685" fill="#ff1802" stroke="none" /><path d="M 111.45004920935366 117.60387380957326 l 13.041992220991098 20.051405988387295 a44.91970825916416,44.91970825916416 0 0,0 -0.651802502538577,0.4160111960881625 l -12.69490791640559 -20.272931613299267" fill="#d7ff1c" stroke="none" /><line stroke="#e1ed5e" stroke-width="0.3" x1="143.8653032363475" x2="146.44561519142675" y1="172.8068346515853" y2="177.08958963109032" /><path d="M 144.38136562736335 173.6633856474863 a86.0,86.0 0 0,1 -40.68145358897372,12.25698825130547" fill="none" id="id30" stroke="none" /><text fill="#e1ed5e" style="font-size:6.75px; font-family:Arial;" text-anchor="middle"><textPath startOffset="21.466115282336833" xlink:href="#id30">June</textPath></text><path d="M 110.21172684928248 118.3499491758327 l 13.731725067899074 24.675205360605634 a49.23873284919897,49.23873284919897 0 0,0 -0.7441547894680747,0.40577252452653106 l -13.30494746656235 -24.907918536891934" fill="#a5ff21" stroke="none" /><path d="M 109.89434966115114 118.52300852407294 l 15.823228644792358 29.622340942390377 a54.5835919408957,54.5835919408957 0 0,0 -0.8325533843547785,0.43555258179144607 l -15.310984357911083 -29.89032294312654" fill="#6bff28" stroke="none" /><path d="M 109.57404056367764 118.69057910512821 l 9.493127018484381 18.532618523380897 a41.822521699406124,41.822521699406124 0 0,0 -0.6435611646674306,0.32269492807487327 l -9.17271194613419 -18.69328129236507" fill="#fcff18" stroke="none" /><path d="M 109.2508944713604 118.85261126421891 l 1.788652962957066 3.645137137994406 a25.06033301302752,25.06033301302752 0 0,0 -0.38889738403053464,0.18669437758976432 l -1.7256429109262985 -3.6753857920837305" fill="#ff2103" stroke="none" /><path d="M 108.59647513512805 119.15986991738527 l 14.53306834331441 32.39138072074775 a56.50227627164033,56.50227627164033 0 0,0 -0.8907969289674232,0.3904991955506982 l -13.973350739689232 -32.6367444695929" fill="#57ff2a" stroke="none" /><path d="M 108.2653958097858 119.30500536409082 l 7.895555120481971 18.441189927397954 a41.06034088939998,41.06034088939998 0 0,0 -0.6521331223513473,0.27259169803242544 l -7.576950538633162 -18.574366668450352" fill="#fff817" stroke="none" /><path d="M 107.59598834532513 119.57807347666477 l 1.2479098069248407 3.216391176700699 a24.44999291126479,24.44999291126479 0 0,0 -0.3936795574047052,0.14885592278979398 l -1.1923600287598606 -3.237395349597124" fill="#ff1902" stroke="none" /><path d="M 107.2578585660854 119.70592522655815 l 8.744850083397775 23.743279135548477 a46.30248420787322,46.30248420787322 0 0,0 -0.7502776033423746,0.26902285496004885 l -8.334852919425668 -23.890289531548486" fill="#c7ff1e" stroke="none" /><path d="M 106.91757812671514 119.82793768551818 l 6.7862682600984865 19.451562629815704 a41.60137678990564,41.60137678990564 0 0,0 -0.6781624012698784,0.23006950672882817 l -6.450436125891381 -19.565495123442656" fill="#ffff18" stroke="none" /><path d="M 106.57524785965236 119.94407469862006 l 4.885524856573667 14.81879843334481 a36.60336951213749,36.60336951213749 0 0,0 -0.6000837533703799,0.19212786780884764 l -4.629719758112347 -14.900699147813363" fill="#ffc011" stroke="none" /><path d="M 105.88484417918355 120.15858648285463 l 7.260038662195766 24.869327510562247 a46.90736598352263,46.90736598352263 0 0,0 -0.7770290767608461,0.21959617862627695 l -6.8308784173303145 -24.99061248252704" fill="#c0ff1e" stroke="none" /><path d="M 105.53697534728816 120.25689768951611 l 6.507631609040433 23.80802142634729 a45.681392857705454,45.681392857705454 0 0,0 -0.7602896852119361,0.20079941602988985 l -6.096851481017 -23.916512191680763" fill="#ceff1d" stroke="none" /><path d="M 105.18746579009965 120.34920634021253 l 6.453136839546868 25.314135726964185 a47.12371418219625,47.12371418219625 0 0,0 -0.7877440511599881,0.19360832205758066 l -6.016439503643669 -25.421465307335797" fill="#bdff1f" stroke="none" /><path d="M 104.83641907484287 120.43548508189849 l 0.5276703031200153 2.2295831772849986 a23.291173737023676,23.291173737023676 0 0,0 -0.3909366399662381,0.08897590647589 l -0.4892135137609151 -2.238335817338573" fill="#ff0801" stroke="none" /><path d="M 104.48393922423573 120.51570834832081 l 5.2682630557115 24.104284859398998 a45.673288070446276,45.673288070446276 0 0,0 -0.7695047287580771,0.16125719766559074 l -4.852566865524046 -24.19139803779113" fill="#ceff1d" stroke="none" /><path d="M 102.70371172650421 120.8252237178851 l 2.888790400556664 22.25078427405259 a43.437524613663925,43.437524613663925 0 0,0 -0.7423112568749842,0.08988355550315816 l -2.5053517206302995 -22.297213358281102" fill="#e9ff1a" stroke="none" /><path d="M 102.34483914955558 120.86867818915974 l 0.4473888530334632 3.981686334920728 a25.006742174823962,25.006742174823962 0 0,0 -0.42817187386450556,0.04438176541522432 l -0.378784382563355 -3.9887974687917103" fill="#ff2103" stroke="none" /><path d="M 101.98527174616119 120.90594882070398 l 0.2750502513742329 2.8964228647641272 a23.909453222223974,23.909453222223974 0 0,0 -0.41005359227032234,0.03538114935661573 l -0.22515234136236886 -2.9007282663994065" fill="#ff1101" stroke="none" /><path d="M 101.62511606390274 120.93702456842531 l 1.9170845065676352 24.698571569935865 a45.77286117105906,45.77286117105906 0 0,0 -0.7860665849514303,0.05421175397859472 l -1.4916551608372746 -24.727911668430746" fill="#cdff1d" stroke="none" /><path d="M 101.26447882468166 120.96189622390904 l 0.9120716577140978 15.119866829391006 a36.147351175942404,36.147351175942404 0 0,0 -0.6214107176077737,0.03211983609417304 l -0.6516728716928446 -15.133326472247381" fill="#ffba11" stroke="none" /><path d="M 100.90346689309514 120.98055641714683 l 0.8575257275351934 19.91369804827189 a40.93215292764764,40.93215292764764 0 0,0 -0.7041882768999949,0.024253668082508336 l -0.5146170989605463 -19.925508514780493" fill="#fff717" stroke="none" /><line stroke="#e1ed5e" stroke-width="0.3" x1="102.19456741930631" x2="102.32365962044197" y1="184.97166512339345" y2="189.96999836594603" /><path d="M 102.22038585953345 185.97133177190398 a86.0,86.0 0 0,1 -42.740103519485714,-10.115201625700543" fill="none" id="id31" stroke="none" /><text fill="#e1ed5e" style="font-size:6.75px; font-family:Arial;" text-anchor="middle"><textPath startOffset="22.20632615414155" xlink:href="#id31">July</textPath></text><path d="M 100.54218724476979 120.99299961872073 l 0.10423787005234574 4.0359960278930265 a25.037341881822908,25.037341881822908 0 0,0 -0.4309287911442555,0.007418829939480499 l -0.034749389015422336 -4.0371923351116665" fill="#ff2103" stroke="none" /><path d="M 100.18074693466247 120.99922214144158 l 0.15197963965510308 17.657030920350934 a38.65768497660717,38.65768497660717 0 0,0 -0.665453148635105,0.0 l 0.15197963965509093 -17.657030920350934" fill="#ffda14" stroke="none" /><path d="M 99.81925306533755 120.99922214144158 l -0.03428101468684922 3.982776493485555 a24.98292402451127,24.98292402451127 0 0,0 -0.42999218127653666,-0.007402705351216636 l 0.10283288585605381 -3.9815963108551786" fill="#ff2003" stroke="none" /><path d="M 99.45781275523022 120.99299961872073 l -0.7107981597305184 27.521461709314387 a48.530639088861236,48.530639088861236 0 0,0 -0.8349110582394575,-0.028756024985390125 l 1.184429569644619 -27.5051488859029" fill="#adff20" stroke="none" /><path d="M 98.73552117531835 120.96189622390904 l -1.1822830201094323 19.59929537061496 a40.63492226020384,40.63492226020384 0 0,0 -0.6978317228515577,-0.04812656128872976 l 1.5194775037399202 -19.576040464809946" fill="#fff316" stroke="none" /><path d="M 98.37488393609728 120.93702456842531 l -1.5192727034294145 19.57340193995137 a40.632275799057986,40.632275799057986 0 0,0 -0.6968545243868368,-0.0601275405750141 l 1.855971545557793 -19.544350147097695" fill="#fff316" stroke="none" /><path d="M 98.01472825383883 120.90594882070398 l -0.3073870290798538 3.2369460304453206 a24.251508325325688,24.251508325325688 0 0,0 -0.41524056556834255,-0.043041382437393555 l 0.3630601912537897 -3.231175279552166" fill="#ff1602" stroke="none" /><path d="M 95.86986931433489 120.58985236759428 l -4.593299198310615 22.898876469371245 a44.355019612167425,44.355019612167425 0 0,0 -0.7472945079643736,-0.15660282995234215 l 4.986785167704376 -22.816417658692362" fill="#deff1b" stroke="none" /><path d="M 95.51606077576429 120.51570834832081 l -4.249574448223773 19.443401354106353 a40.90238023975678,40.90238023975678 0 0,0 -0.6865364226850379,-0.15625345463241758 l 4.583631020301673 -19.367371165896248" fill="#fff617" stroke="none" /><path d="M 95.16358092515715 120.4354850818985 l -0.8634639590543859 3.6484234680565324 a24.749208424567982,24.749208424567982 0 0,0 -0.4137203963166786,-0.10168240764740641 l 0.926137640114275 -3.633019802095096" fill="#ff1d02" stroke="none" /><path d="M 94.11515582081647 120.15858648285463 l -9.16261737884283 31.38662795763881 a53.69669664939116,53.69669664939116 0 0,0 -0.8850366904878514,-0.2666542947773133 l 9.701529043770927 -31.22425829375577" fill="#74ff27" stroke="none" /><path d="M 93.42475214034765 119.94407469862007 l -5.186782057937827 15.732573283472199 a37.56552354247728,37.56552354247728 0 0,0 -0.6123721765071037,-0.2077498904681691 l 5.456823967382157 -15.640960406105908" fill="#ffcc13" stroke="none" /><path d="M 93.08242187328487 119.8279376855182 l -7.425654685304457 21.28424365830893 a43.54239063656843,43.54239063656843 0 0,0 -0.7055535150973133,-0.252986388122211 l 7.790927761031497 -21.15326972914676" fill="#e7ff1a" stroke="none" /><path d="M 92.7421414339146 119.70592522655815 l -1.2778225967431747 3.4694361036314354 a24.697271624580583,24.697271624580583 0 0,0 -0.39766109534489336,-0.1503613997521153 l 1.337353912848351 -3.446926453772687" fill="#ff1c02" stroke="none" /><path d="M 92.40401165467489 119.57807347666478 l -8.32954967156471 21.468771157052515 a44.02801625683276,44.02801625683276 0 0,0 -0.7041944154455507,-0.28021349082222374 l 8.69786516305212 -21.322210821824225" fill="#e2ff1b" stroke="none" /><path d="M 91.07499286063937 119.00905698771935 l -8.426603675189725 17.94752508019639 a40.827286904743154,40.827286904743154 0 0,0 -0.6335759810559716,-0.30415497325583263 l 8.734292324245938 -17.799815830440995" fill="#fff517" stroke="none" /><line stroke="#e1ed5e" stroke-width="0.3" x1="58.666819895761336" x2="56.23545636021788" y1="174.27360380694188" y2="178.64263932499728" /><path d="M 58.180547188652646 175.14741091055294 a86.0,86.0 0 0,1 -31.652253787137756,-30.449443065178592" fill="none" id="id32" stroke="none" /><text fill="#e1ed5e" style="font-size:6.75px; font-family:Arial;" text-anchor="middle"><textPath startOffset="22.20632615414155" xlink:href="#id32">August</textPath></text><path d="M 89.7882731507175 118.34994917583269 l -9.65546353514411 17.350372542666406 a40.856067169704325,40.856067169704325 0 0,0 -0.6115788139784065,-0.34727041180352597 l 9.952691116043724 -17.181598965068247" fill="#fff617" stroke="none" /><path d="M 89.1626897886671 117.98757091392108 l -12.509401622383457 20.762877908398167 a45.24009546163419,45.24009546163419 0 0,0 -0.6635662094872045,-0.40761656300601606 l 12.864947031802972 -20.54447287856377" fill="#d3ff1c" stroke="none" /><path d="M 88.24862548938628 117.40417183066458 l -9.027756842734194 13.37040455944062 a37.13282714513004,37.13282714513004 0 0,0 -0.5266550914126303,-0.3622381741711183 l 9.256568818769715 -13.213025595904401" fill="#ffc712" stroke="none" /><path d="M 87.95078237400918 117.19931262002967 l -9.508729081149465 13.572964582620262 a37.57230509916353,37.57230509916353 0 0,0 -0.5265001247813211,-0.3756438595861468 l 9.740956533779672 -13.407276461189895" fill="#ffcc13" stroke="none" /><path d="M 87.07902340077011 116.55440617244103 l -13.26943853174326 17.000856974527 a42.5663426852129,42.5663426852129 0 0,0 -0.5737183028321335,-0.45579651784476966 l 13.560114327292752 -16.769926542677098" fill="#f3ff19" stroke="none" /><path d="M 86.79598089348748 116.32954008644616 l -11.2261514345504 13.883491714775639 a38.8543501205085,38.8543501205085 0 0,0 -0.5164480835531997,-0.4250016131577567 l 11.463469646648289 -13.688194982760702" fill="#ffdd14" stroke="none" /><path d="M 86.24171649860922 115.8653595955263 l -14.098334017508707 16.257488724011683 a42.51903719223075,42.51903719223075 0 0,0 -0.548814770381112,-0.48426522526214055 l 14.376091140796406 -16.012400356977253" fill="#f4ff19" stroke="none" /><path d="M 85.44109423537348 115.13401014063109 l -20.859294537849017 21.683276213603268 a51.0877821710433,51.0877821710433 0 0,0 -0.6285014741382898,-0.6151209744696419 l 21.2294459643631 -21.321005136211056" fill="#90ff24" stroke="none" /><path d="M 85.18274418774928 114.88116024355367 l -15.302286885766533 15.368283177756089 a42.68741828263575,42.68741828263575 0 0,0 -0.5162319078595798,-0.5229401971729342 l 15.564559418681645 -15.10260248660249" fill="#f2ff19" stroke="none" /><path d="M 84.9287848128048 114.62390073753433 l -14.798665053534727 14.359439905999073 a41.62023282556986,41.62023282556986 0 0,0 -0.49447502000295906,-0.5184550815880237 l 15.043646624916644 -14.10257770782855" fill="#ffff18" stroke="none" /><path d="M 84.43433777217949 114.09645910891817 l -14.60471595616712 13.22621410257217 a40.703564846174444,40.703564846174444 0 0,0 -0.4658448380258583,-0.5233816139092776 l 14.830219643841316 -12.972858318922029" fill="#fff417" stroke="none" /><path d="M 83.95833913139862 113.55231037782056 l -13.598429065257516 11.48822013210991 a38.801586301413025,38.801586301413025 0 0,0 -0.4266400708320205,-0.5139154493269964 l 13.794165135983073 -11.252443425669153" fill="#ffdc14" stroke="none" /><path d="M 83.50135304334701 112.99209946851258 l -12.941019810481 10.190594237424003 a37.47173957562106,37.47173957562106 0 0,0 -0.394690159100347,-0.510190235406066 l 13.114516786799415 -9.966326007904684" fill="#ffcb12" stroke="none" /><path d="M 82.85270091963577 112.12312394758628 l -17.758303798622983 12.555103695376019 a42.74828688899041,42.74828688899041 0 0,0 -0.41962347998425376,-0.6044989199153367 l 17.97178818576937 -12.24756351327367" fill="#f1ff19" stroke="none" /><path d="M 82.6465618267979 111.8261652097733 l -14.57892736305552 9.935368533656124 a38.64246782501851,38.64246782501851 0 0,0 -0.3698579062902137,-0.5528873869241592 l 14.747788374756464 -9.682944232526145" fill="#ffda14" stroke="none" /><path d="M 82.44556493220864 111.52570212397912 l -16.035314558585277 10.528294322935038 a40.182708211905926,40.182708211905926 0 0,0 -0.37464661163002044,-0.5814598610598692 l 16.214166033592342 -10.25071286195372" fill="#ffed16" stroke="none" /><line stroke="#e1ed5e" stroke-width="0.3" x1="26.63291911575756" x2="22.317208475507996" y1="142.92168965132927" y2="145.44649492493687" /><path d="M 25.769776987707644 143.4266507060508 a86.0,86.0 0 0,1 -11.730757126820373,-40.83630448921669" fill="none" id="id33" stroke="none" /><text fill="#e1ed5e" style="font-size:6.75px; font-family:Arial;" text-anchor="middle"><textPath startOffset="21.46611528233685" xlink:href="#id33">September</textPath></text><path d="M 81.87401531095188 110.60418214915194 l -22.174000393536648 12.972378780089183 a46.6898599580977,46.6898599580977 0 0,0 -0.3998608625423297,-0.6971911182149685 l 22.394013252231353 -12.588767816015908" fill="#c2ff1e" stroke="none" /><path d="M 81.69416730710424 110.29060199501025 l -15.596767850920843 8.76770442814577 a38.89222759565854,38.89222759565854 0 0,0 -0.3230343800792178,-0.5864012315222507 l 15.745378640451579 -8.497932678225697" fill="#ffdd14" stroke="none" /><path d="M 81.35079622478065 109.6543875284942 l -17.435467611685084 9.026056184092345 a40.63326822198768,40.63326822198768 0 0,0 -0.3162067973223163,-0.6239060096635741 l 17.588253078793667 -8.724595962726086" fill="#fff316" stroke="none" /><path d="M 81.18737489456691 109.33194174019688 l -14.64741904603166 7.265804767583546 a37.35049857437659,37.35049857437659 0 0,0 -0.28074545541818696,-0.5784187922185787 l 14.770317758064566 -7.012597019399683" fill="#ffca12" stroke="none" /><path d="M 80.87730276802145 108.67885076344099 l -19.545028662158188 8.870526206019786 a42.463792315811034,42.463792315811034 0 0,0 -0.2963546352381656,-0.6682014671232588 l 19.69482438212763 -8.532776402403831" fill="#f4ff19" stroke="none" /><path d="M 80.45479744820244 107.68017299344265 l -18.917875474415553 7.433668488564982 a41.32597942691514,41.32597942691514 0 0,0 -0.2544612162524326,-0.6643179396221102 l 19.043030970261494 -7.106926982109714" fill="#fffc17" stroke="none" /><path d="M 80.32549172779594 107.34259656027581 l -9.44504087199979 3.524922893061 a31.081362927490115,31.081362927490115 0 0,0 -0.18275210744936493,-0.5028553107936746 l 9.504317240454379 -3.361819785261208" fill="#ff760a" stroke="none" /><path d="M 80.20201598880116 107.00284435728193 l -22.76981794013369 8.054026661917007 a45.15226603235614,45.15226603235614 0 0,0 -0.2528724042426522,-0.7349655736777742 l 22.90508117531957 -7.660888385149937" fill="#d4ff1c" stroke="none" /><path d="M 79.86692584326677 105.97154293290107 l -15.385955271114176 4.563530226427276 a37.04847119610592,37.04847119610592 0 0,0 -0.17608143892783135,-0.6129625886223954 l 15.46222934692811 -4.298010162300285" fill="#ffc612" stroke="none" /><path d="M 79.76711848015287 105.62410040840567 l -23.48354169566226 6.527681008354152 a45.37390715332147,45.37390715332147 0 0,0 -0.2026958816163232,-0.7543067802131332 l 23.59242565362036 -6.12248329496548" fill="#d2ff1c" stroke="none" /><path d="M 79.58551787078972 104.9243191809786 l -33.3167589916738 8.036567095473375 a55.272333454104384,55.272333454104384 0 0,0 -0.21513948839219693,-0.9268152852700521 l 33.45015904599655 -7.461883152854749" fill="#63ff29" stroke="none" /><path d="M 79.35854240842038 103.8639653848113 l -19.143447240066457 3.5835462274598733 a40.475969187630945,40.475969187630945 0 0,0 -0.12230210689164576,-0.6859351657037167 l 19.202295789297292 -3.253492311022943" fill="#fff116" stroke="none" /><path d="M 79.29508885075956 103.50808413554451 l -12.630188234955133 2.139963927235324 a33.81019517650951,33.81019517650951 0 0,0 -0.0922829082009464,-0.5746457574582174 l 12.66515289751737 -1.922238940083893" fill="#ff9b0e" stroke="none" /><path d="M 79.23777060512086 103.15116336523772 l -15.974530792195853 2.424515944402633 a37.157472314550816,37.157472314550816 0 0,0 -0.09053320632373532,-0.6331890341678531 l 16.013898049536188 -2.1491814382543795" fill="#ffc712" stroke="none" /><path d="M 79.10278846688536 102.07522291339032 l -62.69163459934394 6.225668740170943 a84.0,84.0 0 0,0 -0.13050161489169865,-1.4400744458057353 l 62.78951081051271 -5.145612905816642" fill="#4dd2ff" stroke="none" /><line stroke="#e1ed5e" stroke-width="0.3" x1="15.007084014347285" x2="10.007500721073583" y1="101.09737516637583" y2="101.16192664675087" /><path d="M 14.007167355692545 101.11028546245083 a86.0,86.0 0 0,1 10.666146001902534,-42.60595125391555" fill="none" id="id34" stroke="none" /><text fill="#e1ed5e" style="font-size:6.75px; font-family:Arial;" text-anchor="middle"><textPath startOffset="22.20632615414155" xlink:href="#id34">October</textPath></text><path d="M 79.00486145842228 99.54816195383935 l -1.78015994077034 -0.03831096364990608 a22.78057213969534,22.78057213969534 0 0,0 0.011811515711058209,-0.3919667034671618 l 1.7792367306036367 0.06894781454206225" fill="#ff0000" stroke="none" /><line stroke="#e1ed5e" stroke-width="0.3" x1="26.266209847984243" x2="21.928928074336255" y1="57.711370442889674" y2="55.22380399835377" /><path d="M 25.398753493254645 57.213857153982495 a86.0,86.0 0 0,1 29.58750427330803,-30.492523968695096" fill="none" id="id35" stroke="none" /><text fill="#e1ed5e" style="font-size:6.75px; font-family:Arial;" text-anchor="middle"><textPath startOffset="21.46611528233685" xlink:href="#id35">November</textPath></text><line stroke="#e1ed5e" stroke-width="0.3" x1="56.762969772571076" x2="54.21961505331055" y1="26.818313649435495" y2="22.513508569990535" /><path d="M 56.25429882871897 25.957352633546506 a86.0,86.0 0 0,1 42.265352541879196,-11.944610805530505" fill="none" id="id36" stroke="none" /><text fill="#e1ed5e" style="font-size:6.75px; font-family:Arial;" text-anchor="middle"><textPath startOffset="22.20632615414155" xlink:href="#id36">December</textPath></text></svg>