<?xml version="1.0" encoding="utf-8" ?>
<svg baseProfile="full" height="200mm" version="1.1" viewBox="0,0,200,200" width="200mm" xmlns="http://www.w3.org/2000/svg" xmlns:ev="http://www.w3.org/2001/xml-events" xmlns:xlink="http://www.w3.org/1999/xlink"><defs /><rect fill="#1a1a1a" height="200" width="200" x="0" y="0" /><text alignment-baseline="middle" fill="#e1ed5e" style="dominant-baseline: central; font-size:9.0px; font-family:Arial;" text-anchor="middle" x="100.0" y="100.0">2025</text><line stroke="#e1ed5e" stroke-width="0.3" x1="100.0" x2="100.0" y1="15.0" y2="10.0" /><path d="M 100.0 14.0 a86.0,86.0 0 0,1 42.46469731375804,11.215312516191453" fill="none" id="id25" stroke="none" /><text fill="#e1ed5e" style="font-size:6.75px; font-family:Arial;" text-anchor="middle"><textPath startOffset="22.20632615414155" xlink:href="#id25">January</textPath></text><line stroke="#e1ed5e" stroke-width="0.3" x1="143.23703022742887" x2="145.7803849466894" y1="26.81831364943548" y2="22.513508569990506" /><path d="M 143.74570117128098 25.957352633546492 a86.0,86.0 0 0,1 28.547481713284135,27.462654790039103" fill="none" id="id26" stroke="none" /><text fill="#e1ed5e" style="font-size:6.75px; font-family:Arial;" text-anchor="middle"><textPath startOffset="19.985693538727396" xlink:href="#id26">February</textPath></text><line stroke="#e1ed5e" stroke-width="0.3" x1="172.23445277983987" x2="176.4835382374775" y1="55.19839476539836" y2="52.563006222186495" /><path d="M 173.08426987136738 54.67131705675599 a86.0,86.0 0 0,1 12.851231095245387,41.99856678651699" fill="none" id="id27" stroke="none" /><text fill="#e1ed5e" style="font-size:6.75px; font-family:Arial;" text-anchor="middle"><textPath startOffset="22.20632615414155" xlink:href="#id27">March</textPath></text><path d="M 119.04729006885535 91.15688171328212 l 30.601682879391973 -14.207496210580638 a54.73893809272211,54.73893809272211 0 0,0 0.38942240585426047,0.8580406514038548 l -30.84170760220958 13.678633550334721" fill="#79ff26" stroke="none" /><path d="M 120.18372546131832 94.20196356495316 l 4.623475202502008 -1.328153106918613 a25.810458774749925,25.810458774749925 0 0,0 0.11899018414987102,0.42807100213412036 l -4.645652157218242 1.2483708013655408" fill="#ff0000" stroke="none" /><path d="M 120.53481517161879 95.60439243477599 l 6.4565863512328745 -1.382073302039079 a27.602850439252418,27.602850439252418 0 0,0 0.09545421112626416,0.46546863332474964 l -6.479419858274135 1.2707290125509174" fill="#ff1c02" stroke="none" /><path d="M 120.6074358757038 95.95851677861258 l 61.822307627111385 -12.124449664162288 a84.0,84.0 0 0,0 0.26605710436056285,1.4212876901497489 l -62.02185045538181 11.058483896549978" fill="#4dd2ff" stroke="none" /><path d="M 120.73433829027371 96.67025291283417 l 36.77162025629846 -5.90518943622201 a58.24276196190459,58.24276196190459 0 0,0 0.1504441231548116,0.9912388010438751 l -36.86782027289257 5.271351522786052" fill="#53ff2b" stroke="none" /><path d="M 120.78858239683441 97.02765380044208 l 10.604751696143673 -1.5162646879706352 a31.712600857907887,31.712600857907887 0 0,0 0.07261279664429084,0.5410496768006088 l -10.629280491845801 1.333496669105362" fill="#ff5908" stroke="none" /><path d="M 120.83666639777658 97.38593545837742 l 21.262759403940642 -2.6675200511356394 a42.42943304646852,42.42943304646852 0 0,0 0.08467631243977879,0.7254549340314734 l -21.305526069384012 2.301121378779313" fill="#ffee16" stroke="none" /><path d="M 120.87857604477298 97.74499172005257 l 5.917656351626399 -0.6391414837000738 a26.952071784860344,26.952071784860344 0 0,0 0.04584787966543413,0.46168189139166 l -5.927781356974062 0.5371840616039789" fill="#ff1202" stroke="none" /><path d="M 120.91429891909075 98.10471618934814 l 5.690108227684959 -0.5156457812192885 a26.713424736045564,26.713424736045564 0 0,0 0.037558459727658214,0.4583083407673786 l -5.698141171232113 0.4176235232441412" fill="#ff0e01" stroke="none" /><path d="M 120.94382443527127 98.46500227214037 l 41.016544671543556 -3.0061511960271092 a62.1265593237035,62.1265593237035 0 0,0 0.06898831649323262,1.0672187211986723 l -41.062213579041206 2.2996734105754015" fill="#30ff36" stroke="none" /><path d="M 120.96714384426684 98.82574320788733 l 41.102489151543345 -2.301929028456317 a62.166898009259675,62.166898009259675 0 0,0 0.050640538678793534,1.068941733659258 l -41.13602329845563 1.5940761881740597" fill="#30ff37" stroke="none" /><path d="M 120.98425023603335 99.18683210126433 l 10.81393486063721 -0.4190545093952803 a31.822051277458872,31.822051277458872 0 0,0 0.016499438921766786,0.5475360522246826 l -10.819545994014621 0.23284830974559861" fill="#ff5b08" stroke="none" /><line stroke="#e1ed5e" stroke-width="0.3" x1="184.98032266829074" x2="189.97916517819016" y1="98.17113171792111" y2="98.06355123074" /><path d="M 185.9800911702706 98.14961562048488 a86.0,86.0 0 0,1 -9.607161424134198,41.387399972396054" fill="none" id="id28" stroke="none" /><text fill="#e1ed5e" style="font-size:6.75px; font-family:Arial;" text-anchor="middle"><textPath startOffset="21.466115282336823" xlink:href="#id28">April</textPath></text><path d="M 120.99513854157772 99.54816195383933 l 35.69147229883538 -0.7681190136548387 a56.69973671720383,56.69973671720383 0 0,0 0.012600822270790117,0.9759475714660509 l -35.699406128223885 0.15363518412832503" fill="#63ff29" stroke="none" /><path d="M 120.99980553446 99.90962569577887 l 11.36327428440791 -0.04890273890594064 a32.363379512299964,32.363379512299964 0 0,0 -0.0023975141537203666,0.5570978546187378 l -11.362432472964686 -0.14670459391648188" fill="#ff6309" stroke="none" /><path d="M 120.92983693683757 101.71520430193887 l 33.863781545198876 2.775143636404242 a54.977303052826706,54.977303052826706 0 0,0 -0.08541222417600237,0.9425167764963382 l -33.8109947247458 -3.357641801449151" fill="#77ff27" stroke="none" /><path d="M 120.89721153311464 102.0752229133903 l 46.913881521329294 4.658839852143167 a68.14463986674667,68.14463986674667 0 0,0 -0.12596276593651295,1.1662587719973825 l -46.82673645389173 -5.465694946025342" fill="#38ff81" stroke="none" /><path d="M 120.8583938346157 102.4346265915055 l 33.92386593962312 3.9596503334886886 a55.154172674111415,55.154172674111415 0 0,0 -0.11818354900351163,0.942039167389099 l -33.85068088137276 -4.543007255165183" fill="#75ff27" stroke="none" /><path d="M 120.81339534386255 102.79330883721812 l 10.313224060524618 1.3841095809948567 a31.40568834122883,31.40568834122883 0 0,0 -0.07651913559313488,0.5351746561181335 l -10.287870873914882 -1.5614297090933995" fill="#ff5507" stroke="none" /><path d="M 120.76222939487914 103.15116336523771 l 5.888305621366431 0.8936907787922616 a26.955738938092722,26.955738938092722 0 0,0 -0.07357407932507529,0.45814586218918685 l -5.872049787680067 -0.9949158706746534" fill="#ff1202" stroke="none" /><path d="M 120.64145759157962 103.86396538481128 l 58.08331706424044 10.872872013786328 a80.09222509783552,80.09222509783552 0 0,0 -0.26533435562783875,1.352934162954351 l -57.88755277563694 -11.871069903808625" fill="#48f9ff" stroke="none" /><path d="M 120.5718875245553 104.21870165774334 l 39.726069187529134 8.146672673424435 a61.55279088719138,61.55279088719138 0 0,0 -0.22178338531774644,1.0360981407137388 l -39.579951763486946 -8.829284633554343" fill="#30ff2f" stroke="none" /><path d="M 120.49622156327973 104.57218783832717 l 32.18068490962937 7.178695630244825 a53.97165680102447,53.97165680102447 0 0,0 -0.21007679441457952,0.905005332117486 l -32.052347549284235 -7.731569619710876" fill="#82ff25" stroke="none" /><path d="M 120.41448212921028 104.9243191809786 l 49.902930723377 12.03743290634617 a72.33422139038392,72.33422139038392 0 0,0 -0.3023869632072333,1.2078856047844297 l -49.6883324458747 -12.894646350527996" fill="#3effb2" stroke="none" /><path d="M 120.32669344350535 105.2749913415812 l 5.520410076935771 1.432604640727639 a26.703269542478978,26.703269542478978 0 0,0 -0.11928976589257063,0.44392159576841145 l -5.494932234701423 -1.5274171696715986" fill="#ff0e01" stroke="none" /><path d="M 120.23288151984713 105.62410040840565 l 39.10539270243246 10.870060937829077 a61.58805197596425,61.58805197596425 0 0,0 -0.2927114793829927,1.0189670598706684 l -38.91248858616337 -11.541585473204327" fill="#2fff2f" stroke="none" /><path d="M 120.13307415673323 105.97154293290107 l 39.758435767903656 11.792496480405845 a62.47042546141653,62.47042546141653 0 0,0 -0.31465231066519483,1.0283019569147098 l -39.54955668473232 -12.475125409872613" fill="#31ff3b" stroke="none" /><path d="M 119.9155931802556 106.66101706037122 l 11.99809843384281 4.012912778268274 a33.65139656299533,33.65139656299533 0 0,0 -0.18846251368446193,0.5477602821142239 l -11.927245089215116 -4.218845763471799" fill="#ff760a" stroke="none" /><line stroke="#e1ed5e" stroke-width="0.3" x1="174.80103733775053" x2="179.2010983576182" y1="140.37084112569926" y2="142.7455964860345" /><path d="M 175.68104954172406 140.8457921977663 a86.0,86.0 0 0,1 -30.038265399797805,32.042727171017184" fill="none" id="id29" stroke="none" /><text fill="#e1ed5e" style="font-size:6.75px; font-family:Arial;" text-anchor="middle"><textPath startOffset="22.206326154141568" xlink:href="#id29">May</textPath></text><line stroke="#e1ed5e" stroke-width="0.3" x1="143.8653032363475" x2="146.44561519142675" y1="172.8068346515853" y2="177.08958963109032" /><path d="M 144.38136562736335 173.6633856474863 a86.0,86.0 0 0,1 -40.68145358897372,12.25698825130547" fill="none" id="id30" stroke="none" /><text fill="#e1ed5e" style="font-size:6.75px; font-family:Arial;" text-anchor="middle"><textPath startOffset="21.466115282336833" xlink:href="#id30">June</textPath></text><line stroke="#e1ed5e" stroke-width="0.3" x1="102.19456741930631" x2="102.32365962044197" y1="184.97166512339345" y2="189.96999836594603" /><path d="M 102.22038585953345 185.97133177190398 a86.0,86.0 0 0,1 -42.740103519485714,-10.115201625700543" fill="none" id="id31" stroke="none" /><text fill="#e1ed5e" style="font-size:6.75px; font-family:Arial;" text-anchor="middle"><textPath startOffset="22.20632615414155" xlink:href="#id31">July</textPath></text><line stroke="#e1ed5e" stroke-width="0.3" x1="58.666819895761336" x2="56.23545636021788" y1="174.27360380694188" y2="178.64263932499728" /><path d="M 58.180547188652646 175.14741091055294 a86.0,86.0 0 0,1 -31.652253787137756,-30.449443065178592" fill="none" id="id32" stroke="none" /><text fill="#e1ed5e" style="font-size:6.75px; font-family:Arial;" text-anchor="middle"><textPath startOffset="22.20632615414155" xlink:href="#id32">August</textPath></text><line stroke="#e1ed5e" stroke-width="0.3" x1="26.63291911575756" x2="22.317208475507996" y1="142.92168965132927" y2="145.44649492493687" /><path d="M 25.769776987707644 143.4266507060508 a86.0,86.0 0 0,1 -11.730757126820373,-40.83630448921669" fill="none" id="id33" stroke="none" /><text fill="#e1ed5e" style="font-size:6.75px; font-family:Arial;" text-anchor="middle"><textPath startOffset="21.46611528233685" xlink:href="#id33">September</textPath></text><line stroke="#e1ed5e" stroke-width="0.3" x1="15.007084014347285" x2="10.007500721073583" y1="101.09737516637583" y2="101.16192664675087" /><path d="M 14.007167355692545 101.11028546245083 a86.0,86.0 0 0,1 10.666146001902534,-42.60595125391555" fill="none" id="id34" stroke="none" /><text fill="#e1ed5e" style="font-size:6.75px; font-family:Arial;" text-anchor="middle"><textPath startOffset="22.20632615414155" xlink:href="#id34">October</textPath></text><line stroke="#e1ed5e" stroke-width="0.3" x1="26.266209847984243" x2="21.928928074336255" y1="57.711370442889674" y2="55.22380399835377" /><path d="M 25.398753493254645 57.213857153982495 a86.0,86.0 0 0,1 29.58750427330803,-30.492523968695096" fill="none" id="id35" stroke="none" /><text fill="#e1ed5e" style="font-size:6.75px; font-family:Arial;" text-anchor="middle"><textPath startOffset="21.46611528233685" xlink:href="#id35">November</textPath></text><line stroke="#e1ed5e" stroke-width="0.3" x1="56.762969772571076" x2="54.21961505331055" y1="26.818313649435495" y2="22.513508569990535" /><path d="M 56.25429882871897 25.957352633546506 a86.0,86.0 0 0,1 42.265352541879196,-11.944610805530505" fill="none" id="id36" stroke="none" /><text fill="#e1ed5e" style="font-size:6.75px; font-family:Arial;" text-anchor="middle"><textPath startOffset="22.20632615414155" xlink:href="#id36">December</textPath></text></svg>