<?xml version="1.0" encoding="utf-8" ?>
<svg baseProfile="full" height="200mm" version="1.1" viewBox="0,0,200,200" width="200mm" xmlns="http://www.w3.org/2000/svg" xmlns:ev="http://www.w3.org/2001/xml-events" xmlns:xlink="http://www.w3.org/1999/xlink"><defs /><rect fill="#1a1a1a" height="200" width="200" x="0" y="0" /><text alignment-baseline="middle" fill="#e1ed5e" style="dominant-baseline: central; font-size:9.0px; font-family:Arial;" text-anchor="middle" x="100.0" y="100.0">2025</text><line stroke="#e1ed5e" stroke-width="0.3" x1="100.0" x2="100.0" y1="15.0" y2="10.0" /><path d="M 100.0 14.0 a86.0,86.0 0 0,1 42.46469731375804,11.215312516191453" fill="none" id="id25" stroke="none" /><text fill="#e1ed5e" style="font-size:6.75px; font-family:Arial;" text-anchor="middle"><textPath startOffset="22.20632615414155" xlink:href="#id25">January</textPath></text><line stroke="#e1ed5e" stroke-width="0.3" x1="143.23703022742887" x2="145.7803849466894" y1="26.81831364943548" y2="22.513508569990506" /><path d="M 143.74570117128098 25.957352633546492 a86.0,86.0 0 0,1 28.547481713284135,27.462654790039103" fill="none" id="id26" stroke="none" /><text fill="#e1ed5e" style="font-size:6.75px; font-family:Arial;" text-anchor="middle"><textPath startOffset="19.985693538727396" xlink:href="#id26">February</textPath></text><line stroke="#e1ed5e" stroke-width="0.3" x1="172.23445277983987" x2="176.4835382374775" y1="55.19839476539836" y2="52.563006222186495" /><path d="M 173.08426987136738 54.67131705675599 a86.0,86.0 0 0,1 12.851231095245387,41.99856678651699" fill="none" id="id27" stroke="none" /><text fill="#e1ed5e" style="font-size:6.75px; font-family:Arial;" text-anchor="middle"><textPath startOffset="22.20632615414155" xlink:href="#id27">March</textPath></text><path d="M 119.04729006885535 91.15688171328212 l 16.072461206766615 -7.4619893484229864 a38.720194532763905,38.720194532763905 0 0,0 0.2754622547582575,0.6069445644542746 l -16.198525778488218 7.184222775126649" fill="#ffdd14" stroke="none" /><path d="M 120.18372546131832 94.20196356495316 l 2.428318276662614 -0.6975658617118542 a23.526524843376666,23.526524843376666 0 0,0 0.10846089749704685,0.3901915558467289 l -2.439965944726024 0.6556630024461734" fill="#ff0e01" stroke="none" /><path d="M 120.53481517161879 95.60439243477599 l 3.3910956488021444 -0.7258855540552642 a24.467915733824995,24.467915733824995 0 0,0 0.08461320324204269,0.4126040287757004 l -3.403088147959184 0.6674058691161521" fill="#ff1b02" stroke="none" /><path d="M 120.6074358757038 95.95851677861258 l 32.46999993319591 -6.367942169999861 a54.0885415686791,54.0885415686791 0 0,0 0.1713171517720083,0.9151830751156736 l -32.57480280887777 5.808081017421625" fill="#6fff27" stroke="none" /><path d="M 120.73433829027371 96.67025291283417 l 19.31300453013038 -3.1014937481167717 a40.560455195379376,40.560455195379376 0 0,0 0.10476979303660292,0.6903020327909415 l -19.363530216606282 2.768592602933748" fill="#fff417" stroke="none" /><path d="M 120.78858239683441 97.02765380044208 l 5.569774084497936 -0.7963648755085174 a26.62641807611988,26.62641807611988 0 0,0 0.06096689104088551,0.45427415300912477 l -5.5826569745966586 0.7003723804347283" fill="#ff3a05" stroke="none" /><path d="M 120.83666639777658 97.38593545837742 l 11.167519022255751 -1.4010213983696285 a32.25505851033808,32.25505851033808 0 0,0 0.06437133885794544,0.5514943204207208 l -11.189980714117286 1.208583339624055" fill="#ff880c" stroke="none" /><path d="M 120.87857604477298 97.74499172005257 l 3.108041558411874 -0.3356866595504307 a24.12611705830339,24.12611705830339 0 0,0 0.041040678449981466,0.41327403118861267 l -3.113359362544084 0.2821370976573831" fill="#ff1602" stroke="none" /><path d="M 120.91429891909075 98.10471618934814 l 2.98852988288947 -0.270824870898229 a24.000776061558142,24.000776061558142 0 0,0 0.03374453818810562,0.4117688376758256 l -2.9927489048970704 0.2193421160146346" fill="#ff1502" stroke="none" /><path d="M 120.94382443527127 98.46500227214037 l 21.54250227568178 -1.5788755366901173 a42.60028361522397,42.60028361522397 0 0,0 0.047305401759585926,0.7317936273543802 l -21.56648826844578 1.2078228450827018" fill="#f1ff19" stroke="none" /><path d="M 120.96714384426684 98.82574320788733 l 21.58764160106387 -1.2090075293051739 a42.621470095761296,42.621470095761296 0 0,0 0.034719026910590825,0.7328637843323502 l -21.605254236207955 0.8372326383498239" fill="#f1ff19" stroke="none" /><path d="M 120.98425023603335 99.18683210126433 l 5.679640208844163 -0.22009369132806594 a26.68390307226309,26.68390307226309 0 0,0 0.013835356655559615,0.4591281315822112 l -5.682587259955367 0.12229541232085564" fill="#ff3b05" stroke="none" /><line stroke="#e1ed5e" stroke-width="0.3" x1="184.98032266829074" x2="189.97916517819016" y1="98.17113171792111" y2="98.06355123074" /><path d="M 185.9800911702706 98.14961562048488 a86.0,86.0 0 0,1 -9.607161424134198,41.387399972396054" fill="none" id="id28" stroke="none" /><text fill="#e1ed5e" style="font-size:6.75px; font-family:Arial;" text-anchor="middle"><textPath startOffset="21.466115282336823" xlink:href="#id28">April</textPath></text><path d="M 120.99513854157772 99.54816195383933 l 18.74569467948211 -0.40342758592080824 a39.75003527552537,39.75003527552537 0 0,0 0.008833958652449174,0.6841998329961908 l -18.749861645252274 0.08069149486415476" fill="#ffea16" stroke="none" /><path d="M 120.99980553446 99.90962569577887 l 5.968161484379894 -0.025684449350975833 a26.96821675164149,26.96821675164149 0 0,0 -0.0019978346617999477,0.46422641645081014 l -5.967719352428591 -0.077051445303519" fill="#ff3f05" stroke="none" /><path d="M 120.92983693683757 101.71520430193887 l 17.78576417985684 1.4575469138447148 a38.845387372302596,38.845387372302596 0 0,0 -0.06034983075213199,0.6659553534794892 l -17.758039752827635 -1.7634836558727744" fill="#ffde14" stroke="none" /><path d="M 120.89721153311464 102.0752229133903 l 24.639871728041122 2.446892319197746 a45.76106945986116,45.76106945986116 0 0,0 -0.08458759034677682,0.7831760323028402 l -24.594101836193293 -2.8706646733853773" fill="#ccff1d" stroke="none" /><path d="M 120.8583938346157 102.4346265915055 l 17.817321401801856 2.0796675342392787 a38.938281940812374,38.938281940812374 0 0,0 -0.0834363771360603,0.6650700195581504 l -17.778883515418947 -2.3860553080848237" fill="#ffe014" stroke="none" /><path d="M 120.81339534386255 102.79330883721812 l 5.41665941323445 0.7269550381961165 a26.46522303538841,26.46522303538841 0 0,0 -0.06448182150775954,0.4509857094410532 l -5.403343540710089 -0.820086219617579" fill="#ff3805" stroke="none" /><path d="M 120.76222939487914 103.15116336523771 l 3.0926261162169832 0.46937975370814194 a24.1280431019886,24.1280431019886 0 0,0 -0.06585605244291443,0.4100857014265392 l -3.0840883094127802 -0.5225446848278861" fill="#ff1602" stroke="none" /><path d="M 120.64145759157962 103.86396538481128 l 30.506226208363294 5.710594882525341 a52.03611978627735,52.03611978627735 0 0,0 -0.17238839720084217,0.8790047233728567 l -30.40340787818679 -6.2348633329661425" fill="#85ff25" stroke="none" /><path d="M 120.5718875245553 104.21870165774334 l 20.86472526463142 4.278754244460737 a42.29893185709179,42.29893185709179 0 0,0 -0.1524090161855299,0.7120041840447194 l -20.787982209721445 -4.637272247921626" fill="#f5ff19" stroke="none" /><path d="M 120.49622156327973 104.57218783832717 l 16.901776672076757 3.7703582344484277 a38.31720693093523,38.31720693093523 0 0,0 -0.14914413379316876,0.6425090249163379 l -16.834371972353036 -4.06073591671333" fill="#ffd814" stroke="none" /><path d="M 120.41448212921028 104.9243191809786 l 26.209765041894812 6.322239668282872 a47.96150029161102,47.96150029161102 0 0,0 -0.20049890833512315,0.8008934730000791 l -26.097054819264628 -6.772460980680347" fill="#b2ff20" stroke="none" /><path d="M 120.32669344350535 105.2749913415812 l 2.8994018778864166 0.7524253683523662 a23.995442402122176,23.995442402122176 0 0,0 -0.10719326717967463,0.3989060240497502 l -2.8860205343649645 -0.8022223255776646" fill="#ff1502" stroke="none" /><path d="M 120.23288151984713 105.62410040840565 l 20.53873669831678 5.7091184634195615 a42.31745150791113,42.31745150791113 0 0,0 -0.20112348803356983,0.7001372467676703 l -20.43742057339711 -6.061813185691814" fill="#f5ff19" stroke="none" /><path d="M 120.13307415673323 105.97154293290107 l 20.881724676379967 6.193595396673186 a42.78088725001411,42.78088725001411 0 0,0 -0.21547964378501094,0.7041999434581656 l -20.77201826008882 -6.552122312683409" fill="#efff19" stroke="none" /><path d="M 119.9155931802556 106.66101706037122 l 6.301580615449388 2.1076417662732276 a27.644702556770078,27.644702556770078 0 0,0 -0.1548224045963463,0.44998637851814394 l -6.26436737990981 -2.2158008478806717" fill="#ff4906" stroke="none" /><path d="M 119.79798401119884 107.00284435728193 l 20.56685855252514 7.274806832862214 a42.8155560363479,42.8155560363479 0 0,0 -0.2517467820028658,0.6926990231312685 l -20.43858750951705 -7.627753652999614" fill="#efff19" stroke="none" /><path d="M 119.67450827220406 107.3425965602758 l 20.89761803594203 7.7990654803529535 a43.30551191842417,43.30551191842417 0 0,0 -0.266650019818277,0.6961390595184005 l -20.760273736530248 -8.157628106704498" fill="#e9ff1a" stroke="none" /><path d="M 119.54520255179757 107.68017299344265 l 5.3923236632084075 2.118882035646446 a26.793687562320095,26.793687562320095 0 0,0 -0.17236938781303163,0.42780668464133675 l -5.355051661137983 -2.211388088130596" fill="#ff3d05" stroke="none" /><path d="M 119.41010516605496 108.01547362559984 l 34.60920384663662 14.291996785306786 a58.44406712697308,58.44406712697308 0 0,0 -0.3919899766649996,0.9265485128688616 l -34.35806288877931 -14.885619823841811" fill="#42ff2d" stroke="none" /><path d="M 119.12269723197855 108.67885076344098 l 23.879941711793535 10.837929808863173 a47.22427003179501,47.22427003179501 0 0,0 -0.34232060000234593,0.737328118134823 l -23.689846494951357 -11.247377994276826" fill="#bbff1f" stroke="none" /><path d="M 118.97047184881838 109.00673069616215 l 20.995941700962668 9.968375806354565 a44.242161778262755,44.242161778262755 0 0,0 -0.33254672176303507,0.6851447439172389 l -20.82124172258492 -10.32830950623708" fill="#deff1b" stroke="none" /><path d="M 118.81262510543309 109.33194174019688 l 23.144991842610516 11.480998225505276 a46.83609815062179,46.83609815062179 0 0,0 -0.3644770219902608,0.7191477423308201 l -22.943936150833984 -11.877700179538792" fill="#bfff1e" stroke="none" /><path d="M 118.64920377521936 109.65438752849418 l 22.40028026594127 11.596258426949063 a46.223912573137916,46.223912573137916 0 0,0 -0.371876861393499,0.7034508763021965 l -22.197350896322877 -11.980124318337394" fill="#c6ff1e" stroke="none" /><line stroke="#e1ed5e" stroke-width="0.3" x1="174.80103733775053" x2="179.2010983576182" y1="140.37084112569926" y2="142.7455964860345" /><path d="M 175.68104954172406 140.8457921977663 a86.0,86.0 0 0,1 -30.038265399797805,32.042727171017184" fill="none" id="id29" stroke="none" /><text fill="#e1ed5e" style="font-size:6.75px; font-family:Arial;" text-anchor="middle"><textPath startOffset="22.206326154141568" xlink:href="#id29">May</textPath></text><path d="M 118.30583269289576 110.29060199501025 l 20.209712649914447 11.36086584001741 a44.18408415329332,44.18408415329332 0 0,0 -0.378400920800242,0.659773900923757 l -20.011159732961826 -11.707059586799483" fill="#deff1b" stroke="none" /><path d="M 118.12598468904814 110.60418214915192 l 14.151281200191432 8.278875110237093 a37.395076477339,37.395076477339 0 0,0 -0.32982301515859774,0.5528023447901963 l -14.006677309334608 -8.521239548913393" fill="#ffcc13" stroke="none" /><path d="M 117.55443506779139 111.5257021239791 l 18.744700602837764 12.307193863952774 a43.42388952646135,43.42388952646135 0 0,0 -0.4156222355146022,0.6212988497288915 l -18.53007526191244 -12.628029627887473" fill="#e7ff1a" stroke="none" /><path d="M 117.35343817320211 111.8261652097733 l 18.974130067762083 12.930647785958376 a43.96125571463511,43.96125571463511 0 0,0 -0.43153016062039223,0.6216513814138912 l -18.748738999979555 -13.255340429559286" fill="#e1ff1b" stroke="none" /><path d="M 117.14729908036423 112.12312394758627 l 2.5227124601821784 1.7835552815387885 a24.089522228284387,24.089522228284387 0 0,0 -0.24229494698241713,0.33652648964364873 l -2.4916377208241585 -1.8267153766335684" fill="#ff1602" stroke="none" /><path d="M 116.93607887273984 112.41649034213515 l 17.35196916959314 12.72139550306814 a42.51568585028126,42.51568585028126 0 0,0 -0.43778752637401036,0.5864879337930733 l -17.13042037652404 -13.018196316370528" fill="#f2ff19" stroke="none" /><path d="M 116.71984013943494 112.70617746262583 l 12.136927962296063 9.223411184196362 a36.24389498240927,36.24389498240927 0 0,0 -0.3817572613130089,0.49347272164376554 l -11.976363883764986 -9.430961899953381" fill="#ffbd11" stroke="none" /><path d="M 116.498646956653 112.99209946851258 l 17.206551058312673 13.549548847670408 a42.90104274452994,42.90104274452994 0 0,0 -0.4618646342241566,0.5762471461286498 l -16.970768512033665 -13.843723827377307" fill="#eeff19" stroke="none" /><path d="M 116.27256486870786 113.27417163493432 l 12.87074986899261 10.499177247703471 a37.609904426843265,37.609904426843265 0 0,0 -0.4135370178942686,0.4981319779692107 l -12.688116851204796 -10.719170482786453" fill="#ffcf13" stroke="none" /><path d="M 116.0416608686014 113.55231037782055 l 4.489223468199886 3.7925842152368854 a26.87680375519726,26.87680375519726 0 0,0 -0.3016057201765931,0.35083559098290523 l -4.423275238452514 -3.8692969053813187" fill="#ff3e05" stroke="none" /><path d="M 115.80600337817218 113.82643327865902 l 1.8543499203405165 1.622108058276257 a23.46370618779749,23.46370618779749 0 0,0 -0.268537816032793,0.30170508306268506 l -1.8261532546593853 -1.6537873110798085" fill="#ff0d01" stroke="none" /><path d="M 115.56566222782051 114.09645910891815 l 2.0113053616625547 1.8214633833920664 a23.71349923804865,23.71349923804865 0 0,0 -0.2766050865405108,0.30020019127165415 l -1.9796538671263217 -1.8558148294650554" fill="#ff1001" stroke="none" /><path d="M 115.32070863581623 114.36230785411682 l 17.30162354371696 16.2193048388104 a44.71522773879179,44.71522773879179 0 0,0 -0.5312455416393406,0.5570088265171621 l -17.019871450698655 -16.51472078191007" fill="#d8ff1c" stroke="none" /><path d="M 115.07121518719521 114.62390073753431 l 14.583980235314842 14.151126944336175 a41.32109429383101,41.32109429383101 0 0,0 -0.4997085370896475,0.5062021098194924 l -14.338231073169657 -14.400069548136333" fill="#fffd17" stroke="none" /><path d="M 114.81725581225074 114.88116024355365 l 19.370342922695887 19.453884083373822 a48.45293774575282,48.45293774575282 0 0,0 -0.5960866082927581,0.5833962058148869 l -19.032606362027334 -19.78443039211128" fill="#adff20" stroke="none" /><path d="M 114.55890576462653 115.13401014063108 l 14.712121724442309 15.293278421300384 a42.22100116644404,42.22100116644404 0 0,0 -0.5280925734556553,0.4993444900787975 l -14.446693316595846 -15.544257548125103" fill="#f6ff19" stroke="none" /><path d="M 114.29624159901734 115.38237550388516 l 9.054537379077745 9.742441257323991 a34.30036874682521,34.30036874682521 0 0,0 -0.4359420891419213,0.39822276234397563 l -8.88549574046896 -9.89685678625455" fill="#ffa40f" stroke="none" /><path d="M 114.0293411484842 115.62618273729858 l 1.7956675101767559 2.000053199396581 a23.687868041314694,23.687868041314694 0 0,0 -0.3057513226637142,0.26978999315401214 l -1.7609738346064538 -2.030666334322882" fill="#ff1001" stroke="none" /><path d="M 113.75828350139079 115.86535959552629 l 15.116206385023581 17.431247872915712 a44.072669933964214,44.072669933964214 0 0,0 -0.5774244303932544,0.49209362653662175 l -14.81391647805328 -17.68886588967528" fill="#e0ff1b" stroke="none" /><path d="M 113.20401910651253 116.32954008644616 l 13.605768770689664 16.826387841131783 a42.63895264613474,42.63895264613474 0 0,0 -0.5746969554699102,0.4565740186884331 l -13.314114322502403 -17.058095773825343" fill="#f1ff19" stroke="none" /><path d="M 112.63410532772338 116.77436683061366 l 12.696737479320744 16.857523861446666 a42.104105130472405,42.104105130472405 0 0,0 -0.582670750380577,0.4310458914412579 l -12.404681758521601 -17.07357970162769" fill="#f7ff18" stroke="none" /><path d="M 112.34349029814194 116.9893568818739 l 1.7906339776945406 2.464596233080148 a24.04640848117698,24.04640848117698 0 0,0 -0.3369619466377711,0.24041340203147327 l -1.747944703207885 -2.4950538969558402" fill="#ff1502" stroke="none" /><path d="M 112.04921762599082 117.19931262002967 l 13.508700164709907 19.282609413736637 a44.54366169360149,44.54366169360149 0 0,0 -0.6317629985298383,0.4345323511114046 l -13.174780281557187 -19.512282554213137" fill="#daff1c" stroke="none" /><path d="M 111.7513745106137 117.40417183066458 l 1.703245145707071 2.522562033816339 a24.043741651458994,24.043741651458994 0 0,0 -0.3449994141211597,0.22864679943645014 l -1.6595710328459472 -2.5515068543441073" fill="#ff1502" stroke="none" /><path d="M 111.45004920935366 117.60387380957326 l 11.682106957943143 17.960650907034605 a42.42560626869603,42.42560626869603 0 0,0 -0.6156121090125478,0.3929127746506449 l -11.371213046883666 -18.15907811050906" fill="#f3ff19" stroke="none" /><line stroke="#e1ed5e" stroke-width="0.3" x1="143.8653032363475" x2="146.44561519142675" y1="172.8068346515853" y2="177.08958963109032" /><path d="M 144.38136562736335 173.6633856474863 a86.0,86.0 0 0,1 -40.68145358897372,12.25698825130547" fill="none" id="id30" stroke="none" /><text fill="#e1ed5e" style="font-size:6.75px; font-family:Arial;" text-anchor="middle"><textPath startOffset="21.466115282336833" xlink:href="#id30">June</textPath></text><path d="M 110.21172684928248 118.3499491758327 l 12.299921533619473 22.102327876553627 a46.294287246251386,46.294287246251386 0 0,0 -0.6996547958457306,0.3815075799086778 l -11.917643925905095 -22.310776108222072" fill="#c5ff1e" stroke="none" /><path d="M 109.89434966115114 118.52300852407294 l 14.17334455628182 26.53362687003391 a51.08183921885876,51.08183921885876 0 0,0 -0.7791418008323481,0.40761016567984365 l -13.714511852922977 -26.77366645465847" fill="#8fff24" stroke="none" /><path d="M 109.57404056367764 118.69057910512821 l 8.503281041433318 16.600227030686074 a39.651362575959965,39.651362575959965 0 0,0 -0.6101515653083569,0.3059426613843281 l -8.216275568442201 -16.744137532979707" fill="#ffe815" stroke="none" /><path d="M 109.2508944713604 118.85261126421891 l 1.6021505664046833 3.2650596013915902 a24.636963106503867,24.636963106503867 0 0,0 -0.382327341683583,0.1835403580024116 l -1.5457105567208675 -3.2921542358935616" fill="#ff1e03" stroke="none" /><path d="M 108.59647513512805 119.15986991738527 l 13.017708946370975 29.01393956409498 a52.80046281489285,52.80046281489285 0 0,0 -0.8324353145958612,0.3649151788999532 l -12.51635295711736 -29.23371929628939" fill="#7dff26" stroke="none" /><path d="M 108.2653958097858 119.30500536409082 l 7.072287565188925 16.51833167151171 a38.96865416815608,38.96865416815608 0 0,0 -0.6189123023834893,0.2587053925915725 l -6.7869038033079745 -16.637622107123256" fill="#ffe015" stroke="none" /><path d="M 107.59598834532513 119.57807347666477 l 1.1177905638448782 2.8810188741200435 a24.09026301431716,24.09026301431716 0 0,0 -0.387887395945618,0.1466658229415218 l -1.0680329471389853 -2.8998329471681963" fill="#ff1602" stroke="none" /><path d="M 107.2578585660854 119.70592522655815 l 7.833026754992769 21.267573365620276 a43.66420051549301,43.66420051549301 0 0,0 -0.7075273017220629,0.25369411778188294 l -7.465779892640971 -21.39925502444212" fill="#e4ff1a" stroke="none" /><path d="M 106.91757812671514 119.82793768551818 l 6.078665767961996 17.423353065254982 a39.45327639079638,39.45327639079638 0 0,0 -0.6431452687315583,0.21818979414809012 l -5.777850766293211 -17.525405846301194" fill="#ffe615" stroke="none" /><path d="M 106.57524785965236 119.94407469862006 l 4.376112403159084 13.273646031463352 a34.976410080334134,34.976410080334134 0 0,0 -0.5734110198097672,0.1835881008199036 l -4.146980038258376 -13.347006978942963" fill="#ffad10" stroke="none" /><path d="M 105.88484417918355 120.15858648285463 l 6.503036248869059 22.27620895854423 a44.206011419863415,44.206011419863415 0 0,0 -0.7322806454943974,0.20694982497038 l -6.118624435270056 -22.38484757685313" fill="#deff1b" stroke="none" /><path d="M 105.53697534728816 120.25689768951611 l 5.829082490736587 21.325564993969564 a43.10787020488025,43.10787020488025 0 0,0 -0.7174577441260542,0.18948711109565386 l -5.461134303799035 -21.4227434543688" fill="#ebff1a" stroke="none" /><path d="M 105.18746579009965 120.34920634021253 l 5.780269877212124 22.674637133606005 a44.39980104603691,44.39980104603691 0 0,0 -0.7422097292983904,0.18241709358854674 l -5.389106863170523 -22.77077548550858" fill="#dcff1b" stroke="none" /><path d="M 104.83641907484287 120.43548508189849 l 0.47265025274718764 1.9971050976976228 a23.05227362519519,23.05227362519519 0 0,0 -0.3869267601696984,0.08806327088924536 l -0.43820334318462717 -2.0049451021645526" fill="#ff0701" stroke="none" /><path d="M 104.48393922423573 120.51570834832081 l 4.718942586113979 21.59093711304406 a43.10061050175907,43.10061050175907 0 0,0 -0.72616019110138,0.1521739283685841 l -4.3465909335832205 -21.668967022139185" fill="#ebff1a" stroke="none" /><path d="M 102.70371172650421 120.8252237178851 l 2.587576948870303 19.930700569598134 a41.09796954075969,41.09796954075969 0 0,0 -0.7023302017356339,0.08504240651692117 l -2.244119324083289 -19.972288504840407" fill="#fffa17" stroke="none" /><path d="M 102.34483914955558 120.86867818915974 l 0.40073972935794705 3.5665168978294175 a24.588960171580155,24.588960171580155 0 0,0 -0.42101850290777765,0.04364028926719026 l -0.3392886298445667 -3.5728865555523663" fill="#ff1d03" stroke="none" /><path d="M 101.98527174616119 120.90594882070398 l 0.24637083053855383 2.5944135779460913 a23.60608526329652,23.60608526329652 0 0,0 -0.40485074968828083,0.03493222620621734 l -0.20167576310873134 -2.598270056430972" fill="#ff0f01" stroke="none" /><path d="M 101.62511606390274 120.93702456842531 l 1.717190585123418 22.1232576970881 a43.18980114010498,43.18980114010498 0 0,0 -0.7417071736035461,0.05115246925556407 l -1.3361206507409416 -22.14953851085995" fill="#eaff1a" stroke="none" /><path d="M 101.26447882468166 120.96189622390904 l 0.8169701743553794 13.543322101244103 a34.56794066186292,34.56794066186292 0 0,0 -0.5942590013955883,0.030716402503957175 l -0.5837231045463116 -13.555378310510262" fill="#ffa70f" stroke="none" /><path d="M 100.90346689309514 120.98055641714683 l 0.7681117346574269 17.837301739351698 a38.85383233307621,38.85383233307621 0 0,0 -0.6684332800659903,0.023022193697105814 l -0.4609581029167842 -17.8478807314749" fill="#ffde14" stroke="none" /><line stroke="#e1ed5e" stroke-width="0.3" x1="102.19456741930631" x2="102.32365962044197" y1="184.97166512339345" y2="189.96999836594603" /><path d="M 102.22038585953345 185.97133177190398 a86.0,86.0 0 0,1 -42.740103519485714,-10.115201625700543" fill="none" id="id31" stroke="none" /><text fill="#e1ed5e" style="font-size:6.75px; font-family:Arial;" text-anchor="middle"><textPath startOffset="22.20632615414155" xlink:href="#id31">July</textPath></text><path d="M 100.54218724476979 120.99299961872073 l 0.0933690134441089 3.6151637327151422 a24.61636925479277,24.61636925479277 0 0,0 -0.4236832446270901,0.007294091285359219 l -0.031126078924350827 -3.6162353012796613" fill="#ff1e03" stroke="none" /><path d="M 100.18074693466247 120.99922214144158 l 0.1361327606853649 15.815936727768863 a36.816522585743044,36.816522585743044 0 0,0 -0.6337593906956298,0.0 l 0.13613276068535402 -15.815936727768863" fill="#ffc512" stroke="none" /><path d="M 99.81925306533755 120.99922214144158 l -0.030706541869732804 3.567493385833678 a24.567625533836285,24.567625533836285 0 0,0 -0.42284429483574265,-0.0072796480038758845 l 0.09211052659814341 -3.5664362605506423" fill="#ff1d02" stroke="none" /><path d="M 99.45781275523022 120.99299961872073 l -0.6366834136058129 24.651805788511275 a45.660026244990874,45.660026244990874 0 0,0 -0.7855256297293749,-0.027055090973155692 l 1.0609293950098309 -24.637193899112024" fill="#cdff1d" stroke="none" /><path d="M 98.73552117531835 120.96189622390904 l -1.0590066656571626 17.555681750164737 a38.58759383289748,38.58759383289748 0 0,0 -0.6626725384800063,-0.04570177808368312 l 1.361041964916099 -17.53485162756477" fill="#ffdb14" stroke="none" /><path d="M 98.37488393609728 120.93702456842531 l -1.3608585190826856 17.532488221032484 a38.58522331759261,38.58522331759261 0 0,0 -0.6617470204305972,-0.057098317408997235 l 1.6624498572548245 -17.506465651344826" fill="#ffdb14" stroke="none" /><path d="M 98.01472825383883 120.90594882070398 l -0.27533586053023645 2.899430478411842 a23.912474366451566,23.912474366451566 0 0,0 -0.40943553888953804,-0.042439667686813454 l 0.32520399602536787 -2.8942614422692676" fill="#ff1302" stroke="none" /><path d="M 95.86986931433489 120.58985236759428 l -4.114357041107126 20.51121635399915 a41.91979756551841,41.91979756551841 0 0,0 -0.7062658244681913,-0.14800487041129948 l 4.4668143270047045 -20.43735550286131" fill="#faff18" stroke="none" /><path d="M 95.51606077576429 120.51570834832081 l -3.80647238464 17.41604276372018 a38.827164035896374,38.827164035896374 0 0,0 -0.6517044275653129,-0.1483258059464083 l 4.105696961598175 -17.347940224196087" fill="#ffde14" stroke="none" /><path d="M 95.16358092515715 120.4354850818985 l -0.7734307882631007 3.268003266641065 a24.358279400974546,24.358279400974546 0 0,0 -0.40718542728663004,-0.10007627125482706 l 0.8295695002929414 -3.254205737072208" fill="#ff1a02" stroke="none" /><path d="M 94.11515582081647 120.15858648285463 l -8.20723355915454 28.113952119996085 a50.28742027731266,50.28742027731266 0 0,0 -0.8288445061342354,-0.2497240505830858 l 8.689953039729021 -27.968512700307276" fill="#98ff23" stroke="none" /><path d="M 93.42475214034765 119.94407469862007 l -4.645957591574575 14.092141806785582 a35.83824055086261,35.83824055086261 0 0,0 -0.584214974230321,-0.19819743868589282 l 4.887842298742123 -14.010081381201566" fill="#ffb811" stroke="none" /><path d="M 93.08242187328487 119.8279376855182 l -6.651383530719982 19.064940901827402 a41.191901209715354,41.191901209715354 0 0,0 -0.6674665829589922,-0.23932976932554798 l 6.978569674308701 -18.947623591461895" fill="#fffc17" stroke="none" /><path d="M 92.7421414339146 119.70592522655815 l -1.1445843545592926 3.1076788698844906 a24.31175803811638,24.31175803811638 0 0,0 -0.39145377992179564,-0.1480143241979669 l 1.1979083552413712 -3.0875162955798907" fill="#ff1902" stroke="none" /><path d="M 92.40401165467489 119.57807347666478 l -7.4610296131064935 19.230227764484372 a41.62689076815984,41.62689076815984 0 0,0 -0.6657902513777446,-0.26493168136802564 l 7.790940940526096 -19.09894923871028" fill="#fdff18" stroke="none" /><path d="M 91.07499286063937 119.00905698771935 l -7.547963820076744 16.076141134309637 a38.75990066412056,38.75990066412056 0 0,0 -0.6014933626669474,-0.2887533667715921 l 7.823569850743933 -15.943833491038482" fill="#ffdd14" stroke="none" /><line stroke="#e1ed5e" stroke-width="0.3" x1="58.666819895761336" x2="56.23545636021788" y1="174.27360380694188" y2="178.64263932499728" /><path d="M 58.180547188652646 175.14741091055294 a86.0,86.0 0 0,1 -31.652253787137756,-30.449443065178592" fill="none" id="id32" stroke="none" /><text fill="#e1ed5e" style="font-size:6.75px; font-family:Arial;" text-anchor="middle"><textPath startOffset="22.20632615414155" xlink:href="#id32">August</textPath></text><path d="M 89.7882731507175 118.34994917583269 l -8.648690770151495 15.541253542335419 a38.78568001806107,38.78568001806107 0 0,0 -0.5805869685465234,-0.3296724331298218 l 8.914926505619226 -15.390077943410963" fill="#ffde14" stroke="none" /><path d="M 89.1626897886671 117.98757091392108 l -11.205049447686738 18.597937828105053 a42.71258677779241,42.71258677779241 0 0,0 -0.6264935786788719,-0.3848435252358117 l 11.523522226297919 -18.402305836040863" fill="#f0ff19" stroke="none" /><path d="M 88.24862548938628 117.40417183066458 l -8.086434897375634 11.976275824100005 a35.450661298515605,35.450661298515605 0 0,0 -0.5027969239680297,-0.34582830905233647 l 8.291388705966554 -11.835306725682567" fill="#ffb310" stroke="none" /><path d="M 87.95078237400918 117.19931262002967 l -8.517256280931212 12.157714964385594 a35.84431499633134,35.84431499633134 0 0,0 -0.502285826447459,-0.3583676006544318 l 8.725269435227558 -12.009303101886942" fill="#ffb811" stroke="none" /><path d="M 87.07902340077011 116.55440617244103 l -11.885837498827824 15.228181874963994 a40.317625533836285,40.317625533836285 0 0,0 -0.5434096104180803,-0.4317174595428843 l 12.146204601963262 -15.02133050141598" fill="#fff116" stroke="none" /><path d="M 86.79598089348748 116.32954008644616 l -10.055603435601386 12.435863510229982 a36.99268150433654,36.99268150433654 0 0,0 -0.4917029730044155,-0.40463807181465683 l 10.26817653715049 -12.260930319558144" fill="#ffc712" stroke="none" /><path d="M 86.24171649860922 115.8653595955263 l -12.628304259855557 14.562324445783661 a40.275252572761644,40.275252572761644 0 0,0 -0.5198531046888415,-0.4587099226038415 l 12.877099717450987 -14.34279138140753" fill="#fff016" stroke="none" /><path d="M 85.44109423537348 115.13401014063109 l -18.684301119746674 19.42236643250262 a47.95053665832596,47.95053665832596 0 0,0 -0.5899058775849875,-0.5773470599459651 l 19.015856949707455 -19.097869269634085" fill="#b2ff20" stroke="none" /><path d="M 85.18274418774928 114.88116024355367 l -13.706721264021015 13.765836139170899 a40.4260766090343,40.4260766090343 0 0,0 -0.4888848165279751,-0.4952377380352367 l 13.941646705604523 -13.527857907154997" fill="#fff216" stroke="none" /><path d="M 84.9287848128048 114.62390073753433 l -13.255611954124475 12.862184702736348 a39.47016631234361,39.47016631234361 0 0,0 -0.4689308529006049,-0.4916721245054396 l 13.47504935840404 -12.63210546164841" fill="#ffe615" stroke="none" /><path d="M 84.43433777217949 114.09645910891817 l -13.081885880572758 11.847120070062612 a38.64907907361767,38.64907907361767 0 0,0 -0.44233162498026696,-0.49696426979069547 l 13.283876355201363 -11.620181630531052" fill="#ffdc14" stroke="none" /><path d="M 83.95833913139862 113.55231037782056 l -12.180524271794804 10.290346295690776 a36.9454193554456,36.9454193554456 0 0,0 -0.40623071975157876,-0.48933107118707414 l 12.355850991439919 -10.07915396738994" fill="#ffc612" stroke="none" /><path d="M 83.50135304334701 112.99209946851258 l -11.591662915392506 9.128023528106306 a35.754235414746105,35.754235414746105 0 0,0 -0.3765996728248641,-0.4868058432729136 l 11.747069405435438 -8.92713969072014" fill="#ffb711" stroke="none" /><path d="M 82.85270091963577 112.12312394758628 l -15.906649908383143 11.245986176972584 a40.48059846104641,40.48059846104641 0 0,0 -0.3973635163949537,-0.5724317821384145 l 16.09787433194023 -10.970513132647156" fill="#fff316" stroke="none" /><path d="M 82.6465618267979 111.8261652097733 l -13.058786257607201 8.899410144559448 a36.80289212274001,36.80289212274001 0 0,0 -0.35225081088450644,-0.5265671682547024 l 13.210040173902438 -8.673306062098924" fill="#ffc412" stroke="none" /><path d="M 82.44556493220864 111.52570212397912 l -14.363316324951816 9.430511710264318 a38.182532030177036,38.182532030177036 0 0,0 -0.3559978131170877,-0.5525165116322978 l 14.52351900144595 -9.181873598710572" fill="#ffd614" stroke="none" /><line stroke="#e1ed5e" stroke-width="0.3" x1="26.63291911575756" x2="22.317208475507996" y1="142.92168965132927" y2="145.44649492493687" /><path d="M 25.769776987707644 143.4266507060508 a86.0,86.0 0 0,1 -11.730757126820373,-40.83630448921669" fill="none" id="id33" stroke="none" /><text fill="#e1ed5e" style="font-size:6.75px; font-family:Arial;" text-anchor="middle"><textPath startOffset="21.46611528233685" xlink:href="#id33">September</textPath></text><path d="M 81.87401531095188 110.60418214915194 l -19.861922925076193 11.619752093092226 a44.01118469324403,44.01118469324403 0 0,0 -0.3769201768594757,-0.6571920990507613 l 20.058995098088047 -11.276140148183158" fill="#e0ff1b" stroke="none" /><path d="M 81.69416730710424 110.29060199501025 l -13.970496772679423 7.853498082936826 a37.02660950463755,37.02660950463755 0 0,0 -0.3075387702683564,-0.5582721987114116 l 14.103611952399296 -7.611855365827592" fill="#ffc712" stroke="none" /><path d="M 81.35079622478065 109.6543875284942 l -15.617475769816112 8.08491156598451 a38.58611226083194,38.58611226083194 0 0,0 -0.30027589492579043,-0.592472827870126 l 15.754330334528168 -7.814884526411701" fill="#ffdb14" stroke="none" /><path d="M 81.18737489456691 109.33194174019688 l -13.12013632995037 6.508201123891943 a35.64563618234155,35.64563618234155 0 0,0 -0.2679308374894836,-0.552016883720996 l 13.230220424054574 -6.2813952842056615" fill="#ffb510" stroke="none" /><path d="M 80.87730276802145 108.67885076344099 l -17.507073417809863 7.945598659779438 a40.22576806577239,40.22576806577239 0 0,0 -0.28073547302717733,-0.63298437967588 l 17.64124997556832 -7.6430659436108614" fill="#fff016" stroke="none" /><path d="M 80.45479744820244 107.68017299344265 l -16.94531333590824 6.658561736721264 a39.20659464188287,39.20659464188287 0 0,0 -0.2414112840406634,-0.6302486845630975 l 17.057418899542412 -6.365889485325009" fill="#ffe315" stroke="none" /><path d="M 80.32549172779594 107.34259656027581 l -8.460208825401466 3.157380065674638 a30.03018173950671,30.03018173950671 0 0,0 -0.1765713753539527,-0.48584859058590846 l 8.513304461760642 -3.0112836780826124" fill="#ff6a09" stroke="none" /><path d="M 80.20201598880116 107.00284435728193 l -20.395614725287754 7.214235318681263 a42.633915301111884,42.633915301111884 0 0,0 -0.2387685405809784,-0.6939731440047114 l 20.51677409681196 -6.862089471587255" fill="#f1ff19" stroke="none" /><path d="M 79.86692584326677 105.97154293290107 l -13.781665567779788 4.087692072467639 a35.375101123172726,35.375101123172726 0 0,0 -0.16812836014244228,-0.5852768780245398 l 13.849986564808335 -3.849857718938503" fill="#ffb210" stroke="none" /><path d="M 79.76711848015287 105.62410040840567 l -21.03491868355035 5.847041344204418 a42.83244595789513,42.83244595789513 0 0,0 -0.19134257858557668,-0.71205691610333 l 21.132449338477702 -5.484093494925549" fill="#eeff19" stroke="none" /><path d="M 79.58551787078972 104.9243191809786 l -29.842828874434804 7.1985962568586706 a51.69876582695238,51.69876582695238 0 0,0 -0.20122989813256392,-0.8668931344793519 l 29.962319338497924 -6.683834465030744" fill="#89ff24" stroke="none" /><path d="M 79.35854240842038 103.8639653848113 l -17.147364790039955 3.209890759675561 a38.445214757398446,38.445214757398446 0 0,0 -0.11616598339956453,-0.6515205264853737 l 17.20007721577871 -2.9142514824569736" fill="#ffd914" stroke="none" /><path d="M 79.29508885075956 103.50808413554451 l -11.313241670411646 1.9168304244091439 a32.47447933324554,32.47447933324554 0 0,0 -0.08863715159105498,-0.5519436275682768 l 11.34456057636399 -1.7218075671476534" fill="#ff8b0c" stroke="none" /><path d="M 79.23777060512086 103.15116336523772 l -14.308870466663004 2.1717122740008588 a35.472736722292254,35.472736722292254 0 0,0 -0.08642839225878192,-0.604479974158067 l 14.344132909938384 -1.9250868278623912" fill="#ffb310" stroke="none" /><path d="M 79.10278846688536 102.07522291339032 l -56.15479355823216 5.576519819598022 a77.43100577577934,77.43100577577934 0 0,0 -0.12029608686223392,-1.3274572944135252 l 56.242464241371465 -4.609081136635931" fill="#45ffed" stroke="none" /><line stroke="#e1ed5e" stroke-width="0.3" x1="15.007084014347285" x2="10.007500721073583" y1="101.09737516637583" y2="101.16192664675087" /><path d="M 14.007167355692545 101.11028546245083 a86.0,86.0 0 0,1 10.666146001902534,-42.60595125391555" fill="none" id="id34" stroke="none" /><text fill="#e1ed5e" style="font-size:6.75px; font-family:Arial;" text-anchor="middle"><textPath startOffset="22.20632615414155" xlink:href="#id34">October</textPath></text><path d="M 79.00486145842228 99.54816195383935 l -1.5945431095146385 -0.034316289063548035 a22.594912328560948,22.594912328560948 0 0,0 0.011715252818156377,-0.3887722066963859 l 1.5937161622408371 0.06175864318492833" fill="#ff0000" stroke="none" /><path d="M 79.03285615573316 98.82574320788736 l -8.0793896568832 -0.4524830969437881 a29.092050307602584,29.092050307602584 0 0,0 0.032305210459198666,-0.4997473071791911 l 8.070403855419588 0.5914894683759909" fill="#ff5d08" stroke="none" /><path d="M 79.08570108090925 98.10471618934814 l -14.719107261165165 -1.33386664345081 a35.7794221398604,35.7794221398604 0 0,0 0.06086399048879609,-0.6128920781411161 l 14.69396614499414 1.5870342522963563" fill="#ffb711" stroke="none" /><path d="M 79.16333360222342 97.38593545837743 l -11.386409274919924 -1.4284822808866664 a32.47566459089798,32.47566459089798 0 0,0 0.07435999460886714,-0.5540683310561411 l 11.360133281253223 1.6242689540074668" fill="#ff8b0c" stroke="none" /><path d="M 79.26566170972629 96.67025291283419 l -15.036861766072278 -2.414783918577281 a36.22952373337347,36.22952373337347 0 0,0 0.10418254744130112,-0.6148912924344432 l 14.993067357110753 2.673260999327552" fill="#ffbd11" stroke="none" /><path d="M 79.32604984820605 96.31383870115002 l -19.38758961448616 -3.4568034647555463 a40.69335220965891,40.69335220965891 0 0,0 0.1288899459003093,-0.6885352448394605 l 19.32521394467599 3.7900167870575796" fill="#fff517" stroke="none" /><path d="M 79.46518482838121 95.60439243477599 l -10.900560845538607 -2.3333342578148426 a32.147496378379394,32.147496378379394 0 0,0 0.12048516232429175,-0.5401113579336131 l 10.858781296212278 2.520623785298415" fill="#ff870c" stroke="none" /><path d="M 79.54389044137918 95.25157060432595 l -8.974395025633155 -2.0832055590036895 a30.21300773239516,30.21300773239516 0 0,0 0.12195581243683278,-0.5055855768167856 l 8.937206412935508 2.237376367479872" fill="#ff6d0a" stroke="none" /><path d="M 79.71946130924805 94.55025226153421 l -5.482018132072535 -1.4731174735074566 a26.676495211935357,26.676495211935357 0 0,0 0.12298274530659412,-0.44243436889122784 l 5.45584861619958 1.567263145817627" fill="#ff3b05" stroke="none" /><path d="M 79.91906864156998 93.8553929516997 l -30.188975097147587 -9.237588927120276 a52.570670987526576,52.570670987526576 0 0,0 0.2722272468818809,-0.8630347654191194 l 30.025492366497502 9.75587385896581" fill="#7fff26" stroke="none" /><path d="M 80.2630227832202 92.82701384747504 l -11.43157640388658 -4.154564214468298 a33.163114029311615,33.163114029311615 0 0,0 0.19960311639534709,-0.534837115513595 l 11.358368698989606 4.350724467011235" fill="#ff950d" stroke="none" /><path d="M 80.52162464483688 92.15188598940014 l -11.148358517070596 -4.491831945820884 a33.019253381747035,33.019253381747035 0 0,0 0.21694956580431432,-0.525360581880342 l 11.069387264380081 4.683067098154538" fill="#ff930d" stroke="none" /><path d="M 80.65960295795068 91.81776055985345 l -10.52086416049339 -4.451006331010239 a32.42366141139729,32.42366141139729 0 0,0 0.2218848269396747,-0.5121407726569025 l 10.442688623711035 4.6314462482537415" fill="#ff8b0c" stroke="none" /><path d="M 80.803312248108 91.48605970444005 l -21.77220333014121 -9.656209532154525 a44.81745621131451,44.81745621131451 0 0,0 0.3188392436936587,-0.7025200097356648 l 21.6027617694842 10.029551550732261" fill="#d7ff1c" stroke="none" /><path d="M 81.26839172434947 90.50648371742162 l -11.161417312368714 -5.656807222974275 a33.51306135119372,33.51306135119372 0 0,0 0.26521688869022664,-0.5123146121093373 l 11.062390990518374 5.8480945573439485" fill="#ff990e" stroke="none" /><path d="M 81.6062741919709 89.86733742301443 l -3.162746355285345 -1.7422811435358223 a24.610887438150243,24.610887438150243 0 0,0 0.2076014595562106,-0.36929983175714315 l 3.1322872544367035 1.79646448522775" fill="#ff1d03" stroke="none" /><line stroke="#e1ed5e" stroke-width="0.3" x1="26.266209847984243" x2="21.928928074336255" y1="57.711370442889674" y2="55.22380399835377" /><path d="M 25.398753493254645 57.213857153982495 a86.0,86.0 0 0,1 29.58750427330803,-30.492523968695096" fill="none" id="id35" stroke="none" /><text fill="#e1ed5e" style="font-size:6.75px; font-family:Arial;" text-anchor="middle"><textPath startOffset="21.46611528233685" xlink:href="#id35">November</textPath></text><path d="M 81.96595687620814 89.24020034530311 l -27.095214213682148 -16.16604077849272 a52.551410550674476,52.551410550674476 0 0,0 0.4701704676307976,-0.7728366257844781 l 26.812927947765136 16.630045177484273" fill="#7fff26" stroke="none" /><path d="M 82.54541684631803 88.32363383020206 l -12.087807007827088 -8.086223519091343 a35.54311139540572,35.54311139540572 0 0,0 0.34455751876739055,-0.505595642626448 l 11.946825023390957 8.293097184988206" fill="#ffb410" stroke="none" /><path d="M 83.39014120810768 87.1503855733568 l -49.82957637567698 -38.54884327992962 a84.0,84.0 0 0,0 0.8945836776241158,-1.1360304241878092 l 49.15863861745889 39.40086609807048" fill="#4dd2ff" stroke="none" /><path d="M 84.07557802195018 86.31012108654704 l -11.388989131085255 -9.790866027420044 a36.01899234285929,36.01899234285929 0 0,0 0.4082292020632316,-0.466676547511301 l 11.21876806544418 9.985458131134289" fill="#ffba11" stroke="none" /><path d="M 84.5562425177563 85.77008943001954 l -10.639683447837593 -9.803426668005043 a35.46755122006284,35.46755122006284 0 0,0 0.41755893672791233,-0.44542276024641886 l 10.469357189139224 9.985118845129513" fill="#ffb310" stroke="none" /><path d="M 85.05521093208273 85.24692304244772 l -12.839597638507891 -12.674890973975575 a39.04184382819408,39.04184382819408 0 0,0 0.4762439373448599,-0.47419879452807623 l 12.619517900995717 12.894025619153762" fill="#ffe115" stroke="none" /><path d="M 85.31137513191541 84.99185889309783 l -11.275750390240539 -11.5210276293893 a37.12068933079976,37.12068933079976 0 0,0 0.46050293234908196,-0.44300345606381697 l 11.07576421427903 11.713414172215431" fill="#ffc812" stroke="none" /><line stroke="#e1ed5e" stroke-width="0.3" x1="56.762969772571076" x2="54.21961505331055" y1="26.818313649435495" y2="22.513508569990535" /><path d="M 56.25429882871897 25.957352633546506 a86.0,86.0 0 0,1 42.265352541879196,-11.944610805530505" fill="none" id="id36" stroke="none" /><text fill="#e1ed5e" style="font-size:6.75px; font-family:Arial;" text-anchor="middle"><textPath startOffset="22.20632615414155" xlink:href="#id36">December</textPath></text></svg>