<?xml version="1.0" encoding="utf-8" ?>
<svg baseProfile="full" height="200mm" version="1.1" viewBox="0,0,200,200" width="200mm" xmlns="http://www.w3.org/2000/svg" xmlns:ev="http://www.w3.org/2001/xml-events" xmlns:xlink="http://www.w3.org/1999/xlink"><defs /><rect fill="#1a1a1a" height="200" width="200" x="0" y="0" /><text alignment-baseline="middle" fill="#e1ed5e" style="dominant-baseline: central; font-size:9.0px; font-family:Arial;" text-anchor="middle" x="100.0" y="100.0">2026</text><line stroke="#e1ed5e" stroke-width="0.3" x1="100.0" x2="100.0" y1="15.0" y2="10.0" /><path d="M 100.0 14.0 a86.0,86.0 0 0,1 42.46469731375804,11.215312516191453" fill="none" id="id37" stroke="none" /><text fill="#e1ed5e" style="font-size:6.75px; font-family:Arial;" text-anchor="middle"><textPath startOffset="22.20632615414155" xlink:href="#id37">January</textPath></text><path d="M 103.95276090670814 79.375362276772 l 3.816629820380989 -19.914335631947477 a41.27677062176505,41.27677062176505 0 0,0 0.6966606674797173,0.1397435760531431 l -4.158856897327832 19.845688099817124" fill="#ff6e0a" stroke="none" /><path d="M 104.307194497241 79.44645832069477 l 4.319032720995131 -20.6100326098855 a42.05771801087597,42.05771801087597 0 0,0 0.707285196240003,0.1545851491109437 l -4.673160641388662 20.532633962678688" fill="#ff7c0b" stroke="none" /><path d="M 104.66035177308747 79.52364482259891 l 5.495325104587508 -24.14500753068164 a45.76247133591037,45.76247133591037 0 0,0 0.76657873533475,0.18142441948813628 l -5.910127526884782 24.046837199052632" fill="#ffb911" stroke="none" /><path d="M 108.09893153111575 80.62456947434976 l 9.908071418999034 -23.703515542074154 a46.69098145842888,46.69098145842888 0 0,0 0.7388653096831976,0.3163435657993258 l -10.314620486472547 23.529452448312036" fill="#ffc912" stroke="none" /><line stroke="#e1ed5e" stroke-width="0.3" x1="143.23703022742887" x2="145.7803849466894" y1="26.81831364943548" y2="22.513508569990506" /><path d="M 143.74570117128098 25.957352633546492 a86.0,86.0 0 0,1 28.547481713284135,27.462654790039103" fill="none" id="id38" stroke="none" /><text fill="#e1ed5e" style="font-size:6.75px; font-family:Arial;" text-anchor="middle"><textPath startOffset="19.985693538727396" xlink:href="#id38">February</textPath></text><path d="M 116.60985879189232 87.15038557335679 l 19.33209962055763 -14.955577244454124 a45.44175456987486,45.44175456987486 0 0,0 0.4732954782315463,0.6228013702803619 l -19.58667103901329 14.620591098292728" fill="#ffb410" stroke="none" /><path d="M 116.82858285166822 87.43820079747576 l 19.671348701531027 -14.683799260433457 a45.54742186988142,45.54742186988142 0 0,0 0.46358033129562726,0.6323230509051807 l -19.92119164534028 14.343013765856782" fill="#ffb610" stroke="none" /><path d="M 117.45458315368197 88.32363383020206 l 16.859974589785164 -11.278598588720403 a41.28461311668742,41.28461311668742 0 0,0 0.3900479119189109,0.5940697295015865 l -17.051619137061998 10.986710795241143" fill="#ff6e0a" stroke="none" /><line stroke="#e1ed5e" stroke-width="0.3" x1="172.23445277983987" x2="176.4835382374775" y1="55.19839476539836" y2="52.563006222186495" /><path d="M 173.08426987136738 54.67131705675599 a86.0,86.0 0 0,1 12.851231095245387,41.99856678651699" fill="none" id="id39" stroke="none" /><text fill="#e1ed5e" style="font-size:6.75px; font-family:Arial;" text-anchor="middle"><textPath startOffset="22.20632615414155" xlink:href="#id39">March</textPath></text><path d="M 118.21658344932153 89.55222093294921 l 26.811247008653368 -15.377086819700526 a51.90789163336173,51.90789163336173 0 0,0 0.43786125521288,0.778906315151906 l -27.07196590515868 14.913296994613825" fill="#e4ff1a" stroke="none" /><path d="M 118.56541770881063 90.18545643968196 l 24.126041901684104 -12.754148217724449 a48.28981851536395,48.28981851536395 0 0,0 0.3821577291268306,0.7382070943109184 l -24.34200906397105 12.336968401153186" fill="#ffe215" stroke="none" /><path d="M 118.73160827565052 90.50648371742162 l 18.16013652084762 -9.203884109546706 a41.35932319989517,41.35932319989517 0 0,0 0.31637910205176034,0.6378009640218563 l -18.315875635852787 8.889923557025899" fill="#ff700a" stroke="none" /><path d="M 118.89224826269711 90.83032412892265 l 12.70297295718939 -6.165605225847176 a35.120205726266136,35.120205726266136 0 0,0 0.2592904823071142,0.5461318830560348 l -12.80722163333826 5.9460309271506" fill="#ff0000" stroke="none" /><path d="M 119.34039704204932 91.81776055985345 l 34.85167930970851 -14.74451555380375 a58.84230819629168,58.84230819629168 0 0,0 0.3866172583165146,0.9362243572192895 l -35.10031825491122 14.142416626131157" fill="#81ff25" stroke="none" /><path d="M 119.61058180528143 92.48833698450437 l 14.066156519607533 -5.387919070817817 a36.062749787066764,36.062749787066764 0 0,0 0.21705552852853474,0.5816009032371358 l -14.156816636637693 5.144995030551348" fill="#ff1101" stroke="none" /><path d="M 119.97218684219823 93.5106431181261 l 50.504914463401946 -16.41004146571748 a74.10400969665204,74.10400969665204 0 0,0 0.3837335564427897,1.2165402385740864 l -50.77990350361294 15.538251060716973" fill="#3dffb0" stroke="none" /><path d="M 120.6074358757038 95.95851677861258 l 20.294672164729096 -3.9801447172772018 a41.68127825460263,41.68127825460263 0 0,0 0.1320190499817437,0.7052510439639659 l -20.3601769386207 3.6302155958506734" fill="#ff750a" stroke="none" /><path d="M 120.78858239683441 97.02765380044208 l 23.4840973016667 -3.357750231939167 a44.722927995806856,44.722927995806856 0 0,0 0.10240272913746196,0.763019275717158 l -23.538416029862 2.9530126141573447" fill="#ffa80f" stroke="none" /><path d="M 120.94382443527127 98.46500227214037 l 62.831473305813795 -4.6049931835789 a84.0,84.0 0 0,0 0.09327763598233796,1.442963742987859 l -62.90143153280055 3.5227703763380056" fill="#4dd2ff" stroke="none" /><line stroke="#e1ed5e" stroke-width="0.3" x1="184.98032266829074" x2="189.97916517819016" y1="98.17113171792111" y2="98.06355123074" /><path d="M 185.9800911702706 98.14961562048488 a86.0,86.0 0 0,1 -9.607161424134198,41.387399972396054" fill="none" id="id40" stroke="none" /><text fill="#e1ed5e" style="font-size:6.75px; font-family:Arial;" text-anchor="middle"><textPath startOffset="21.466115282336823" xlink:href="#id40">April</textPath></text><path d="M 120.99513854157772 99.54816195383933 l 25.024972641781208 -0.5385644262977498 a46.030767214833254,46.030767214833254 0 0,0 0.010229774426558055,0.7923073029438762 l -25.03053542332548 0.1077208652934109" fill="#ffbe11" stroke="none" /><line stroke="#e1ed5e" stroke-width="0.3" x1="174.80103733775053" x2="179.2010983576182" y1="140.37084112569926" y2="142.7455964860345" /><path d="M 175.68104954172406 140.8457921977663 a86.0,86.0 0 0,1 -30.038265399797805,32.042727171017184" fill="none" id="id41" stroke="none" /><text fill="#e1ed5e" style="font-size:6.75px; font-family:Arial;" text-anchor="middle"><textPath startOffset="22.206326154141568" xlink:href="#id41">May</textPath></text><line stroke="#e1ed5e" stroke-width="0.3" x1="143.8653032363475" x2="146.44561519142675" y1="172.8068346515853" y2="177.08958963109032" /><path d="M 144.38136562736335 173.6633856474863 a86.0,86.0 0 0,1 -40.68145358897372,12.25698825130547" fill="none" id="id42" stroke="none" /><text fill="#e1ed5e" style="font-size:6.75px; font-family:Arial;" text-anchor="middle"><textPath startOffset="21.466115282336833" xlink:href="#id42">June</textPath></text><line stroke="#e1ed5e" stroke-width="0.3" x1="102.19456741930631" x2="102.32365962044197" y1="184.97166512339345" y2="189.96999836594603" /><path d="M 102.22038585953345 185.97133177190398 a86.0,86.0 0 0,1 -42.740103519485714,-10.115201625700543" fill="none" id="id43" stroke="none" /><text fill="#e1ed5e" style="font-size:6.75px; font-family:Arial;" text-anchor="middle"><textPath startOffset="22.20632615414155" xlink:href="#id43">July</textPath></text><line stroke="#e1ed5e" stroke-width="0.3" x1="58.666819895761336" x2="56.23545636021788" y1="174.27360380694188" y2="178.64263932499728" /><path d="M 58.180547188652646 175.14741091055294 a86.0,86.0 0 0,1 -31.652253787137756,-30.449443065178592" fill="none" id="id44" stroke="none" /><text fill="#e1ed5e" style="font-size:6.75px; font-family:Arial;" text-anchor="middle"><textPath startOffset="22.20632615414155" xlink:href="#id44">August</textPath></text><line stroke="#e1ed5e" stroke-width="0.3" x1="26.63291911575756" x2="22.317208475507996" y1="142.92168965132927" y2="145.44649492493687" /><path d="M 25.769776987707644 143.4266507060508 a86.0,86.0 0 0,1 -11.730757126820373,-40.83630448921669" fill="none" id="id45" stroke="none" /><text fill="#e1ed5e" style="font-size:6.75px; font-family:Arial;" text-anchor="middle"><textPath startOffset="21.46611528233685" xlink:href="#id45">September</textPath></text><line stroke="#e1ed5e" stroke-width="0.3" x1="15.007084014347285" x2="10.007500721073583" y1="101.09737516637583" y2="101.16192664675087" /><path d="M 14.007167355692545 101.11028546245083 a86.0,86.0 0 0,1 10.666146001902534,-42.60595125391555" fill="none" id="id46" stroke="none" /><text fill="#e1ed5e" style="font-size:6.75px; font-family:Arial;" text-anchor="middle"><textPath startOffset="22.20632615414155" xlink:href="#id46">October</textPath></text><line stroke="#e1ed5e" stroke-width="0.3" x1="26.266209847984243" x2="21.928928074336255" y1="57.711370442889674" y2="55.22380399835377" /><path d="M 25.398753493254645 57.213857153982495 a86.0,86.0 0 0,1 29.58750427330803,-30.492523968695096" fill="none" id="id47" stroke="none" /><text fill="#e1ed5e" style="font-size:6.75px; font-family:Arial;" text-anchor="middle"><textPath startOffset="21.46611528233685" xlink:href="#id47">November</textPath></text><line stroke="#e1ed5e" stroke-width="0.3" x1="56.762969772571076" x2="54.21961505331055" y1="26.818313649435495" y2="22.513508569990535" /><path d="M 56.25429882871897 25.957352633546506 a86.0,86.0 0 0,1 42.265352541879196,-11.944610805530505" fill="none" id="id48" stroke="none" /><text fill="#e1ed5e" style="font-size:6.75px; font-family:Arial;" text-anchor="middle"><textPath startOffset="22.20632615414155" xlink:href="#id48">December</textPath></text></svg>