<?xml version="1.0" encoding="utf-8" ?>
<svg baseProfile="full" height="200mm" version="1.1" viewBox="0,0,200,200" width="200mm" xmlns="http://www.w3.org/2000/svg" xmlns:ev="http://www.w3.org/2001/xml-events" xmlns:xlink="http://www.w3.org/1999/xlink"><defs /><rect fill="#1a1a1a" height="200" width="200" x="0" y="0" /><text alignment-baseline="middle" fill="#e1ed5e" style="dominant-baseline: central; font-size:9.0px; font-family:Arial;" text-anchor="middle" x="100.0" y="100.0">2026</text><line stroke="#e1ed5e" stroke-width="0.3" x1="100.0" x2="100.0" y1="15.0" y2="10.0" /><path d="M 100.0 14.0 a86.0,86.0 0 0,1 42.46469731375804,11.215312516191453" fill="none" id="id37" stroke="none" /><text fill="#e1ed5e" style="font-size:6.75px; font-family:Arial;" text-anchor="middle"><textPath startOffset="22.20632615414155" xlink:href="#id37">January</textPath></text><path d="M 103.95276090670814 79.375362276772 l 6.353937963740931 -33.153451906393876 a54.75683487764574,54.75683487764574 0 0,0 0.9241743615190342,0.18538068273972155 l -6.9236787347270905 33.03916726757694" fill="red" stroke="none" /><path d="M 104.307194497241 79.44645832069477 l 7.1903399763906926 -34.31165053906582 a56.05695867714508,56.05695867714508 0 0,0 0.9427106104123243,0.20604002607967453 l -7.7798933109565445 34.182797014890276" fill="red" stroke="none" /><path d="M 104.66035177308747 79.52364482259891 l 9.148635431887822 -40.19668849327762 a62.22464428095397,62.22464428095397 0 0,0 1.0423407592963088,0.24668838104617793 l -9.839199878146655 40.033254200090575" fill="red" stroke="none" /><path d="M 108.09893153111575 80.62456947434976 l 16.494990108930715 -39.461691168643036 a63.770431007684294,63.770431007684294 0 0,0 1.0091404760269336,0.432061286942362 l -17.171814342747965 39.171910353737886" fill="red" stroke="none" /><line stroke="#e1ed5e" stroke-width="0.3" x1="143.23703022742887" x2="145.7803849466894" y1="26.81831364943548" y2="22.513508569990506" /><path d="M 143.74570117128098 25.957352633546492 a86.0,86.0 0 0,1 28.547481713284135,27.462654790039103" fill="none" id="id38" stroke="none" /><text fill="#e1ed5e" style="font-size:6.75px; font-family:Arial;" text-anchor="middle"><textPath startOffset="19.985693538727396" xlink:href="#id38">February</textPath></text><path d="M 116.60985879189232 87.15038557335679 l 32.18414346655735 -24.89809452196523 a61.690713946804394,61.690713946804394 0 0,0 0.6425354002341885,0.8455012695551692 l -32.60795480701566 24.340408476529028" fill="red" stroke="none" /><path d="M 116.82858285166822 87.43820079747576 l 32.74892645998528 -24.44563763417475 a61.8666292177726,61.8666292177726 0 0,0 0.6296767476949936,0.8588783762110092 l -33.1648658201939 23.87829681429225" fill="red" stroke="none" /><path d="M 117.45458315368197 88.32363383020206 l 28.068541528884655 -18.776648279583938 a54.76989108916292,54.76989108916292 0 0,0 0.5174538415795205,0.7881177011931044 l -28.3875920058221 18.29071251441316" fill="red" stroke="none" /><line stroke="#e1ed5e" stroke-width="0.3" x1="172.23445277983987" x2="176.4835382374775" y1="55.19839476539836" y2="52.563006222186495" /><path d="M 173.08426987136738 54.67131705675599 a86.0,86.0 0 0,1 12.851231095245387,41.99856678651699" fill="none" id="id39" stroke="none" /><text fill="#e1ed5e" style="font-size:6.75px; font-family:Arial;" text-anchor="middle"><textPath startOffset="22.20632615414155" xlink:href="#id39">March</textPath></text><path d="M 118.21658344932153 89.55222093294921 l 44.63545280545768 -25.599825058664504 a72.45556034271192,72.45556034271192 0 0,0 0.6111880409803068,1.0872353267096724 l -45.06949848773043 24.827706222020037" fill="red" stroke="none" /><path d="M 118.56541770881063 90.18545643968196 l 40.165114451317855 -21.233148188232867 a66.43218023461915,66.43218023461915 0 0,0 0.5257334137905082,1.0155496178585672 l -40.52465729826848 20.538625848113956" fill="red" stroke="none" /><path d="M 118.73160827565052 90.50648371742162 l 30.233055417204007 -15.322656744238017 a54.89426868308964,54.89426868308964 0 0,0 0.41991498143731687,0.8465229790181409 l -30.492330411594732 14.799974176720927" fill="red" stroke="none" /><path d="M 118.89224826269711 90.83032412892265 l 21.147951445027203 -10.264519997393714 a44.50736525215286,44.50736525215286 0 0,0 0.32859534743040186,0.6921056039498662 l -21.321504986299363 9.898971977803306" fill="red" stroke="none" /><path d="M 119.34039704204932 91.81776055985345 l 58.02119112614798 -24.54671832043964 a84.0,84.0 0 0,0 0.5519132524552104,1.3365017181867875 l -58.435126065489385 23.54434203179955" fill="red" stroke="none" /><path d="M 119.61058180528143 92.48833698450437 l 23.41738395392365 -8.969825511192928 a46.07651572580865,46.07651572580865 0 0,0 0.27732667455118665,0.7430976096493079 l -23.568315216976465 8.565404764514287" fill="red" stroke="none" /><line stroke="#e1ed5e" stroke-width="0.3" x1="184.98032266829074" x2="189.97916517819016" y1="98.17113171792111" y2="98.06355123074" /><path d="M 185.9800911702706 98.14961562048488 a86.0,86.0 0 0,1 -9.607161424134198,41.387399972396054" fill="none" id="id40" stroke="none" /><text fill="#e1ed5e" style="font-size:6.75px; font-family:Arial;" text-anchor="middle"><textPath startOffset="21.466115282336823" xlink:href="#id40">April</textPath></text><line stroke="#e1ed5e" stroke-width="0.3" x1="174.80103733775053" x2="179.2010983576182" y1="140.37084112569926" y2="142.7455964860345" /><path d="M 175.68104954172406 140.8457921977663 a86.0,86.0 0 0,1 -30.038265399797805,32.042727171017184" fill="none" id="id41" stroke="none" /><text fill="#e1ed5e" style="font-size:6.75px; font-family:Arial;" text-anchor="middle"><textPath startOffset="22.206326154141568" xlink:href="#id41">May</textPath></text><line stroke="#e1ed5e" stroke-width="0.3" x1="143.8653032363475" x2="146.44561519142675" y1="172.8068346515853" y2="177.08958963109032" /><path d="M 144.38136562736335 173.6633856474863 a86.0,86.0 0 0,1 -40.68145358897372,12.25698825130547" fill="none" id="id42" stroke="none" /><text fill="#e1ed5e" style="font-size:6.75px; font-family:Arial;" text-anchor="middle"><textPath startOffset="21.466115282336833" xlink:href="#id42">June</textPath></text><line stroke="#e1ed5e" stroke-width="0.3" x1="102.19456741930631" x2="102.32365962044197" y1="184.97166512339345" y2="189.96999836594603" /><path d="M 102.22038585953345 185.97133177190398 a86.0,86.0 0 0,1 -42.740103519485714,-10.115201625700543" fill="none" id="id43" stroke="none" /><text fill="#e1ed5e" style="font-size:6.75px; font-family:Arial;" text-anchor="middle"><textPath startOffset="22.20632615414155" xlink:href="#id43">July</textPath></text><line stroke="#e1ed5e" stroke-width="0.3" x1="58.666819895761336" x2="56.23545636021788" y1="174.27360380694188" y2="178.64263932499728" /><path d="M 58.180547188652646 175.14741091055294 a86.0,86.0 0 0,1 -31.652253787137756,-30.449443065178592" fill="none" id="id44" stroke="none" /><text fill="#e1ed5e" style="font-size:6.75px; font-family:Arial;" text-anchor="middle"><textPath startOffset="22.20632615414155" xlink:href="#id44">August</textPath></text><line stroke="#e1ed5e" stroke-width="0.3" x1="26.63291911575756" x2="22.317208475507996" y1="142.92168965132927" y2="145.44649492493687" /><path d="M 25.769776987707644 143.4266507060508 a86.0,86.0 0 0,1 -11.730757126820373,-40.83630448921669" fill="none" id="id45" stroke="none" /><text fill="#e1ed5e" style="font-size:6.75px; font-family:Arial;" text-anchor="middle"><textPath startOffset="21.46611528233685" xlink:href="#id45">September</textPath></text><line stroke="#e1ed5e" stroke-width="0.3" x1="15.007084014347285" x2="10.007500721073583" y1="101.09737516637583" y2="101.16192664675087" /><path d="M 14.007167355692545 101.11028546245083 a86.0,86.0 0 0,1 10.666146001902534,-42.60595125391555" fill="none" id="id46" stroke="none" /><text fill="#e1ed5e" style="font-size:6.75px; font-family:Arial;" text-anchor="middle"><textPath startOffset="22.20632615414155" xlink:href="#id46">October</textPath></text><line stroke="#e1ed5e" stroke-width="0.3" x1="26.266209847984243" x2="21.928928074336255" y1="57.711370442889674" y2="55.22380399835377" /><path d="M 25.398753493254645 57.213857153982495 a86.0,86.0 0 0,1 29.58750427330803,-30.492523968695096" fill="none" id="id47" stroke="none" /><text fill="#e1ed5e" style="font-size:6.75px; font-family:Arial;" text-anchor="middle"><textPath startOffset="21.46611528233685" xlink:href="#id47">November</textPath></text><line stroke="#e1ed5e" stroke-width="0.3" x1="56.762969772571076" x2="54.21961505331055" y1="26.818313649435495" y2="22.513508569990535" /><path d="M 56.25429882871897 25.957352633546506 a86.0,86.0 0 0,1 42.265352541879196,-11.944610805530505" fill="none" id="id48" stroke="none" /><text fill="#e1ed5e" style="font-size:6.75px; font-family:Arial;" text-anchor="middle"><textPath startOffset="22.20632615414155" xlink:href="#id48">December</textPath></text></svg>