<?xml version="1.0" encoding="utf-8" ?>
<svg baseProfile="full" height="200mm" version="1.1" viewBox="0,0,200,200" width="200mm" xmlns="http://www.w3.org/2000/svg" xmlns:ev="http://www.w3.org/2001/xml-events" xmlns:xlink="http://www.w3.org/1999/xlink"><defs /><rect fill="#1a1a1a" height="200" width="200" x="0" y="0" /><text alignment-baseline="middle" fill="#e1ed5e" style="dominant-baseline: central; font-size:9.0px; font-family:Arial;" text-anchor="middle" x="100.0" y="100.0">2026</text><line stroke="#e1ed5e" stroke-width="0.3" x1="100.0" x2="100.0" y1="15.0" y2="10.0" /><path d="M 100.0 14.0 a86.0,86.0 0 0,1 42.46469731375804,11.215312516191453" fill="none" id="id37" stroke="none" /><text fill="#e1ed5e" style="font-size:6.75px; font-family:Arial;" text-anchor="middle"><textPath startOffset="22.20632615414155" xlink:href="#id37">January</textPath></text><path d="M 103.95276090670814 79.375362276772 l 2.7448737756996695 -14.322148127836394 a35.58280696711752,35.58280696711752 0 0,0 0.6005591445044596,0.12046651462049547 l -2.9909993296712547 14.27277765713869" fill="#ff750a" stroke="none" /><path d="M 104.307194497241 79.44645832069477 l 3.1061958351163597 -14.822484938175782 a36.14445483695409,36.14445483695409 0 0,0 0.6078417717702165,0.13285066819506086 l -3.360880331040104 14.76682077188485" fill="#ff7d0b" stroke="none" /><path d="M 104.66035177308747 79.52364482259891 l 3.9521710195673534 -17.364795933608065 a38.80886839705879,38.80886839705879 0 0,0 0.6500971732320943,0.15385699710677136 l -4.250491879761971 17.294193024360425" fill="#ffa40f" stroke="none" /><path d="M 108.09893153111575 80.62456947434976 l 7.125764531980476 -17.047280261734702 a39.47664159113773,39.47664159113773 0 0,0 0.6247013899345447,0.2674645333348 l -7.418149679705336 16.92209620043711" fill="#ffae10" stroke="none" /><line stroke="#e1ed5e" stroke-width="0.3" x1="143.23703022742887" x2="145.7803849466894" y1="26.81831364943548" y2="22.513508569990506" /><path d="M 143.74570117128098 25.957352633546492 a86.0,86.0 0 0,1 28.547481713284135,27.462654790039103" fill="none" id="id38" stroke="none" /><text fill="#e1ed5e" style="font-size:6.75px; font-family:Arial;" text-anchor="middle"><textPath startOffset="19.985693538727396" xlink:href="#id38">February</textPath></text><path d="M 116.60985879189232 87.15038557335679 l 13.903411065520926 -10.755869369237123 a38.5782127972369,38.5782127972369 0 0,0 0.40180872961474823,0.5287331886831389 l -14.086495735359788 10.514951404672951" fill="#ffa10e" stroke="none" /><path d="M 116.82858285166822 87.43820079747576 l 14.147394880985937 -10.560409946589635 a38.65420743501606,38.65420743501606 0 0,0 0.39342139583412816,0.5366263417818935 l -14.327078889333691 10.315321161136248" fill="#ffa20f" stroke="none" /><path d="M 117.45458315368197 88.32363383020206 l 12.125488792058023 -8.11143101369249 a35.5884471941402,35.5884471941402 0 0,0 0.33623179360496347,0.5121040891977906 l -12.26331722102091 7.901508860517025" fill="#ff750a" stroke="none" /><line stroke="#e1ed5e" stroke-width="0.3" x1="172.23445277983987" x2="176.4835382374775" y1="55.19839476539836" y2="52.563006222186495" /><path d="M 173.08426987136738 54.67131705675599 a86.0,86.0 0 0,1 12.851231095245387,41.99856678651699" fill="none" id="id39" stroke="none" /><text fill="#e1ed5e" style="font-size:6.75px; font-family:Arial;" text-anchor="middle"><textPath startOffset="22.20632615414155" xlink:href="#id39">March</textPath></text><path d="M 118.21658344932153 89.55222093294921 l 19.28232295803645 -11.05901393230734 a43.228579977429675,43.228579977429675 0 0,0 0.36464822003717123,0.6486684949043183 l -19.469828819366054 10.72546192746823" fill="#ffe315" stroke="none" /><path d="M 118.56541770881063 90.18545643968196 l 17.351156083760173 -9.17262837157308 a40.62650576862818,40.62650576862818 0 0,0 0.3215115248767676,0.6210579309989096 l -17.50647704179706 8.872597718313825" fill="#ffbe11" stroke="none" /><path d="M 118.73160827565052 90.50648371742162 l 13.060549449415701 -6.6193215784159465 a35.64217777788249,35.64217777788249 0 0,0 0.27264566555006514,0.5496370246849072 l -13.172555127919175 6.39352496523209" fill="#ff760a" stroke="none" /><path d="M 118.89224826269711 90.83032412892265 l 9.135823746231328 -4.434228335525441 a31.155080327293376,31.155080327293376 0 0,0 0.2300161869023207,0.4844727510574213 l -9.210798126975405 4.276313168827479" fill="#ff3104" stroke="none" /><path d="M 119.34039704204932 91.81776055985345 l 25.064904137536764 -10.604076366775274 a48.21572808168669,48.21572808168669 0 0,0 0.31679642029833005,0.767147659819062 l -25.243722244721294 10.17105413650291" fill="#d8ff1c" stroke="none" /><path d="M 119.61058180528143 92.48833698450437 l 10.116208794832373 -3.8749259056000502 a31.83294655920236,31.83294655920236 0 0,0 0.19159706569315021,0.5133848799896921 l -10.18141044902715 3.7002178885810246" fill="#ff3b05" stroke="none" /><path d="M 119.97218684219823 93.5106431181261 l 36.32252059507004 -11.801902358163643 a59.19175829483262,59.19175829483262 0 0,0 0.3065132914609925,0.9717308962414842 l -36.52028937029924 11.17492129549574" fill="#53ff2b" stroke="none" /><path d="M 120.6074358757038 95.95851677861258 l 14.595681539224088 -2.8624717020245884 a35.87372393986585,35.87372393986585 0 0,0 0.11362451326274892,0.6069866932804961 l -14.642791776396697 2.6108069312815294" fill="#ff790b" stroke="none" /><path d="M 120.78858239683441 97.02765380044208 l 16.88947733026139 -2.41485315337165 a38.06124146250097,38.06124146250097 0 0,0 0.0871493700163248,0.6493640330600947 l -16.92854269933555 2.123770778246891" fill="#ff990e" stroke="none" /><path d="M 120.94382443527127 98.46500227214037 l 45.18763188526524 -3.3118551239584657 a66.30883423528275,66.30883423528275 0 0,0 0.07363251550252253,1.1390624243012508 l -45.237944991772174 2.5335336354041793" fill="#35ff62" stroke="none" /><line stroke="#e1ed5e" stroke-width="0.3" x1="184.98032266829074" x2="189.97916517819016" y1="98.17113171792111" y2="98.06355123074" /><path d="M 185.9800911702706 98.14961562048488 a86.0,86.0 0 0,1 -9.607161424134198,41.387399972396054" fill="none" id="id40" stroke="none" /><text fill="#e1ed5e" style="font-size:6.75px; font-family:Arial;" text-anchor="middle"><textPath startOffset="21.466115282336823" xlink:href="#id40">April</textPath></text><path d="M 120.99513854157772 99.54816195383933 l 17.9976561455389 -0.38732898914515723 a39.001823532044924,39.001823532044924 0 0,0 0.008667677753341322,0.6713211941123075 l -18.001656830409956 0.07747153697238696" fill="#ffa70f" stroke="none" /><path d="M 120.99980553446 99.90962569577887 l 17.988743798647768 -0.07741596473106413 a38.988910380703544,38.988910380703544 0 0,0 -0.002888340645646886,0.6711486456090618 l -17.987411160712618 -0.2322421590816824" fill="#ffa70f" stroke="none" /><path d="M 120.81339534386255 102.79330883721812 l 10.522202059322204 1.4121559463850952 a31.61653995396406,31.61653995396406 0 0,0 -0.07703287001505288,0.5387677134684924 l -10.49633513829055 -1.593069131833997" fill="#ff3805" stroke="none" /><path d="M 120.70491114924044 103.5080841355445 l 62.114733447721314 10.524252406633499 a84.0,84.0 0 0,0 -0.25381423064324515,1.4235249970671267 l -61.924372774738885 -11.591896154433844" fill="#4dd2ff" stroke="none" /><path d="M 120.49622156327973 104.57218783832717 l 15.700614391495773 3.5024093564479646 a37.086521176767164,37.086521176767164 0 0,0 -0.1443538691711198,0.6218726902974239 l -15.6379999563941 -3.7721507040939533" fill="#ff8b0c" stroke="none" /><path d="M 120.41448212921028 104.9243191809786 l 14.152692966625507 3.4138694774105893 a35.558613361730806,35.558613361730806 0 0,0 -0.1486497110722112,0.5937817035995604 l -14.091831941258235 -3.6569790204075456" fill="#ff740a" stroke="none" /><path d="M 120.13307415673323 105.97154293290107 l 6.821559913338482 2.023299451178665 a28.115294816127186,28.115294816127186 0 0,0 -0.14161168926873186,0.4627951941277209 l -6.785721451563617 -2.1404216178584425" fill="#ff0000" stroke="none" /><path d="M 119.26925614724726 108.34839909993367 l 19.869237038426746 8.608340630298127 a42.65387052922481,42.65387052922481 0 0,0 -0.29768119032266266,0.6711924986384696 l -19.71811476337281 -8.949081465429284" fill="#ffdb14" stroke="none" /><path d="M 119.12269723197855 108.67885076344098 l 16.097628365039373 7.305920944660384 a38.677955759322046,38.677955759322046 0 0,0 -0.2803698397768976,0.6038916920075657 l -15.969483908422644 -7.581932703946781" fill="#ffa20f" stroke="none" /><path d="M 118.64920377521936 109.65438752849418 l 32.34026621205477 16.742026445156956 a57.416867907014,57.416867907014 0 0,0 -0.46192551516536423,0.8737889935173565 l -32.04728818866451 -17.296230453760444" fill="#68ff28" stroke="none" /><line stroke="#e1ed5e" stroke-width="0.3" x1="174.80103733775053" x2="179.2010983576182" y1="140.37084112569926" y2="142.7455964860345" /><path d="M 175.68104954172406 140.8457921977663 a86.0,86.0 0 0,1 -30.038265399797805,32.042727171017184" fill="none" id="id41" stroke="none" /><text fill="#e1ed5e" style="font-size:6.75px; font-family:Arial;" text-anchor="middle"><textPath startOffset="22.206326154141568" xlink:href="#id41">May</textPath></text><path d="M 118.48025628344425 109.97397251340804 l 15.478968722838525 8.354148676812644 a38.58949325128225,38.58949325128225 0 0,0 -0.3205199033493043,0.5818367258783286 l -15.33287241003771 -8.619355921088777" fill="#ffa10e" stroke="none" /><path d="M 117.75023020441432 111.22182372390056 l 20.841050497399998 13.175862634422064 a45.65669771068981,45.65669771068981 0 0,0 -0.4256837793341536,0.6606706787235372 l -20.611161854688795 -13.532654913067054" fill="#faff18" stroke="none" /><path d="M 117.55443506779139 111.5257021239791 l 15.704534075339389 10.311114031823676 a39.78700250441158,39.78700250441158 0 0,0 -0.380812568971552,0.5692631212846092 l -15.524718400957115 -10.579914067314093" fill="#ffb210" stroke="none" /><path d="M 117.14729908036423 112.12312394758627 l 14.108584264692142 9.974755497306866 a38.278538629900744,38.278538629900744 0 0,0 -0.38500956556981636,0.5347446126882656 l -13.934794906746722 -10.216133715446263" fill="#ff9d0e" stroke="none" /><path d="M 116.93607887273984 112.41649034213515 l 18.618670055195686 13.650062606630918 a44.086339765956495,44.086339765956495 0 0,0 -0.4539606793828678,0.6081545152273294 l -18.38094810911773 -13.968530001367562" fill="#ffef16" stroke="none" /><path d="M 116.498646956653 112.99209946851258 l 8.102645429998354 6.380545972115469 a31.313303537982005,31.313303537982005 0 0,0 -0.3371131925870048,0.42060054127525826 l -7.991614325356495 -6.519074346968978" fill="#ff3304" stroke="none" /><path d="M 116.27256486870786 113.27417163493432 l 11.865621943239505 9.679254837858338 a36.31277108547277,36.31277108547277 0 0,0 -0.3992744808850352,0.48095183335375336 l -11.697251462460926 -9.88206792832586" fill="#ff800b" stroke="none" /><path d="M 116.0416608686014 113.55231037782055 l 8.575399302686975 7.244665868185269 a32.225981326466425,32.225981326466425 0 0,0 -0.361633042191144,0.42066092778940034 l -8.449423750925051 -7.391203895136197" fill="#ff4106" stroke="none" /><path d="M 115.56566222782051 114.09645910891815 l 11.549624484404072 10.45948491524978 a36.581869285264965,36.581869285264965 0 0,0 -0.4267076325550773,0.46310685935758483 l -11.367870443853272 -10.6567430294087" fill="#ff840c" stroke="none" /><path d="M 115.32070863581623 114.36230785411682 l 6.572963763973079 6.161786072443401 a30.009520533583384,30.009520533583384 0 0,0 -0.3565323223517855,0.3738227145884065 l -6.465924890242329 -6.274015903614314" fill="#ff1e03" stroke="none" /><path d="M 115.07121518719521 114.62390073753431 l 15.59459647704788 15.13174804351606 a42.72927145889632,42.72927145889632 0 0,0 -0.516738051025412,0.5234529175277025 l -15.331817800966931 -15.397941455024426" fill="#ffdc14" stroke="none" /><path d="M 114.81725581225074 114.88116024355365 l 7.471481967230084 7.503705262296035 a31.589080953985267,31.589080953985267 0 0,0 -0.3886209794698564,0.3803474222850341 l -7.3412110353844335 -7.63120278750364" fill="#ff3705" stroke="none" /><path d="M 114.55890576462653 115.13401014063108 l 11.438858489058894 11.890715083222602 a37.499593592664404,37.499593592664404 0 0,0 -0.4690380696048101,0.44350477069154337 l -11.232484585063276 -12.085854490660068" fill="#ff910d" stroke="none" /><path d="M 114.0293411484842 115.62618273729858 l 8.307915298476857 9.253535233479177 a33.435810022829486,33.435810022829486 0 0,0 -0.43157295206907104,0.38081295207423677 l -8.147399993501198 -9.395171327325702" fill="#ff5407" stroke="none" /><path d="M 113.75828350139079 115.86535959552629 l 6.952965326736959 8.01780942751737 a31.61268085126434,31.61268085126434 0 0,0 -0.4141780895302152,0.3529715532994085 l -6.813921760629697 -8.136305371039725" fill="#ff3805" stroke="none" /><path d="M 113.48314897796784 116.09983520530334 l 23.975425215094905 28.628356444836953 a58.34171671170524,58.34171671170524 0 0,0 -0.7754721850581109,0.6381608144252582 l -23.479082901492102 -29.03681237811939" fill="#5dff2a" stroke="none" /><path d="M 112.92097659922987 116.55440617244103 l 6.4061652264184445 8.207604150619655 a31.411710656824933,31.411710656824933 0 0,0 -0.42910082744370676,0.3290162166858754 l -6.263935670481244 -8.316659709132903" fill="#ff3505" stroke="none" /><path d="M 112.63410532772338 116.77436683061366 l 6.299208092535505 8.363491085886116 a31.47033933245534,31.47033933245534 0 0,0 -0.43551207600187275,0.3221814222029255 l -6.154311046115067 -8.470682456828811" fill="#ff3605" stroke="none" /><path d="M 112.04921762599082 117.19931262002967 l 9.14211120045562 13.04964632762047 a36.933344484993555,36.933344484993555 0 0,0 -0.5238258277479396,0.36029218082394443 l -8.916128488084796 -13.205079297809508" fill="#ff890c" stroke="none" /><path d="M 111.7513745106137 117.40417183066458 l 6.684272388266202 9.899627069436002 a32.944961844830146,32.944961844830146 0 0,0 -0.47272145489970624,0.31329400359445664 l -6.512876234626532 -10.013219094121778" fill="#ff4c07" stroke="none" /><path d="M 111.45004920935366 117.60387380957326 l 14.807067861232941 22.7651208613143 a48.15695097902938,48.15695097902938 0 0,0 -0.6987761581544829,0.44599200558382696 l -14.413009901031527 -23.016627295721936" fill="#d9ff1c" stroke="none" /><path d="M 111.1453310114006 117.79835938074945 l 4.099434510697023 6.546526846497252 a28.7241424805219,28.7241424805219 0 0,0 -0.42131587371946255,0.25880662084665057 l -3.986139437045251 -6.616121934172281" fill="#ff0a01" stroke="none" /><line stroke="#e1ed5e" stroke-width="0.3" x1="143.8653032363475" x2="146.44561519142675" y1="172.8068346515853" y2="177.08958963109032" /><path d="M 144.38136562736335 173.6633856474863 a86.0,86.0 0 0,1 -40.68145358897372,12.25698825130547" fill="none" id="id42" stroke="none" /><text fill="#e1ed5e" style="font-size:6.75px; font-family:Arial;" text-anchor="middle"><textPath startOffset="21.466115282336833" xlink:href="#id42">June</textPath></text><path d="M 110.8373102113329 117.98757091392108 l 9.20733867968077 15.282173731269111 a38.841522342979516,38.841522342979516 0 0,0 -0.5756537948240085,0.34010640870053815 l -8.94291701382838 -15.4383987122634" fill="#ffa50f" stroke="none" /><path d="M 110.5260780823613 118.17145234162733 l 8.387909186109175 14.480273738107096 a37.73425672221293,37.73425672221293 0 0,0 -0.5648481014256985,0.32073549361941756 l -8.137412317762276 -14.622512397521142" fill="#ff950d" stroke="none" /><path d="M 110.21172684928248 118.3499491758327 l 7.228932852392289 12.990021413099807 a35.866005734466405,35.866005734466405 0 0,0 -0.5420500975956128,0.29556893220890906 l -7.0042599429280274 -13.112530997068488" fill="#ff790b" stroke="none" /><path d="M 109.57404056367764 118.69057910512821 l 9.62149900139124 18.783228146919107 a42.10409682154123,42.10409682154123 0 0,0 -0.6478940170679883,0.3248675102170532 l -9.29675107664049 -18.94606349804546" fill="#ffd313" stroke="none" /><path d="M 108.92500713936063 119.00905698771935 l 14.704306251027534 31.318181725363214 a55.59833997328314,55.59833997328314 0 0,0 -0.8698016220679575,0.3992832636158558 l -14.163036633192156 -31.566652059313142" fill="#7dff26" stroke="none" /><path d="M 108.59647513512805 119.15986991738527 l 4.719857780793651 10.519644352722029 a32.529959877583046,32.529959877583046 0 0,0 -0.5128570080800254,0.2248214408641184 l -4.538080098055873 -10.5993303468806" fill="#ff4606" stroke="none" /><path d="M 108.2653958097858 119.30500536409082 l 8.918486142164793 20.83039055555197 a43.65931520952948,43.65931520952948 0 0,0 -0.6934108419606984,0.28984578817685636 l -8.558603840706633 -20.980821386748797" fill="#ffe915" stroke="none" /><path d="M 107.93186726928326 119.44442032107085 l 3.5231647469613967 8.63679306203102 a30.32774807928359,30.32774807928359 0 0,0 -0.48506911385443474,0.19301901108828737 l -3.373974557065096 -8.696158917525375" fill="#ff2303" stroke="none" /><path d="M 107.59598834532513 119.57807347666477 l 6.457550215601055 16.643837095681924 a38.85265436999795,38.85265436999795 0 0,0 -0.6255828307145119,0.23654189758126154 l -6.170097164126268 -16.752527243369816" fill="#ffa50f" stroke="none" /><path d="M 107.2578585660854 119.70592522655815 l 2.6631464700871734 7.230750603509705 a28.705589102157845,28.705589102157845 0 0,0 -0.46514049866974133,0.16678283391670484 l -2.5382864107876975 -7.27552097846637" fill="#ff0a01" stroke="none" /><path d="M 106.91757812671514 119.82793768551818 l 10.800588360123742 30.957856788696493 a53.78782709900554,53.78782709900554 0 0,0 -0.8768191055013727,0.29746464669136663 l -10.266099521685144 -31.139184422285982" fill="#92ff23" stroke="none" /><line stroke="#e1ed5e" stroke-width="0.3" x1="102.19456741930631" x2="102.32365962044197" y1="184.97166512339345" y2="189.96999836594603" /><path d="M 102.22038585953345 185.97133177190398 a86.0,86.0 0 0,1 -42.740103519485714,-10.115201625700543" fill="none" id="id43" stroke="none" /><text fill="#e1ed5e" style="font-size:6.75px; font-family:Arial;" text-anchor="middle"><textPath startOffset="22.20632615414155" xlink:href="#id43">July</textPath></text><line stroke="#e1ed5e" stroke-width="0.3" x1="58.666819895761336" x2="56.23545636021788" y1="174.27360380694188" y2="178.64263932499728" /><path d="M 58.180547188652646 175.14741091055294 a86.0,86.0 0 0,1 -31.652253787137756,-30.449443065178592" fill="none" id="id44" stroke="none" /><text fill="#e1ed5e" style="font-size:6.75px; font-family:Arial;" text-anchor="middle"><textPath startOffset="22.20632615414155" xlink:href="#id44">August</textPath></text><line stroke="#e1ed5e" stroke-width="0.3" x1="26.63291911575756" x2="22.317208475507996" y1="142.92168965132927" y2="145.44649492493687" /><path d="M 25.769776987707644 143.4266507060508 a86.0,86.0 0 0,1 -11.730757126820373,-40.83630448921669" fill="none" id="id45" stroke="none" /><text fill="#e1ed5e" style="font-size:6.75px; font-family:Arial;" text-anchor="middle"><textPath startOffset="21.46611528233685" xlink:href="#id45">September</textPath></text><line stroke="#e1ed5e" stroke-width="0.3" x1="15.007084014347285" x2="10.007500721073583" y1="101.09737516637583" y2="101.16192664675087" /><path d="M 14.007167355692545 101.11028546245083 a86.0,86.0 0 0,1 10.666146001902534,-42.60595125391555" fill="none" id="id46" stroke="none" /><text fill="#e1ed5e" style="font-size:6.75px; font-family:Arial;" text-anchor="middle"><textPath startOffset="22.20632615414155" xlink:href="#id46">October</textPath></text><line stroke="#e1ed5e" stroke-width="0.3" x1="26.266209847984243" x2="21.928928074336255" y1="57.711370442889674" y2="55.22380399835377" /><path d="M 25.398753493254645 57.213857153982495 a86.0,86.0 0 0,1 29.58750427330803,-30.492523968695096" fill="none" id="id47" stroke="none" /><text fill="#e1ed5e" style="font-size:6.75px; font-family:Arial;" text-anchor="middle"><textPath startOffset="21.46611528233685" xlink:href="#id47">November</textPath></text><line stroke="#e1ed5e" stroke-width="0.3" x1="56.762969772571076" x2="54.21961505331055" y1="26.818313649435495" y2="22.513508569990535" /><path d="M 56.25429882871897 25.957352633546506 a86.0,86.0 0 0,1 42.265352541879196,-11.944610805530505" fill="none" id="id48" stroke="none" /><text fill="#e1ed5e" style="font-size:6.75px; font-family:Arial;" text-anchor="middle"><textPath startOffset="22.20632615414155" xlink:href="#id48">December</textPath></text></svg>